<svg id="Layer_1" data-name="Layer 1" xmlns="http://www.w3.org/2000/svg" viewBox="0 0 225.88 89.64"><defs><style>.cls-1{fill:#f2f0e9;}</style></defs><path class="cls-1" d="M25,11.6h0a1.3,1.3,0,0,0,.42.14,1.24,1.24,0,0,0,.17.37l0,0-.06.13a1.11,1.11,0,0,0-.08.3,1.25,1.25,0,0,0-.45.18,1.32,1.32,0,0,0-.43-.12,1,1,0,0,0-.14-.3l0-.06a1.14,1.14,0,0,0,.1-.19,1.09,1.09,0,0,0,.07-.3,1.14,1.14,0,0,0,.34-.15l.06,0m-.12-7.8-.61,6.8L22.51,10l.87,1.66a32.34,32.34,0,0,1-3.44.75s2.55.52,3.5.62l-.58,1.74,1.63-.88c.4,3,.79,8.62.79,8.62l.47-8.7,1.81.6c-.32-.61-.56-1.09-.84-1.63l3.63-1.16-3.7-.18.6-1.76-1.63.86c-.25-2.32-.73-6.72-.73-6.72" transform="translate(-14.91 -3.8)"/><path class="cls-1" d="M20.65,85.66c-.51-.45-.64-.43-1,.14s-.65.58-1,.2c-.06-.07-.06-.19-.09-.28l.33,0a3.63,3.63,0,0,0-1.79-1.38,21,21,0,0,0-2.2-.47c.76-.91,2.54-.44,3.4,1l1.21-.72c-.59-.36-.95-1.19-1.79-.61-.39-.48-.31-.79.25-.82.84,0,1.68,0,2.65,0-.87-.62-1.83-.19-2.67-.41l0-.16a9.45,9.45,0,0,1,1.25-.3,14.23,14.23,0,0,1,1.6,0,1.13,1.13,0,0,1,1,.51.74.74,0,0,0,.55.26c1.08,0,2.17,0,3.25,0h1.55a1.49,1.49,0,0,1,1.21.56.53.53,0,0,0,.49.15,13.64,13.64,0,0,0,1.37-.57,2.75,2.75,0,0,1,3.16.22,3.82,3.82,0,0,0,1.17.4c.17.79-1,.32-1,1a.85.85,0,0,0,1.33-.16c.24-.32.43-.69.67-1a6.11,6.11,0,0,1,.61-.56c-.05.25-.07.37-.1.5l.74.1a2.09,2.09,0,0,0-.83-2.06l1.51.76.17-.17c-.15-.44-.28-.89-.43-1.33-.3-.81-.61-1.61-.92-2.41a1,1,0,0,0-.27-.4,21.69,21.69,0,0,1-6.22-11.23,5.66,5.66,0,0,0-2.26-3.45c-1-.76-2.07-1.46-3.1-2.21a5.23,5.23,0,0,1-2.43-5,7.32,7.32,0,0,1,1.23-3.33c.86-1.27,1.79-2.48,2.69-3.71.14-.2.28-.39.43-.58a3,3,0,0,0,.76-2.44,10.26,10.26,0,0,1,.38-2.93,3.78,3.78,0,0,0,0-2.42l2.34-.65a11.54,11.54,0,0,0-1.26-1.7c-.91-.85-1.91-1.61-2.87-2.42a4.71,4.71,0,0,1-1.85-3,5.3,5.3,0,0,1,.44-2.75,1.46,1.46,0,0,1,.49-.5A10,10,0,0,1,32,27.21,4.86,4.86,0,0,0,31.72,26c-.39-.79-.86-1.53-1.31-2.29a3.35,3.35,0,0,0-.43-.5c-1.15-1.33-1.2-1.72.24-2.74a37.08,37.08,0,0,0,7.38-7.63c.44-.57.85-1.11.27-1.93-.51.16-1.08.37-1.68.52-1,.26-2.06.49-3.1.7-.37.07-.74,0-.77-.52s.25-.68.64-.73a2.76,2.76,0,0,0,1.6-.91c.37-.36.73-.72,1.12-1.06a3.35,3.35,0,0,1,.77-.54c1.79-.81,2.27-.47,2.54,1.3.1.63.12,1.28.24,1.91a3.16,3.16,0,0,0,.38,1.08,1.15,1.15,0,0,0,2,.19,3.31,3.31,0,0,1,1-.65c.28-.11.5,0,.58.4.36,1.77,1.28,2.63,3.09,2.55,1.59-.06,3.17-.39,4.75-.6l.28,0c.24,1.06.5,2.11.69,3.18.09.51.32.5.68.35.2-.08.39-.21.59-.29.47-.2.72,0,.75.5s.1,1,.17,1.53.21,1.29.33,2c1.1-.15,2.26-.28,3.41-.49.4-.07.6,0,.71.35a2.56,2.56,0,0,1-.38,2.65.9.9,0,0,0-.15.54,19,19,0,0,0,1.06,5.17c.26.84.54,1.68.75,2.54.11.44.35.59.74.52a8.45,8.45,0,0,0,.94-.29,2.8,2.8,0,0,1,.69-.13.43.43,0,0,1,.31.25c0,.07-.08.24-.17.31a1.78,1.78,0,0,1-.44.21.67.67,0,0,0-.46.83c0,.39.21.45.56.26s.66-.28,1-.42l.14.18c-.13.23-.24.47-.38.69a4.38,4.38,0,0,0-.41.58A1,1,0,0,0,63.27,37c.27,0,.54.06.81.08l.14.16c-.08,0-.19,0-.24,0a3.06,3.06,0,0,0-1.13,3.85c.29.89.71,1.74,1,2.61a12.65,12.65,0,0,1,.57,1.67c.09.37.25.48.59.48s.7,0,1.08.06c0,.55-.43.76-.81,1s-.86.49-1,1.06c-.11.83.24,1.19,1.05,1.05.37-.06.75-.1,1.2-.16-.19,1.31-1.29.88-2,1.21.44,1.52.84,3.06,1.33,4.58a6.5,6.5,0,0,0,.77,1.19.7.7,0,0,1,.15.5,2.88,2.88,0,0,0,0,1.79c.23.77.45,1.55.7,2.32.15.44.49.28.78.2s.49-.19.74-.28l.09.14c-.16.18-.33.36-.48.55a13.11,13.11,0,0,0-1.09,1.51c-.36.67,0,1.17.76,1.2.48,0,1-.05,1.56-.08-.83,1.07-.28,2.26-.56,3.32-.55,2.1-1.15,4.18-1.73,6.27-.42,1.52-.85,3-1.27,4.51,0-.25-.13-.58-.22-1-1.32,1.45-1.56,3.8-.46,4.67l.37-1.31h.06c0,.22,0,.43-.06.65a.71.71,0,0,0,.47.88.61.61,0,0,1,.31.22.89.89,0,0,1,.1.5s-.23.09-.36.13l-1.52.47.07.29a10.56,10.56,0,0,0,1.22-.25c.59-.18,1.17-.42,1.75-.64.34-.13.51,0,.64.32a2.17,2.17,0,0,1,0,2.23,3.05,3.05,0,0,0,2.52-.71c.48.91,1.38.9,2.2,1.07a12.47,12.47,0,0,1,1.61.35,1.59,1.59,0,0,1,1.19,1.18c-.79-.09-1.53-.2-2.27-.25a4.88,4.88,0,0,0-1.43,0,3.16,3.16,0,0,0-1,.58c-.18.15-.25.53-.42.57a5.14,5.14,0,0,1-1.24,0,1.92,1.92,0,0,1-.37-.11c0,.38,0,.38,1.42,1.6.49-.22.53-.68.6-1.14.11-.74.42-1,1.09-1a1.26,1.26,0,0,1,.41.19c-.1.16-.16.37-.3.46a4.25,4.25,0,0,1-.84.32h2.19c.22.27,0,.55-.32.73a11.67,11.67,0,0,1-1.31.55c-.19.08-.39.14-.57.22-.68.29-.71.46-.22,1-2.25.85-6.84,1.12-8.29-.69a3.36,3.36,0,0,1,1.05-.28,22.18,22.18,0,0,1,2.44.41,7.47,7.47,0,0,0,3.22.28l.32-.11c-.59-.85-1.14-1.69-1.73-2.51-.27-.38-.2-.71.28-.77a7,7,0,0,1,1.21,0c.59,0,.78-.09.9-.6a26.6,26.6,0,0,0-2.68,0A27.49,27.49,0,0,0,62,88a2.11,2.11,0,0,1-2-.32A3.8,3.8,0,0,0,57,86.77c-.58-1.42-1.81-2.08-2.93-2.89a1.69,1.69,0,0,0-2.14,0c-1.27.72-2.66,1.24-4,1.87a.88.88,0,0,0-.4.45c-.18.44-.28.92-.46,1.36a1,1,0,0,1-1.2.65c-.32-2.85,0-5.82-1.18-8.55l-.24,0c.12,1,.25,1.94.35,2.91.18,1.55.38,3.1.49,4.66.07,1,0,1-1,1.19a9,9,0,0,1-5.16-.7c.25-.41.49-.51,1.1-.37s1.13.31,1.7.46a2.52,2.52,0,0,0,1.94-.05A8.25,8.25,0,0,0,42.56,85a.72.72,0,0,0-.84-.23c-.52.17-1,.35-1.58.48s-.79.14-.91-.43c-.8.2-.59.91-.74,1.47a1.19,1.19,0,0,1-.5-1.18c0-.39-.15-.52-.47-.48a4.5,4.5,0,0,0-1.33.28,5.33,5.33,0,0,0-2.74,3c-.1.28-.13.52.19.71s.23.38-.08.5a.7.7,0,0,1-.37.09c-.82-.15-1.45.37-2.17.58a1,1,0,0,1-.6,0,10.53,10.53,0,0,0-4.56-.87l-.09.16a3.57,3.57,0,0,0,.92.49c.8.13,1.61.17,2.42.24a3.48,3.48,0,0,1,2.38.94,4.52,4.52,0,0,1-1.3.19c-.72-.11-1.42-.35-2.14-.51-.35-.07-.71-.09-1.09-.13.07.64.33.91.87,1,.37,0,.74,0,1.1,0a2.61,2.61,0,0,1,.86.31c.1.06.08.31.12.47a2.26,2.26,0,0,1-.45,0,2.39,2.39,0,0,0-.66-.1c.16.47.54.47.89.45s.76-.1,1.15-.13a1.59,1.59,0,0,1,1.35.39,1.32,1.32,0,0,1-1.36.75c-.75,0-1.49-.21-2.23-.33-.54-.1-1.07-.31-1.59.08-.07,0-.45-.12-.46-.22a1.68,1.68,0,0,1,.09-.8c0-.12.26-.17.42-.26-.31-.56-.59-1-1.39-.9-1,.14-1.94.12-3,.18.62-1,1.88-1.35,2.29-2.5a2.6,2.6,0,0,0-2.33,1.23c-.5-1.26.29-2.4,1.91-2.72-.79-.53-2.6-.55-5.18-.08a1.73,1.73,0,0,1,1.24-1.46m27-22.2c.7,2.28,1.48,4.5,2.06,6.78a2.3,2.3,0,0,0,2.39,1.92A9.64,9.64,0,0,1,57.6,74.3a11.68,11.68,0,0,0,1.53,1,10.2,10.2,0,0,0,1.26.48,22.36,22.36,0,0,1-1-13.06,40.88,40.88,0,0,0-11.69.76m-3.78-7.17c.25,0,.36,0,.46,0a49.16,49.16,0,0,1,8.29-.76,32.68,32.68,0,0,1,8.85,1.09c.18.05.41-.09.61-.14-.06-.18-.06-.43-.19-.55a8,8,0,0,1-2.37-4.21,9.15,9.15,0,0,1,0-3.9c-5.43,1.16-10.6,3.12-16.13,3.64.18,1.69.34,3.27.51,4.87m-13.33,0,.16-.1c.06-.27.11-.53.16-.8a40.64,40.64,0,0,0,1.17-7.5A6.64,6.64,0,0,1,32.54,46c.39-1.35.74-2.72,1-4.11a11.42,11.42,0,0,1,.83-3c.31-.6.21-.83-.3-1.07-.06.11-.12.22-.19.33-1,1.65-2,3.36-3.19,5-1.52,2.1-3.21,4.07-4.77,6.15-.74,1-1.34,2.08-2,3.14.13.07.16.09.19.09h.33a3.92,3.92,0,0,1,3.25,1c.37.33.71.7,1.06,1.05l1.83,1.73m17.6-12.43.09.19c3.93,1,8,.67,12,1.81a15.69,15.69,0,0,1-1.45-5.59c-.12-1.88,0-3.77,0-5.7a3.25,3.25,0,0,0-.33.29c-.72.73-1.45,1.46-2.14,2.22-2.09,2.3-4,4.76-7.13,5.83-.41.15-.71.62-1.06,1m10.33-10c-.52.11-.95.18-1.37.29-2.87.76-5.75,1.52-8.62,2.31A.93.93,0,0,0,48,37a23.05,23.05,0,0,0-.61,2.95,5.85,5.85,0,0,0,.32,2.71l.48-.07a9.29,9.29,0,0,0,5.21-2.91c1.74-1.88,3.38-3.83,5.15-5.85m1.16-.62a29.18,29.18,0,0,0-4.46-7.27c-.76.13-1.38.26-2,.32s-1.14,0-1.71,0a4.45,4.45,0,0,0-1.07.23.46.46,0,0,0-.23.36q.62,2.49,1.26,5c.09.35.34.46.68.51.6.08,1.19.22,1.79.31.83.13,1.66.24,2.53.36-.07-1.66-1.27-3.11-.34-4.83.24,1.67.46,3.23.69,4.8l2.87.22M47.34,62.58l12.35-1c.29-.55.6-1.14.93-1.73.21-.36.49-.69.67-1.07a.8.8,0,0,0,0-.66c-.07-.11-.39-.13-.58-.1-3.19.53-6.37,1.07-9.56,1.62-1.39.24-2.77.5-4.29.78l.5,2.16M48.67,23.7c.45-.05.91,0,1.06-.65-1.27-.18-2.34-1.32-3.79-.64.54.58,1.48.57,1.8,1.47a6.64,6.64,0,0,0-6.26,2.44,9.84,9.84,0,0,1,6.83,3.09c.41-2.52,2.15-3.94,4-5.32a4.63,4.63,0,0,1-3.63-.39M38.86,43.36l-.17.11A27.08,27.08,0,0,1,35,49.89a.94.94,0,0,0-.13.55c0,1.08.08,2.17,0,3.24a22.27,22.27,0,0,0-.13,6c.1.55.28,1.09.42,1.64l.14,0c1.3-5.93,3.11-11.75,3.6-17.93m-9.34-6.22c.2-1.64.37-3.07.54-4.52-.27,0-.6,0-.92-.1-1.07-.21-1.25-.64-.76-1.59.1-.19.08-.63,0-.7a7.65,7.65,0,0,0-1.69-.79,1.4,1.4,0,0,0-1.13.07c-1.55,1.35-1.9,2.83-.34,4.29C26.5,35,28,36,29.52,37.14m17.82,6.23a10.46,10.46,0,0,0-.29-1.17,5.21,5.21,0,0,1-.13-3.1,13.92,13.92,0,0,0,.32-1.56c.07-.56-.21-.81-.74-.75a4.37,4.37,0,0,0-3.59,6.13.85.85,0,0,0,.6.43c1.24,0,2.49,0,3.83,0M30.15,38.72c1.79-.07,2.84-.88,3.11-2.53.19-1.15.16-2.34.26-3.51,0-.43-.17-.53-.54-.56-1.64-.15-2.66.57-2.8,2.22-.12,1.44,0,2.89,0,4.38m32.19,7.82c-.24-1.77-.46-3.53-.7-5.28a10,10,0,0,0-1-3.76,12,12,0,0,0-1-1.35l-.17.1a16.36,16.36,0,0,0,.46,7.06,5.94,5.94,0,0,0,2.42,3.23m-13.94,25c-.24-1.71-.39-3.36-.74-5a13,13,0,0,0-1.11-2.72c-.07-.16-.42-.24-.65-.25s-.25.3-.26.46c0,.61-.06,1.21-.06,1.82,0,1.5,0,3,0,4.5a.63.63,0,0,0,.2.44,4.07,4.07,0,0,0,2.61.72M63.63,56.45a10.33,10.33,0,0,1-1.49-9.1,2.64,2.64,0,0,0-2.16.46c-.07,0-.1.19-.11.29a9.86,9.86,0,0,0,1.87,7,3.41,3.41,0,0,0,1.89,1.34m1.11,20.17H65q1-4.39,2.07-8.82l-2.56-.32c.08,3,.17,6.07.25,9.13M27.34,53.81c-.38-.11-.62-.74-1.06-.22a11.1,11.1,0,0,0-2.43,4.58,1.15,1.15,0,0,0,.27,1.11,4.31,4.31,0,0,0,2.07,1.19c-.57-2.42.33-4.5,1.15-6.66m36.27-3.39c-1.28,1.93-1,5.61,1.4,6.46,1.14-1.31.49-4.37-1.4-6.46m-18-32.87a2,2,0,0,0,1.53,1.6,2.56,2.56,0,0,0,2.41-.47L48.83,18l.13-.18a1.1,1.1,0,0,1,.38.17,1.82,1.82,0,0,0,1.71.38c.16,0,.4-.26.4-.4,0-.74-.05-1.49-.1-2.39L47.93,17l.32.59ZM30.69,60.43A1.76,1.76,0,0,0,29,58.21a18.7,18.7,0,0,0-2,0,.4.4,0,0,0-.32.22,2.15,2.15,0,0,0,.4,2.16,4.73,4.73,0,0,0,2.54,1c.25-1.26.25-1.26,1.08-1.25M44.57,28.55c0,.07,0,.11,0,.14A8.67,8.67,0,0,0,45.77,32a.42.42,0,0,0,.27.14l2.64.22a4.1,4.1,0,0,0-4.11-3.83M37.41,21.3c-.95.73-1.85,1.41-2.76,2.09-.45.35-.95.64-1.37,1s-.85,1-1.29,1.46a1.54,1.54,0,0,0,1.5.23c.63-.18,1.27-.35,1.9-.55a.56.56,0,0,0,.28-.27c.3-.6.57-1.22.9-1.81s.57-.86.82-1.3.3-.66,0-.88M35.94,47.68c.54-1,1.09-1.92,1.6-2.89s1.09-2,1.53-3.11a11.41,11.41,0,0,0,.46-2c-2.25,1.45-4.18,6-3.59,8m19-.21a1.62,1.62,0,0,1,.1-.18,6.8,6.8,0,0,0-.77-.75,5.85,5.85,0,0,0-3.32-1,2.69,2.69,0,0,0-1.11.26.81.81,0,0,0-.38,1.09c.12.33.12.84.65.82,1.61-.06,3.22-.15,4.83-.23M34.27,36.56a14.12,14.12,0,0,0,1.09-1.89c.42-1.12.73-2.27,1-3.42a1.9,1.9,0,0,0-.06-.7,2,2,0,0,0-.79.15,4.68,4.68,0,0,0-1.29,5.86m-2.39-8.08c1.79-.81,3.64-.65,5.53-.53,0-.67.08-1.26.12-1.9-.61,0-1.18-.05-1.74,0a6.3,6.3,0,0,0-3.17,1,1.52,1.52,0,0,0-.74,1.43m8.19,28.81a1.18,1.18,0,0,0,1.56-.68,9.46,9.46,0,0,0,.18-4.72H40.47c-.14,1.83-.27,3.6-.4,5.4M56.89,57a17.34,17.34,0,0,0-4.47-.74,7.75,7.75,0,0,0-1.78.27,1,1,0,0,0-.81.9c.57.08,1.1.2,1.65.23,1.35.07,2.7.14,4.05.14a1.52,1.52,0,0,0,1.36-.8M28.38,29.24l.27.64c.37.82.37.82,1.21.6a5.29,5.29,0,0,1,.54-.13c1.55-.29,3.11-.54,4.65-.88a13.22,13.22,0,0,0,1.86-.72l-.06-.18A7.65,7.65,0,0,0,30.49,30c-.73-.51-1.45-1-2.11-.77m39,43.07c.74-2.47,2-4.86,1.15-7.57-1.76,2.31-1.22,5-1.15,7.57M42.89,43.59c.11.87.19,1.56.28,2.35,1.17-.24,2.23-.42,3.27-.69a2.1,2.1,0,0,0,1.45-1.41,11.75,11.75,0,0,0-1.55,0c-1.1.11-2.2.51-3.45-.21M31.53,20.36c2.36.09,4.26-2.65,4.82-5.31-1.67,1.77-3.52,3.23-4.82,5.31m5.78-.05a11.55,11.55,0,0,1-1.53.64c-1.12.29-2.26.51-3.38.76-.13,0-.35.08-.36.15a1.16,1.16,0,0,0,0,.72c.21.31.56.8.79.76a6.34,6.34,0,0,0,4.44-3m16.16,2.91c.74.33,1.38.69,2.07.92a6.18,6.18,0,0,0,1.55.23.51.51,0,0,0,.36-.31c.07-.65.1-1.31.15-2a7.48,7.48,0,0,0-4.13,1.17m-1.23-.57c0-.51,0-.93,0-1.34a3.2,3.2,0,0,0-.08-1c-.07-.25-.32-.55-.6-.22a2.8,2.8,0,0,1-1.91.86l-1.75.25v.15c1.44.48,2.72,1.45,4.35,1.28M44.39,63.88a16.78,16.78,0,0,0,.39,7.29c.64-1.57.86-6.29-.39-7.29M60,80.7s0-.1,0-.14a4.94,4.94,0,0,1-2.45-1.16,14,14,0,0,0-1.59-1.09,1,1,0,0,0-1.46.47c.48.11,1,.19,1.43.33a1.16,1.16,0,0,1,1,1.39c0,.16,0,.41.06.45a3.74,3.74,0,0,0,2.14.76l-.2-.87L60,80.7M43.87,70.47a15.91,15.91,0,0,0-.45-5.78c-.24,1-.48,1.83-.68,2.72A7.11,7.11,0,0,0,42.55,69a1.42,1.42,0,0,0,1.32,1.48M61.15,46.36a8.28,8.28,0,0,1-3.6-.27,6.32,6.32,0,0,0-2.93-.15,1.91,1.91,0,0,0-.36.17c2.07,1.4,5.33,1.54,6.89.25M65.32,57c-.08.2-.23.39-.21.56A8.46,8.46,0,0,0,65.4,59c.2.74.53,1.47-.2,2.16a3.74,3.74,0,0,0,.91-.07c.28-.06.56-.15.83-.22,0-2.15-.3-3.66-1.62-3.93M37.16,18.17a1.92,1.92,0,0,0,2.21-.59c-.13-.5-.27-.93-.35-1.37S39,15.4,38.89,15a.93.93,0,0,0-.65-.86c-.36,1.35-.72,2.66-1.08,4m0,52.81a1.08,1.08,0,0,0-1.1,1,1.24,1.24,0,0,0,.56,1.21c-.26-1.49.91-1.64,1.73-2.1-.33-.52-1.25-.5-1.12-1.41l.85.22.06-.15-2.3-2.09-.17.13a2.08,2.08,0,0,0,.19.67,1.11,1.11,0,0,1,0,1.46l1.25,1M49.52,27.43l-.2,0c-.17,1-.37,1.9-.5,2.85a1.2,1.2,0,0,0,.6,1.22,5.13,5.13,0,0,0,1,.31,3.55,3.55,0,0,0,.21-.93,8.61,8.61,0,0,0-1.07-3.42M46,32.49c.06.39,0,.7.14.9.49.74,1,1.48,2.11,1.2.18-.05.38,0,.55-.07a7,7,0,0,0,.69-.31,4.88,4.88,0,0,0-.46-.88,1.15,1.15,0,0,0-.63-.32c-.74-.18-1.49-.32-2.4-.52M30.1,65.64c.55,2.13,1.39,5.21,2.26,5.69-.14-.93-.26-1.86-.43-2.77a14.22,14.22,0,0,0-.56-2.06,1.19,1.19,0,0,0-1.27-.86M62,41.58c.2,1.2.34,2.32.58,3.42a1.91,1.91,0,0,0,1.24,1.43c.46-1.28-.51-3.93-1.82-4.85M37.55,64.28c.07,1.79-.23,3.53,1.37,4.82l.3-.65-.89-.7.09-.13.54.08-.59-1,.11-.06.86.38a3.33,3.33,0,0,0-1.79-2.75m25,19.82c-.12-.58.21-.72.73-.7a3,3,0,0,0,.64-.12c-.9-.32-1-.46-1-1.3a5.25,5.25,0,0,0-.1-1,2.67,2.67,0,0,0-.33-.59,2.1,2.1,0,0,0-.1.74c0,.78-.22,1-1,.92-.2,0-.4-.07-.6-.07s-.41,0-.61.06c.71.33,1.55.31,1.86,1.26A4.94,4.94,0,0,1,60.74,83c-.49-.21-.54-.21-.8.14l2.63,1M40.61,69c.14-.78.26-1.31.33-1.85a7.61,7.61,0,0,0,.13-1.64c0-.23-.33-.51-.57-.61s-.48.26-.56.47a3.9,3.9,0,0,0,0,2.91c.1.25.39.43.66.72M43,63.64c.09-.39.16-.76.26-1.13s.24-.67.29-1-.29-.7-.57-.61-.59.15-.87.25-.36.18-.37.29c-.07.59-.09,1.19-.11,1.79s.27.65.7.51a3.5,3.5,0,0,1,.67-.09m14-38.71A1,1,0,0,0,56.54,26a4.88,4.88,0,0,0,1.85,3.44l0,0-.43-2.8a2.33,2.33,0,0,0-.84-1.74M43,64.38a1,1,0,0,0-1.29.68,6.71,6.71,0,0,0,0,3.87l.22,0c.34-1.51.68-3,1-4.58M38.89,25.77A1.06,1.06,0,0,0,40.14,25a4.62,4.62,0,0,0-.3-3.34,9.89,9.89,0,0,0-1,4.13m14.57-6.95h-.2c-.13.15-.33.28-.37.44a7.13,7.13,0,0,0-.35,1.91c.09,1.52.24,1.28,1.24.91L54,22c0-.57-.07-1.12-.16-1.66s-.23-1-.35-1.55m-6.38-2.65a18.66,18.66,0,0,0-6.36,1.91,11.24,11.24,0,0,0,6.36-1.91M31.32,41c-.64.3-1.23.56-1.82.85-.2.1-.51.23-.54.4a12.14,12.14,0,0,0-.23,1.8c0,.13.12.28.25.55.73-1.34,2.11-2.09,2.34-3.6M41.61,58.15c-1.08-.23-1.35-.07-1.5.94a3.36,3.36,0,0,0,0,1.14A.94.94,0,0,0,41,61c.27,0,.41,0,.42-.35,0-.82.11-1.64.17-2.5m-5.33-23.5c.78-.19,1.1-.65,1.18-1.64.07-.79.14-1.59.2-2.42H37c-.25.89-.48,1.73-.71,2.57a1.88,1.88,0,0,0,0,1.49m10.65,44.2,0,.16L55,81.39a1.21,1.21,0,0,0,.05-.18c-2.67-.89-5.14-2.46-8.1-2.36M39.8,63a2.7,2.7,0,0,0,.17.75.89.89,0,0,0,.52.4.69.69,0,0,0,.52-.31,2.5,2.5,0,0,0,.31-2c-.06-.21-.29-.48-.48-.5a.73.73,0,0,0-.58.36A10.9,10.9,0,0,0,39.8,63M35.11,19a1.36,1.36,0,0,0,1.51-.69,9.17,9.17,0,0,0,.74-3.18l-.14,0c-.7,1.29-1.39,2.57-2.11,3.92M63.63,67.23c-.56,1.4-.29,4.12.59,4.94,0-1.24,0-2.36,0-3.47a1.74,1.74,0,0,0-.58-1.47M41.24,17.28l.21-.05c.48-.89,1.36-1.55,1.46-2.83l-2.45,1.39.78,1.49M27.38,28.57l3,.55L31,27.85a4.37,4.37,0,0,0-3.58.72m4.49,32,.34,1c.08.26.1.59.27.76a1.12,1.12,0,0,0,.79.29.83.83,0,0,0,.61-.49,1.56,1.56,0,0,0-2-1.57M35,75.23c-.68-1.67-1.06-3.48-2.24-4.91.33,1.83.61,3.68,2.24,4.91m16.25-2.42c.16,1,2.81,1.65,4.47,1.17a11.93,11.93,0,0,0-4.47-1.17M39,74.35a3.19,3.19,0,0,0-.81.38,1.67,1.67,0,0,0,.5,2.49.48.48,0,0,0,.43-.21,1.92,1.92,0,0,0,0-.76c0-.58-.1-1.16-.17-1.9m6.33-12.23c-.14-.41-.25-.83-.4-1.24s-.42-.34-.57-.05a4.46,4.46,0,0,0-.44,1.32c-.1.73.21,1.32.59,1.31s.75-.61.82-1.34m-3.1-5.3A.92.92,0,0,0,43.41,56a3.33,3.33,0,0,0-.33-2.19,4.36,4.36,0,0,0-.38-.47c-.18,1.22-.35,2.34-.52,3.5m1.41-25.19c-.08-1.07-.07-2.14-1-2.91a2.26,2.26,0,0,0-.18,2.35,1,1,0,0,0,1.18.56M57.25,58a5.55,5.55,0,0,0,3.45-.65c-.85-.17-1.56-.35-2.28-.44s-1.1.23-1.17,1.09M39.07,30.37l-.87-.05c-.07,1-.14,1.92-.2,2.86.94-.12,1.31-1.15,1.07-2.81M61.53,61.86C60,62,59.35,63.49,59.9,65.14l1.63-3.28M46.39,19.34c-.33-.4-.6-.77-.91-1.09a2.19,2.19,0,0,0-.58-.33c-.16.3-.45.6-.44.88s.07.9.6,1a1.35,1.35,0,0,0,1.33-.45m-.81,43.58,1.21.07c-.19-.79-.34-1.47-.54-2.14,0-.16-.27-.28-.41-.42-.12.2-.34.41-.35.61,0,.61,0,1.21.09,1.88M36.39,35.76c-.37.82-.71,1.59-1.06,2.35l1,.38c.67-1.29,1-2.5.11-2.73m8.93,41a7.82,7.82,0,0,0-2.8-2.28c.18.53.33,1,.5,1.48,0,.14.14.36.25.38.66.16,1.34.28,2,.42M41.7,19c0,.09,0,.19,0,.28l2,.79L43.9,20a8,8,0,0,0-.14-1.21c0-.13-.33-.33-.45-.29-.55.15-1.08.38-1.61.58m-5,21.9c-1.49,0-2.19.54-2.27,1.64,1,.19,1.85-.42,2.27-1.64M35.25,69.24a4.28,4.28,0,0,0-2.34-2.69c-.08,1.68,1.36,1.88,2.34,2.69m3.37-34.67c-.87,1.1-1,2.74-.28,3.42a4.9,4.9,0,0,0,.28-3.42M50.89,19.06c-1.17.28-2.56,0-3.41,1.16,1.22-.14,2.52,0,3.41-1.16M38.75,81.94A15,15,0,0,0,37,77.65a6.39,6.39,0,0,0,1.73,4.29m11-10.42c-.42-1.51-.82-2.91-1.21-4.31-.21,2.12.29,3.82,1.21,4.31m12.4-7.67,1.22-2.13c-.67-.15-1.45.05-1.5.4a9.93,9.93,0,0,0-.08,1.44c0,.1.25.2.36.29M51.59,32.91a5.27,5.27,0,0,0-2.5-1.13A1.21,1.21,0,0,0,49.92,33a1.54,1.54,0,0,0,1.67-.08M30.49,22.84l1.19,2.05.72-.34c-.43-1.39-1.21-2.05-1.91-1.71m2,61.1c-.1-1-1.48-1.21-3.14-.55,1.07.19,2,.75,3.14.55m5.69-5.65c.24.87.2,1.83,1,2.55.45-1.75.07-2.78-1-2.55M64.9,59.8a9.57,9.57,0,0,0-.19-1.51.86.86,0,0,0-.63-.4c-.12,0-.35.3-.4.5-.2.69.3,1.31,1.22,1.41M50.77,14.87c-1,.26-2.27.08-3.07,1.21a3.29,3.29,0,0,0,3.07-1.21M36.68,76.17a8.34,8.34,0,0,0-2-3.44c.36,1.26.6,2.59,2,3.44m29,.43.16,0c.29-.75.6-1.48.85-2.24a.79.79,0,0,0-.42-1.07c-.2.76-.43,1.49-.58,2.23a5.36,5.36,0,0,0,0,1.06M41,47.26h-.22c-.14,1.3-.58,2.61.22,3.94Zm26.65,14.2-.1-.16a6.83,6.83,0,0,0-1.29.47c-.16.11-.29.65-.21.72A4.31,4.31,0,0,0,67,63c.25-.6.44-1,.64-1.51M35.41,63.08c0,.63-.06,1.13-.09,1.62.82.23,1.2-.12,1.28-1.09l-1.19-.53M24.53,85.25c-.63-.08-1.26-.19-1.89-.22-.17,0-.36.2-.53.32.19.17.36.45.57.49a2,2,0,0,0,1.85-.59m3.36-42.44A4.19,4.19,0,0,0,28,46.05a3.56,3.56,0,0,0-.06-3.24m4.18-11.5a1.82,1.82,0,0,0,2.76-.59l-2.76.59M51.81,32.7c.21.34.31.7.54.81a2.87,2.87,0,0,0,2.32-.25l-2.86-.56M40.09,17.77a1.91,1.91,0,0,0-.66-2.65,6.56,6.56,0,0,0,.66,2.65m13.47.48c-1.17-.15-2,.27-2.12,1a2.42,2.42,0,0,0,2.12-1M67.62,64.68a1.6,1.6,0,0,1-.05-.21l-2.12.24a1.55,1.55,0,0,0-.07.23,2.52,2.52,0,0,0,.78.4,1.53,1.53,0,0,0,1.46-.66M61.2,60.5c1,.15,1.32,0,1.32-.78l-1.2-.51c0,.47-.08.87-.12,1.29M41.82,46.15a3,3,0,0,0-.07-3c.16,1-.51,2,.07,3M35.39,71.29a1.89,1.89,0,0,0-1.73-2.21l1.73,2.21M45.8,15.81c-1-.82-1.43-1-1.77-.74.06.36.12.69.2,1.1l1.57-.36M65.57,67.2l.09.19a3.55,3.55,0,0,0,.8,0c.26-.07.69-.25.69-.38,0-.29-.22-.58-.35-.89L65.57,67.2M59.93,34c0,.38,0,.77.07,1.16l.21,0a7.13,7.13,0,0,0,.81-.84.51.51,0,0,0,0-.52c-.06-.09-.32-.06-.49,0a3.46,3.46,0,0,0-.57.18M42,50.78l.21,0c-.1-1-.19-2.06-.28-3.08h-.19a5.65,5.65,0,0,0,.26,3.1m-2.8-37.37a4.92,4.92,0,0,0,.4.86,1.13,1.13,0,0,0,.52.31c.06,0,.27-.15.26-.2a2.77,2.77,0,0,0-.32-1,.53.53,0,0,0-.86,0m4.9,19.52c0-.61-.5-.88-1.5-.87,0,.75.57,1.1,1.5.87M36,25.6a3.1,3.1,0,0,0,1.48-2.8c-.5.93-1,1.83-1.48,2.8M43.4,14.93c-.3.61-.58,1.16-.88,1.75.65.23.93-.38,1.19-.65s0-.81-.31-1.1m-5.24,3.69c-.73.57-1.7.38-2.35,1.07,1.14.18,2.32-.31,2.35-1.07M50.53,34.79a.91.91,0,0,0,1.15.2,3.91,3.91,0,0,0,.61-.71c-.79-.09-1.33-.06-1.76.51M31.58,39a1.6,1.6,0,0,1,.1.23,11.64,11.64,0,0,0,1.42-.56.46.46,0,0,0,.14-.83L31.58,39M47.5,76.16l1.57.54c.28.1.57.23.78-.15-1.34-.77-2.05-.86-2.35-.39m-3.78-3.43c.25-.74-.2-1.22-1.14-1.2,0,.63,0,.72,1.14,1.2m2.93-52.6c-.44,0-.78,0-1.12,0a1.73,1.73,0,0,0-.42.14c.07.11.13.28.23.32.4.14.82.24,1.31.38Zm-3.83,4.31c1-1,1-1.07.5-1.48-.1.12-.21.24-.32.35s-.25.21-.37.33c-.42.41-.4.54.19.8M61.12,68.8c0-.69,1-1.26.27-2.17-.4.78-.68,1.44-.27,2.17M22.44,83.61c.53.15.94.28,1.37.36a.46.46,0,0,0,.37-.18.56.56,0,0,0-.19-.41,1.26,1.26,0,0,0-1.55.23M37.81,24.16a6.06,6.06,0,0,0-.52.95c-.06.18.06.41.1.62.18-.1.45-.16.52-.31a1.18,1.18,0,0,0-.1-1.26M26.91,86.71a12.73,12.73,0,0,0-1.27-.36c-.08,0-.34.28-.31.34.18.42,1.13.51,1.58,0M53.49,58.58c0-.07,0-.15-.05-.23a6.59,6.59,0,0,0-1.08-.11c-.16,0-.3.24-.45.37.15.09.3.27.43.26a11.38,11.38,0,0,0,1.15-.29M43.35,22.26h1c0-.3,0-.58,0-.84-.61-.13-.83,0-1,.84m17.78,14.6a3.88,3.88,0,0,0-.24-1.06c-.1-.18-.43-.21-.72-.34-.05.75.31,1.07,1,1.4m4.93,27.26c.09-.78-.11-1-.84-1,0,.28,0,.56,0,.88l.89.07M40.3,31.5l-.22,0A7.81,7.81,0,0,0,40,32.72c0,.13.23.25.36.38.09-.14.28-.29.26-.4-.07-.41-.2-.8-.31-1.2m8.26,3.78c.58,0,1.06,0,1.53,0,0,0,.06-.3.1-.48a1.59,1.59,0,0,0-1.63.5M40.88,21a8.28,8.28,0,0,0,1-.14c.14,0,.24-.23.36-.35-.14-.08-.3-.25-.43-.23a1.79,1.79,0,0,0-.71.26c-.12.08-.15.29-.22.46m.57.81a6.35,6.35,0,0,0,1,.06c.11,0,.25-.22.29-.36s-.18-.26-.3-.27a.83.83,0,0,0-1,.57m-10.05,67,.24-.07c.06-.36.13-.72.19-1.08l-.2-.09c-.23.19-.57.33-.65.56s.27.45.42.68M49,47.39c-.17-.37-.31-.69-.48-1,0-.06-.21-.06-.33,0a.25.25,0,0,0-.07.17,6.28,6.28,0,0,0,.19.86.5.5,0,0,0,.31.28c.11,0,.23-.16.38-.28m9-25.3c0,.31-.07.56-.09.81,0,.07,0,.16,0,.21a.91.91,0,0,0,.33.29c.06,0,.23-.07.28-.16A.9.9,0,0,0,58,22.09M45.26,73.9c.09-.75-.16-1-.83-.94,0,.69.09.85.83.94m-7.19,9.16c.13-.7-.09-1-.79-1-.09.7.08.91.79,1m3.34-41a2.46,2.46,0,0,0-.3-2.45c.11.9.2,1.68.3,2.45m-14.48,19-.53.39c.18.15.35.4.53.42s.38-.23.58-.35l-.58-.46m13.74,8.67L39.9,69v1.38l.31.21c-.39-.6.41-.52.46-.87m6.43,6.06c-.33-.16-.6-.32-.9-.43-.12,0-.28,0-.42,0,0,.16,0,.39.16.45a.89.89,0,0,0,1.16-.06M29.39,62.58v-.21a1.83,1.83,0,0,0-.64-.27c-.13,0-.27.24-.41.38.18.12.34.32.54.35s.34-.16.51-.25M42,71.05l1.27-.43-.73-.69c-.17.37-.33.7-.54,1.12M38.82,82.47v1.06l1-.12-1-.94M61.19,64.28H61a6,6,0,0,0-.18.94c0,.14.14.29.22.44.1-.12.3-.24.3-.36a7.48,7.48,0,0,0-.14-1M35,64.05c.06-.6,0-.69-.84-.85,0,.64.12.8.84.85m2.12,1.75c0-.42.23-.85-.15-1.23-.56.57-.5,1,.15,1.23M28.78,86.31c.73-.13,1.32.33,2,0-.92-.38-1.51-.4-2,0M50,34.09l.86,0c0-.63-.2-.76-.86-.61ZM32.58,21,34,20.45c0-.07,0-.15-.08-.23-.48.16-1,.31-1.44.49a1.54,1.54,0,0,0,.06.33m6.2,5.43c0,.36.07.63.12,1l.89-1-1-.05M44,84.23l-.19.08c.15.38.3.76.46,1.14l.16-.06c.09-.48.11-.93-.43-1.16m-.85-6.79c0,.06,0,.13.07.2.46,0,.93.12,1.08-.61l-1.15.41m7.14-.4c.28.18.53.36.8.51a.31.31,0,0,0,.28,0,.29.29,0,0,0,.07-.28c-.12-.29-.8-.44-1.15-.24m-9.6-2.68.42,1.12c.32-.71.23-1-.42-1.12m.89-4.79-.24,0c-.06.3-.14.59-.17.88,0,.1.12.2.18.3.11-.08.3-.15.3-.24a7.12,7.12,0,0,0-.07-.92M30.09,63.43l-.21.07c-.09.46-.08.89.39,1.14l.21-.08-.39-1.13M42.92,52.92a.78.78,0,0,0-.1-1.08.29.29,0,0,0-.28-.05.33.33,0,0,0,0,.28c.13.29.28.57.43.85m2.45-20.5-.28.1c.06.27.13.54.19.81.14-.08.41-.21.4-.25a3.07,3.07,0,0,0-.31-.66M28.5,37l.09-.14c-.74-.93-.8-1-1.15-.58L28.5,37m3,18.51.95-.49c-.74-.26-.88-.19-.95.49m1.2,30.64c-.76-.27-.95-.16-.9.5l.9-.5m-5.25.1v.17c.31.26.62.25.9-.17ZM54.25,33.9V34h1.08V33.9Z" transform="translate(-14.91 -3.8)"/><path class="cls-1" d="M87.32,32V43.37a.9.9,0,0,0,.21.64,1.28,1.28,0,0,0,.66.33v.45H82.7v-.45a1.38,1.38,0,0,0,.65-.33.88.88,0,0,0,.22-.65V27.54a.9.9,0,0,0-.21-.64,1.37,1.37,0,0,0-.66-.34v-.45h7.2v.45a1.29,1.29,0,0,0-.44.22.83.83,0,0,0-.21.42,1.35,1.35,0,0,0,.2.73l5.1,9.38,5.12-9.21.18-.34a1.32,1.32,0,0,0,.19-.47.64.64,0,0,0-.71-.73v-.45h7.06v.45a1.44,1.44,0,0,0-.64.34.86.86,0,0,0-.23.64V43.36a.92.92,0,0,0,.21.65,1.28,1.28,0,0,0,.66.33v.45h-5.82v-.44c.59-.15.89-.48.89-1V32L94.18,44.54Z" transform="translate(-14.91 -3.8)"/><path class="cls-1" d="M114.34,41l-.71,1.4a3.06,3.06,0,0,0-.38,1.26.63.63,0,0,0,.27.52,1.54,1.54,0,0,0,.6.3v.36h-5.63v-.36a1.4,1.4,0,0,0,.8-.38,4.19,4.19,0,0,0,.57-.88l5.6-11.32a3.35,3.35,0,0,0,.21-.47,1.65,1.65,0,0,0,.1-.62.73.73,0,0,0-.21-.54,1.58,1.58,0,0,0-.57-.35V29.5h6v.37a1.39,1.39,0,0,0-.53.33.71.71,0,0,0-.23.51,2.42,2.42,0,0,0,.07.58,3.33,3.33,0,0,0,.27.62l5.8,11a10.59,10.59,0,0,0,.57,1,1.56,1.56,0,0,0,1,.58v.36h-6.24v-.36a2.19,2.19,0,0,0,.59-.21.66.66,0,0,0,.28-.61,2.62,2.62,0,0,0-.41-1.31L121.37,41Zm3.42-7.05-2.38,4.93h4.87Z" transform="translate(-14.91 -3.8)"/><path class="cls-1" d="M134.39,43.39a1,1,0,0,0,.21.66,1.47,1.47,0,0,0,.66.38v.36h-5.41v-.36a1,1,0,0,0,.87-1V30.87a1,1,0,0,0-.87-1V29.5h10a10.51,10.51,0,0,1,4.73.89c1.16.59,1.74,1.79,1.74,3.61a3.71,3.71,0,0,1-1.14,2.92A6.92,6.92,0,0,1,142,38.38l2.92,4a15.7,15.7,0,0,0,1.16,1.44,2,2,0,0,0,1.16.6v.36h-6.41v-.36a1.69,1.69,0,0,0,.56-.24.42.42,0,0,0,.14-.32,1.09,1.09,0,0,0-.09-.47,2.1,2.1,0,0,0-.33-.51l-3.08-4.34h-3.67Zm5.52-7.64a5.25,5.25,0,0,0,2-.33,1.33,1.33,0,0,0,.77-1.38,1.37,1.37,0,0,0-.76-1.43,5.43,5.43,0,0,0-2-.31h-5.52v3.45Z" transform="translate(-14.91 -3.8)"/><path class="cls-1" d="M155.63,29.5v.37a1,1,0,0,0-.86,1V43.39a1,1,0,0,0,.21.66,1.43,1.43,0,0,0,.65.38v.36h-5.4v-.36a1,1,0,0,0,.87-1V30.87a1,1,0,0,0-.87-1V29.5Z" transform="translate(-14.91 -3.8)"/><path class="cls-1" d="M162.79,43.39c0,.5.3.85.9,1v.36h-5.1v-.36a1,1,0,0,0,.87-1V30.87a1,1,0,0,0-.87-1V29.5h5.88v.37A1.12,1.12,0,0,0,164,30a.44.44,0,0,0-.15.37.7.7,0,0,0,.08.35,5,5,0,0,0,.37.43l8.2,8.12V30.87a1,1,0,0,0-.87-1V29.5h5.1v.37c-.6.15-.9.48-.9,1V43.39c0,.5.3.85.9,1v.36h-5.49v-.36a1.2,1.2,0,0,0,.39-.13.36.36,0,0,0,.2-.35,1.06,1.06,0,0,0-.41-.76l-.52-.47-8.12-8Z" transform="translate(-14.91 -3.8)"/><path class="cls-1" d="M184.21,42h9.71c.51,0,.85-.3,1-.9h.36v4.54H195a1,1,0,0,0-1-.84H179.67V44.4a1,1,0,0,0,.87-1V30.87a1,1,0,0,0-.87-1v-.4H193.5c.51,0,.85-.29,1-.89h.36v4.53h-.36a1.05,1.05,0,0,0-1-.84h-9.29v3.34H190a1,1,0,0,0,.68-.21,1.57,1.57,0,0,0,.36-.66h.36v4.42H191a1,1,0,0,0-1-.89h-5.76Z" transform="translate(-14.91 -3.8)"/><path class="cls-1" d="M93.09,54.11a18.15,18.15,0,0,1,4,.4,7.28,7.28,0,0,1,3.2,1.65,7.59,7.59,0,0,1,2.17,3.16,12.21,12.21,0,0,1,0,8.26,7.25,7.25,0,0,1-2.17,3.15,7.81,7.81,0,0,1-3.23,1.64,17.6,17.6,0,0,1-4,.42H82.7v-.45a1.38,1.38,0,0,0,.65-.33.88.88,0,0,0,.22-.65V55.54a.9.9,0,0,0-.21-.64,1.37,1.37,0,0,0-.66-.34v-.45Zm-.34,15.6a6.54,6.54,0,0,0,4.75-1.53,6.33,6.33,0,0,0,1.56-4.72,6.46,6.46,0,0,0-1.53-4.74,6.52,6.52,0,0,0-4.78-1.53H87.63V69.71Z" transform="translate(-14.91 -3.8)"/><path class="cls-1" d="M122.55,57.87a1.51,1.51,0,0,0-.67.36.87.87,0,0,0-.23.67V67q0,3.51-2,4.82a10.55,10.55,0,0,1-5.77,1.3,10.65,10.65,0,0,1-5.77-1.29c-1.32-.85-2-2.47-2-4.83V58.9a1.05,1.05,0,0,0-.87-1V57.5h5.43v.37a1.05,1.05,0,0,0-.87,1v7.35a4,4,0,0,0,1,3.08,6.43,6.43,0,0,0,6.51,0,4,4,0,0,0,1-3.07V58.9a1,1,0,0,0-.21-.66,1.38,1.38,0,0,0-.66-.37V57.5h5.1Z" transform="translate(-14.91 -3.8)"/><path class="cls-1" d="M133.08,71.39a1.07,1.07,0,0,0,.87,1v.36h-5.4v-.36a1,1,0,0,0,.86-1V60.3h-4.5a1,1,0,0,0-1,.81h-.36V56.58h.36a1.59,1.59,0,0,0,.36.69.93.93,0,0,0,.68.23h12.68c.52,0,.86-.31,1-.92H139v4.53h-.39a1,1,0,0,0-1-.81h-4.51Z" transform="translate(-14.91 -3.8)"/><path class="cls-1" d="M151.39,71.39c0,.5.3.85.9,1v.36h-5.43v-.36a1.68,1.68,0,0,0,.67-.37.9.9,0,0,0,.22-.67V66.07l-4.53-6.24a12.45,12.45,0,0,0-1.12-1.35,2.22,2.22,0,0,0-1.21-.61V57.5h6.89v.38a2.11,2.11,0,0,0-.66.27.61.61,0,0,0-.21.51,1.27,1.27,0,0,0,.13.6c.08.14.26.39.52.74l2.21,3.19,2.16-3.2c.16-.24.31-.46.44-.67a1.15,1.15,0,0,0,.2-.58.66.66,0,0,0-.25-.55,1.74,1.74,0,0,0-.62-.32V57.5h6.55v.37a2.29,2.29,0,0,0-1.2.6A9,9,0,0,0,156,59.83l-4.57,6.24Z" transform="translate(-14.91 -3.8)"/><path class="cls-1" d="M174.07,71.36c0,.51.3.83.89,1v.45h-5.82v-.45a1.34,1.34,0,0,0,.64-.33.89.89,0,0,0,.23-.65V55.54a.9.9,0,0,0-.21-.64,1.37,1.37,0,0,0-.66-.34v-.45h16.52a.9.9,0,0,0,.64-.21,1.37,1.37,0,0,0,.34-.65h.45v4.81h-.45a1.44,1.44,0,0,0-.34-.64.86.86,0,0,0-.64-.23H174.07v4.46h7.58a1.12,1.12,0,0,0,.59-.14,1.3,1.3,0,0,0,.39-.73h.45v4.73h-.45c-.14-.6-.47-.9-1-.9h-7.58Z" transform="translate(-14.91 -3.8)"/><path class="cls-1" d="M192.72,71.39a1,1,0,0,0,.21.66,1.47,1.47,0,0,0,.66.38v.36h-5.4v-.36a1,1,0,0,0,.86-1V58.87a1,1,0,0,0-.86-1V57.5h10a10.51,10.51,0,0,1,4.73.89c1.16.59,1.74,1.79,1.74,3.61a3.71,3.71,0,0,1-1.14,2.92,6.93,6.93,0,0,1-3.17,1.46l2.91,4a15.7,15.7,0,0,0,1.16,1.44,2,2,0,0,0,1.16.6v.36h-6.41v-.36a1.59,1.59,0,0,0,.56-.24.42.42,0,0,0,.14-.32,1.28,1.28,0,0,0-.08-.47,2.6,2.6,0,0,0-.34-.51l-3.08-4.35h-3.67Zm5.52-7.64a5.25,5.25,0,0,0,2-.33A1.33,1.33,0,0,0,201,62c0-.75-.25-1.23-.76-1.43a5.4,5.4,0,0,0-2-.31h-5.52v3.45Z" transform="translate(-14.91 -3.8)"/><path class="cls-1" d="M212.1,70h9.71c.51,0,.85-.3,1-.9h.36v4.54h-.36a1,1,0,0,0-1-.84H207.56V72.4a1,1,0,0,0,.87-1V58.87a1,1,0,0,0-.87-1v-.4h13.83c.51,0,.85-.29,1-.89h.36v4.53h-.36a1.05,1.05,0,0,0-1-.84H212.1v3.34h5.77a1,1,0,0,0,.67-.21,1.46,1.46,0,0,0,.36-.66h.37v4.42h-.4c-.15-.6-.48-.89-1-.89H212.1Z" transform="translate(-14.91 -3.8)"/><path class="cls-1" d="M229.68,70h9.72c.5,0,.85-.3,1-.9h.37v4.54h-.37a1,1,0,0,0-1-.84H225.15V72.4a1,1,0,0,0,.86-1V58.87a1,1,0,0,0-.86-1v-.4H239a1.05,1.05,0,0,0,1-.89h.37v4.53H240a1,1,0,0,0-1-.84h-9.3v3.34h5.77a.94.94,0,0,0,.67-.21,1.57,1.57,0,0,0,.37-.66h.36v4.42h-.39a1,1,0,0,0-1-.89h-5.77Z" transform="translate(-14.91 -3.8)"/></svg>