<svg id="Isolation_Mode" data-name="Isolation Mode" xmlns="http://www.w3.org/2000/svg" viewBox="0 0 33.66 24.16"><defs><style>.cls-1{fill:#baa591;}</style></defs><path class="cls-1" d="M31,.34A.41.41,0,0,0,30.51,0L4.21,4.94a.42.42,0,0,0-.33.49l.66,3.49H.42A.42.42,0,0,0,0,9.34v14.4a.42.42,0,0,0,.42.42H27.17a.42.42,0,0,0,.42-.42V16.06L33.32,15a.42.42,0,0,0,.27-.18.38.38,0,0,0,.06-.31Zm-4.25,23H.84V9.76H26.75Zm-11-14.41a3.14,3.14,0,0,1,2.4-2.07,3,3,0,0,1,.59-.06,3.13,3.13,0,0,1,3,2.13Zm6.7,0a3.84,3.84,0,0,0-7.42,0H8.18A2.73,2.73,0,0,0,8.84,7L26.69,3.68a2.81,2.81,0,0,0,2.72,1.87l.88,4.67a2.78,2.78,0,0,0-1.38,1.06,2.67,2.67,0,0,0-.48,1.66l-.84.16V9.34a.42.42,0,0,0-.42-.42Zm5.11,6.29V14L29,13.69a.41.41,0,0,0,.27-.17.42.42,0,0,0,.07-.31,1.93,1.93,0,0,1,.3-1.46,1.88,1.88,0,0,1,1.25-.81.45.45,0,0,0,.27-.18.42.42,0,0,0,.06-.31L30.16,5a.42.42,0,0,0-.49-.33,1.92,1.92,0,0,1-1.45-.31,1.93,1.93,0,0,1-.82-1.24.41.41,0,0,0-.17-.27.42.42,0,0,0-.31-.07L8.31,6.28A.47.47,0,0,0,8,6.46.42.42,0,0,0,8,6.77,1.93,1.93,0,0,1,6.8,8.92H5.39L4.78,5.68,30.25.9l2.5,13.34Z" transform="translate(0)"/><path class="cls-1" d="M2.06,19.74a1.94,1.94,0,0,1,1.72,1.93.42.42,0,0,0,.42.42H23.13a.42.42,0,0,0,.42-.42,1.94,1.94,0,0,1,1.94-2,.41.41,0,0,0,.42-.41V13.77a.41.41,0,0,0-.42-.41,2,2,0,0,1-1.94-1.95.41.41,0,0,0-.42-.41H4.2a.41.41,0,0,0-.42.41,1.94,1.94,0,0,1-1.72,1.93.43.43,0,0,0-.38.42v5.56A.42.42,0,0,0,2.06,19.74Zm.46-5.63a2.78,2.78,0,0,0,2.06-2.28H22.74a2.78,2.78,0,0,0,2.33,2.33v4.76a2.78,2.78,0,0,0-2.33,2.33H4.58A2.78,2.78,0,0,0,2.52,19Z" transform="translate(0)"/><path class="cls-1" d="M13.8,20.42a3.88,3.88,0,1,0-3.88-3.88A3.88,3.88,0,0,0,13.8,20.42Zm0-7.05a3.17,3.17,0,1,1-3.17,3.17A3.18,3.18,0,0,1,13.8,13.37Z" transform="translate(0)"/></svg>