<svg xmlns="http://www.w3.org/2000/svg" viewBox="0 0 13.37 10.15"><defs><style>.cls-1{fill:#baa591;}</style></defs><g id="Слой_2" data-name="Слой 2"><g id="Isolation_Mode" data-name="Isolation Mode"><path class="cls-1" d="M11.81,10.15H11a.79.79,0,0,1-.78-.8V8.83H3.57v.52a.79.79,0,0,1-.78.8H2a.79.79,0,0,1-.79-.8v-.6A1.79,1.79,0,0,1,0,7.05V5.73A1.76,1.76,0,0,1,1,4.15H.5L.2,3.82.1,3.37l.19-.52,1.39,0,.1.12c.31-1.26,1-3,2.19-3C5.62,0,9.39.05,9.51.05h0c.13,0,1.51.08,2.13,3l.1-.13,1.31-.05.17.52-.1.44-.28.34H12.5a1.77,1.77,0,0,1,.87,1.53V7.05a1.77,1.77,0,0,1-.77,1.47v.83a.79.79,0,0,1-.79.8M3.23,8.5H10.6v.85a.46.46,0,0,0,.44.47h.77a.46.46,0,0,0,.45-.47v-1l.08,0A1.48,1.48,0,0,0,13,7.05V5.73A1.41,1.41,0,0,0,11.7,4.29l-.44,0,.51-.39h.91l.13-.15.06-.28-.07-.21-.88,0-.48.63-.07-.38A4.92,4.92,0,0,0,10.22.75,1.13,1.13,0,0,0,9.51.38h0S5.64.32,4,.32C2.83.32,2.24,2.49,2,3.42L2,3.76l-.45-.55-1,0-.07.21.07.27.14.16h1L1.92,4l0,.27H1.74A1.43,1.43,0,0,0,.34,5.73V7.05a1.44,1.44,0,0,0,1.1,1.42l.13,0v.85A.46.46,0,0,0,2,9.82h.77a.46.46,0,0,0,.44-.47Zm5.4-.1H5.2A.69.69,0,0,1,5.2,7H8.63a.69.69,0,1,1,0,1.38M5.2,7.35a.37.37,0,0,0,0,.73H8.63a.37.37,0,0,0,0-.73ZM2.09,6.77a1,1,0,1,1,0-1.91,1,1,0,0,1,1,.95,1,1,0,0,1-1,1m0-1.59a.66.66,0,0,0-.67.63.65.65,0,0,0,.67.63.63.63,0,1,0,0-1.26m9.18,1.43a1,1,0,0,1-1-1,1,1,0,0,1,2,0,1,1,0,0,1-1,1m0-1.59a.66.66,0,0,0-.67.63.68.68,0,0,0,1.35,0A.66.66,0,0,0,11.27,5m-.09-.89L2.39,4.07l0-.17C2.73.68,4.4.58,4.47.58h0S7,.63,8.84.63c.83,0,1.5.59,1.93,1.69A6.75,6.75,0,0,1,11.16,4ZM2.77,3.75l8,0c-.1-.65-.53-2.84-2-2.84C7.06,1,4.63.91,4.48.9a1.34,1.34,0,0,0-.74.4,3.9,3.9,0,0,0-1,2.45"/><rect class="cls-1" x="3.45" y="6.08" width="6.51" height="0.32"/><rect class="cls-1" x="3.5" y="5.65" width="6.36" height="0.21"/></g></g></svg>