<svg xmlns="http://www.w3.org/2000/svg" viewBox="0 0 104.65 36.54"><defs><style>.cls-1{fill:none;stroke:#baa591;stroke-miterlimit:10;stroke-width:0.9px;}.cls-2{fill:#baa591;}</style></defs><g id="Слой_2" data-name="Слой 2"><g id="Isolation_Mode" data-name="Isolation Mode"><path class="cls-1" d="M63.82,35.47h0a1.81,1.81,0,0,1-.63-.1c-.75-.27-.86-1.18-1.08-3a24.63,24.63,0,0,0-1.27-5.79c-.74-1.86-1.83-3-3-3s-2.12,1.12-2.59,2.87a46.17,46.17,0,0,0-1,5c-.41,2.5-.6,3.64-1.4,3.93a3.28,3.28,0,0,1-3.12-1.1c-.91-1-2-2.82-1.88-6.37C48,25,47.58,23,46.64,21.64a22.91,22.91,0,0,1-3.38-9c0-.32,0-.67,0-1,0-5.57,4.24-10.1,9.45-10.1a5.88,5.88,0,0,1,3.86,1.34,2.46,2.46,0,0,0,1.53.68,2.27,2.27,0,0,0,1.44-.65,5.85,5.85,0,0,1,4-1.37c5.2,0,9.44,4.53,9.44,10.1,0,.34,0,.69,0,1a22.76,22.76,0,0,1-3.38,9C68.52,23,68.11,25,68.19,27.9c.11,3.55-1,5.42-1.88,6.37A3.66,3.66,0,0,1,63.82,35.47Z"/><path class="cls-1" d="M103.81,28.59a5,5,0,0,0-4.57-3.12,5.08,5.08,0,0,1-2.61-.72A7.69,7.69,0,0,1,95,23.38a11.21,11.21,0,0,1-1.66-2.6.36.36,0,0,0-.47-.18l-.23.1-10.84-19a2.1,2.1,0,0,0-1.13,2.78L87.7,20.66l2.42.29.28.66a.37.37,0,0,0-.2.49l4.25,10.25a5.11,5.11,0,0,0,6.5,2.89A5,5,0,0,0,103.81,28.59Zm-15-10.31a.82.82,0,1,1,.44-1.07A.82.82,0,0,1,88.8,18.28Zm11.46,14.93a2.91,2.91,0,1,1,1.58-3.81A2.91,2.91,0,0,1,100.26,33.21Z"/><path class="cls-1" d="M95.21,1.73h0L88.77,13,91,16.81l5.37-12.3A2.1,2.1,0,0,0,95.21,1.73Z"/><path class="cls-1" d="M87.27,20.9l-1.31-3-1.61,2.8-.23-.09a.36.36,0,0,0-.47.19A11.4,11.4,0,0,1,82,23.38a7.75,7.75,0,0,1-1.66,1.37,5.17,5.17,0,0,1-2.61.72A5,5,0,0,0,76,35.23a5.1,5.1,0,0,0,6.5-2.88L86.77,22.1a.39.39,0,0,0-.2-.49l.27-.65ZM80.5,31.63a2.91,2.91,0,1,1-1.58-3.8A2.91,2.91,0,0,1,80.5,31.63Z"/><path class="cls-2" d="M1.37,1.72C-1,4.1-.21,8.75,3.14,12.1c2.45,2.45,5.57,3.53,8,3l.35,0a3.89,3.89,0,0,1,2.89,1.13L33.57,36a1.47,1.47,0,1,0,2.08-2.09L15.91,14.74a4,4,0,0,1-1.13-2.89c0-.11,0-.23,0-.34.51-2.44-.57-5.57-3-8C8.39.14,3.75-.65,1.37,1.72Z"/><path class="cls-2" d="M40.12,4.2a.46.46,0,0,0-.61,0l-6.33,6.18a.4.4,0,0,1-.58,0,.42.42,0,0,1,0-.58l6.19-6.32a.47.47,0,0,0,0-.62.45.45,0,0,0-.67,0L31.81,9.06a.41.41,0,0,1-.58,0,.43.43,0,0,1,0-.59l6.19-6.32a.47.47,0,0,0,0-.62.45.45,0,0,0-.66,0L30.45,7.69a.42.42,0,0,1-.59-.59L36,.78a.46.46,0,0,0,0-.62.45.45,0,0,0-.66,0l-5.49,5.5-.52.51L26.05,9.5a3.36,3.36,0,0,0-1,2.43,4,4,0,0,1-1.13,2.9l-2.87,2.78,1.63,1.58,2.76-2.85a4,4,0,0,1,2.9-1.13,3.35,3.35,0,0,0,2.43-1l3.35-3.36.52-.52,5.5-5.5A.45.45,0,0,0,40.12,4.2Z"/><path class="cls-2" d="M17.24,21.33,4.2,34a1.48,1.48,0,1,0,2.09,2.09l12.64-13Z"/></g></g></svg>