<svg id="Isolation_Mode" data-name="Isolation Mode" xmlns="http://www.w3.org/2000/svg" viewBox="0 0 69.34 42.09"><defs><style>.cls-1{fill:#baa591;}</style></defs><path class="cls-1" d="M68,13.94h1.38V6.17H68a5.1,5.1,0,0,1-5.28-4.89V0h-56V1.28A5.1,5.1,0,0,1,1.38,6.17H0v7.77H1.38a1.84,1.84,0,1,1,0,3.67H0v6.87H1.38a1.84,1.84,0,1,1,0,3.67H0v7.77H1.38a5.1,5.1,0,0,1,5.28,4.89v1.28h56V40.81A5.1,5.1,0,0,1,68,35.92h1.38V28.15H68a1.84,1.84,0,1,1,0-3.67h1.38V17.61H68a1.84,1.84,0,1,1,0-3.67m-1.38,6v2.13a4.31,4.31,0,0,0,0,8.41v2.95A7.78,7.78,0,0,0,60,39.54H9.3a7.78,7.78,0,0,0-6.54-6.07V30.52a4.31,4.31,0,0,0,0-8.41V20a4.46,4.46,0,0,0,3.36-4.2,4.47,4.47,0,0,0-3.36-4.21v-3A7.78,7.78,0,0,0,9.3,2.56H60a7.78,7.78,0,0,0,6.54,6.06v3a4.46,4.46,0,0,0-3.36,4.21A4.45,4.45,0,0,0,66.58,20"/><rect class="cls-1" x="27.38" y="30.55" width="5.79" height="3.09"/><polygon class="cls-1" points="18.8 8.45 13.02 8.45 13.03 11.53 18.8 11.53 18.8 8.45"/><rect class="cls-1" x="15.81" y="30.55" width="5.78" height="3.09"/><path class="cls-1" d="M9.37,30.25a1.93,1.93,0,0,0,0,.24l3.32-.24V25H9.37Z"/><rect class="cls-1" x="47.72" y="8.45" width="5.78" height="3.08"/><rect class="cls-1" x="36.15" y="8.45" width="5.78" height="3.08"/><rect class="cls-1" x="24.59" y="8.45" width="5.78" height="3.08"/><rect class="cls-1" x="9.37" y="14.3" width="3.33" height="5.36"/><rect class="cls-1" x="56.64" y="22.42" width="3.33" height="5.36"/><path class="cls-1" d="M56.64,11.84v5.22H60V11.84c0-.09,0-.17,0-.26Z"/><polygon class="cls-1" points="50.52 30.56 50.52 33.65 56.33 33.65 56.3 30.56 50.52 30.56"/><rect class="cls-1" x="38.95" y="30.55" width="5.78" height="3.09"/><path class="cls-1" d="M22.29,17.92H17.94a.87.87,0,0,0-.51.13.48.48,0,0,0-.18.39.46.46,0,0,0,.17.38.81.81,0,0,0,.52.14h1.49v4.55a.78.78,0,0,0,.19.58.66.66,0,0,0,.5.19.66.66,0,0,0,.49-.19.81.81,0,0,0,.19-.58V19h1.49a.83.83,0,0,0,.52-.14.46.46,0,0,0,.18-.38.48.48,0,0,0-.18-.38.83.83,0,0,0-.52-.14"/><path class="cls-1" d="M24.53,17.81A.7.7,0,0,0,24,18a.82.82,0,0,0-.19.58v4.93a.86.86,0,0,0,.19.58.67.67,0,0,0,.49.19.66.66,0,0,0,.5-.19.8.8,0,0,0,.19-.58V18.58A.78.78,0,0,0,25,18a.7.7,0,0,0-.5-.19"/><path class="cls-1" d="M28,23.9a3.5,3.5,0,0,0,.79.29,5.62,5.62,0,0,0,1,.09A3.3,3.3,0,0,0,31,24.07a2.73,2.73,0,0,0,.88-.54,2.32,2.32,0,0,0,.49-.69,1.47,1.47,0,0,0,.16-.64.48.48,0,0,0-.17-.39.6.6,0,0,0-.42-.16.5.5,0,0,0-.41.15,1.06,1.06,0,0,0-.22.41,1.66,1.66,0,0,1-.62.79,1.76,1.76,0,0,1-1,.27,1.8,1.8,0,0,1-.94-.24,1.59,1.59,0,0,1-.63-.72,2.85,2.85,0,0,1-.22-1.21,2.56,2.56,0,0,1,.5-1.69,1.64,1.64,0,0,1,1.34-.59,1.57,1.57,0,0,1,.89.23,2,2,0,0,1,.63.69,1.47,1.47,0,0,0,.29.4.58.58,0,0,0,.4.12.56.56,0,0,0,.4-.17.55.55,0,0,0,.17-.38,1.38,1.38,0,0,0-.35-.84,2.59,2.59,0,0,0-1-.76,3.37,3.37,0,0,0-1.46-.3,3.71,3.71,0,0,0-1.26.22,3,3,0,0,0-1,.65,2.77,2.77,0,0,0-.68,1,3.61,3.61,0,0,0-.24,1.35,4.09,4.09,0,0,0,.1.88,3.28,3.28,0,0,0,.28.78,3.39,3.39,0,0,0,.46.66,2.41,2.41,0,0,0,.66.53"/><path class="cls-1" d="M39.49,23.76a.8.8,0,0,0-.1-.38,3.54,3.54,0,0,0-.3-.47l-1.92-2.54,1.67-1.46a.75.75,0,0,0,.3-.55A.51.51,0,0,0,39,18a.72.72,0,0,0-.47-.16.68.68,0,0,0-.37.09,2.91,2.91,0,0,0-.33.28l-2.68,2.59V18.58a.73.73,0,0,0-.2-.58.68.68,0,0,0-.49-.19.69.69,0,0,0-.5.19.82.82,0,0,0-.18.58v4.65c0,.2,0,.35,0,.45a1.23,1.23,0,0,0,.08.29.93.93,0,0,0,.25.23.81.81,0,0,0,.34.08.64.64,0,0,0,.49-.19.77.77,0,0,0,.2-.58V22.22l1.12-1,1.62,2.3a3.85,3.85,0,0,0,.22.35,1.07,1.07,0,0,0,.3.3.93.93,0,0,0,.47.11.68.68,0,0,0,.48-.16.46.46,0,0,0,.17-.36"/><path class="cls-1" d="M45.27,23.16H42.08V21.38h2.84a.69.69,0,0,0,.47-.13.43.43,0,0,0,.15-.34.44.44,0,0,0-.15-.35.71.71,0,0,0-.47-.13H42.08V18.89h3.08a.75.75,0,0,0,.49-.13.45.45,0,0,0,.16-.36.46.46,0,0,0-.16-.35.75.75,0,0,0-.49-.13H41.55a1.07,1.07,0,0,0-.47.08.49.49,0,0,0-.28.25.93.93,0,0,0-.09.44V23.4a.82.82,0,0,0,.19.59,1,1,0,0,0,.65.18h3.72a.81.81,0,0,0,.48-.13.48.48,0,0,0,.17-.36.49.49,0,0,0-.17-.38.81.81,0,0,0-.48-.14"/><path class="cls-1" d="M51.91,18.82a.49.49,0,0,0,0-.76.83.83,0,0,0-.52-.15H47a.89.89,0,0,0-.52.15.47.47,0,0,0-.17.38.49.49,0,0,0,.17.38A.79.79,0,0,0,47,19h1.5v4.55a.74.74,0,0,0,.19.57.61.61,0,0,0,.49.2.66.66,0,0,0,.49-.19.77.77,0,0,0,.19-.58V19h1.49a.77.77,0,0,0,.52-.14"/></svg>