<svg id="Isolation_Mode" data-name="Isolation Mode" xmlns="http://www.w3.org/2000/svg" viewBox="0 0 22.09 19.46"><defs><style>.cls-1{fill:#baa591;}</style></defs><path class="cls-1" d="M17.37,15.41H0V0H17.37ZM.58,14.83h16.2V.58H.58Z"/><path class="cls-1" d="M22.09,18.68s-2.23-3.63-4.9-5-6-1.67-7.26-2-2.54.41-1.68,1,2.81.86,2.91,1.4-1.55,1-3.59,1-5.08-1.7-6.48-.75,4.67,2.73,7.34,3.18a35.51,35.51,0,0,0,7,0c1.31,0,2.27,1.91,2.27,1.91s3.35-.19,4.4-.78"/><rect class="cls-1" x="6.79" y="0.29" width="3.79" height="5"/></svg>