<svg id="Layer_1" data-name="Layer 1" xmlns="http://www.w3.org/2000/svg" viewBox="0 0 164.84 228"><defs><style>.cls-1{fill:#baa591;}</style></defs><g id="NewGroupe6"><g id="NewGroup0-5"><path class="cls-1" d="M105.28,6.68,104.12,10a8.34,8.34,0,0,1-7.88,5.62H68.59A8.32,8.32,0,0,1,60.72,10L59.55,6.68Zm-74.95,0H52.49l1.91,5.55A15,15,0,0,0,68.59,22.34H96.24a15,15,0,0,0,14.19-10.11l1.92-5.55h23.94a10,10,0,0,1,10,10V81.12a3.34,3.34,0,0,0,6.68,0V16.7A16.72,16.72,0,0,0,136.29,0h-106a3.34,3.34,0,1,0,0,6.68Z"/><path class="cls-1" d="M90.88,208.92a1.34,1.34,0,0,1-1.34,1.34H75.3A1.34,1.34,0,0,1,74,208.92v-2.66a1.34,1.34,0,0,1,1.34-1.34H89.54a1.34,1.34,0,0,1,1.34,1.34v2.66Zm-1.34-10.68H75.3a8,8,0,0,0-8,8v2.66a8,8,0,0,0,8,8H89.54a8,8,0,0,0,8-8v-2.66a8,8,0,0,0-8-8Z"/><path class="cls-1" d="M6.68,103.6A33.3,33.3,0,0,1,40,70.33H71.79a.22.22,0,0,1,.23.22v47.67a.22.22,0,0,1-.23.22H39.67a6.4,6.4,0,0,0-5.32,10L40,136.86H40A33.3,33.3,0,0,1,6.68,103.6Zm40.26,37a5.62,5.62,0,0,0-.28-5.77l-6.47-9.68h31.6a6.91,6.91,0,0,0,6.91-6.9V70.55a6.91,6.91,0,0,0-6.91-6.9H40a39.75,39.75,0,0,0-21.43,6.24V16.7a9.92,9.92,0,0,1,2.12-6.16,3.34,3.34,0,0,0-5.28-4.1A16.57,16.57,0,0,0,11.85,16.7V75.23A39.92,39.92,0,0,0,40,143.54c.8-.15,4.95.85,7-3Z"/><path class="cls-1" d="M23,93h-.68a3.34,3.34,0,0,0,0,6.68H23A3.34,3.34,0,0,0,23,93Z"/><path class="cls-1" d="M39,99.7h.68a3.34,3.34,0,1,0,0-6.68H39a3.34,3.34,0,1,0,0,6.68Z"/><path class="cls-1" d="M55.72,99.7h.68a3.34,3.34,0,0,0,0-6.68h-.68a3.34,3.34,0,1,0,0,6.68Z"/><path class="cls-1" d="M124.83,157.67l5.66-8.46a6.4,6.4,0,0,0-5.32-10H93a.22.22,0,0,1-.22-.22V91.36a.22.22,0,0,1,.22-.22h31.85a33.27,33.27,0,1,1,0,66.53ZM28.54,221.32a10,10,0,0,1-10-10V193.86H146.31V211.3a10,10,0,0,1-10,10Zm136.3-96.92a40,40,0,0,0-39.95-39.94H93a6.91,6.91,0,0,0-6.9,6.9V139a6.91,6.91,0,0,0,6.9,6.9h31.6l-6.46,9.68a5.59,5.59,0,0,0-.29,5.77c2,3.81,6.26,2.83,7,3a39.72,39.72,0,0,0,21.42-6.24v29.07H18.52V145.69a3.34,3.34,0,0,0-6.68,0V211.3A16.72,16.72,0,0,0,28.54,228H136.29A16.72,16.72,0,0,0,153,211.3V152.77a39.86,39.86,0,0,0,11.85-28.37Z"/><path class="cls-1" d="M142.54,113.83h-.68a3.34,3.34,0,1,0,0,6.68h.68a3.34,3.34,0,0,0,0-6.68Z"/><path class="cls-1" d="M125.83,113.83h-.68a3.34,3.34,0,0,0,0,6.68h.68a3.34,3.34,0,0,0,0-6.68Z"/><path class="cls-1" d="M109.11,113.83h-.67a3.34,3.34,0,0,0,0,6.68h.67a3.34,3.34,0,0,0,0-6.68Z"/></g></g></svg>