<svg id="Layer_1" data-name="Layer 1" xmlns="http://www.w3.org/2000/svg" viewBox="0 0 225.86 228"><defs><style>.cls-1{fill:#baa591;}</style></defs><g id="NewGroupe0"><g id="NewGroup0-11"><path class="cls-1" d="M59.94,60.41a3.34,3.34,0,1,0,0,6.68h46.32a3.34,3.34,0,0,0,0-6.68Z"/><path class="cls-1" d="M153.1,110.19a9.76,9.76,0,1,1,19.52,0V115a9.76,9.76,0,1,1-19.52,0v-4.76Zm9.76,21.2A16.46,16.46,0,0,0,179.3,115v-4.76a16.44,16.44,0,1,0-32.88,0V115a16.46,16.46,0,0,0,16.44,16.44Z"/><path class="cls-1" d="M147.46,137.27c.67,0,.91.28,1.82.81l8.47,14A6,6,0,0,0,168,152l8.47-14c.87-.51,1.33-1,2.24-.76a1.91,1.91,0,0,1,1.22.85h0c4.59,7.24,2.66,13.49,3.12,20.92a2.19,2.19,0,0,1-2.19,2.19H144.89a2.19,2.19,0,0,1-2.18-2.19V148.94a20.08,20.08,0,0,1,3.12-10.77,1.93,1.93,0,0,1,1.63-.9Zm19.07,4.26-3.67,6-3.67-6a26.53,26.53,0,0,0,7.34,0Zm-26.34-6.94A26.75,26.75,0,0,0,136,148.94v10.15a8.87,8.87,0,0,0,8.86,8.86h35.93a8.87,8.87,0,0,0,8.87-8.86V148.94a26.75,26.75,0,0,0-4.16-14.35h0a8.57,8.57,0,0,0-11.85-2.65,20.08,20.08,0,0,1-21.64,0,8.57,8.57,0,0,0-11.85,2.65Z"/><path class="cls-1" d="M45.26,51.14H11.4L51.14,11.4V45.26a5.89,5.89,0,0,1-5.88,5.88Zm174.4,57.76a43.65,43.65,0,0,1-24.33-26.48,10.2,10.2,0,0,0-8.08-7,157.5,157.5,0,0,0-48.78,0,10.2,10.2,0,0,0-8.08,7,43.43,43.43,0,0,1-7.15,13.31H26.83a3.34,3.34,0,0,0,0,6.68h89.89a43.64,43.64,0,0,1-10.66,6.49,10.1,10.1,0,0,0-6.14,10.4c.13,1.26.29,2.52.47,3.77H26.83a3.34,3.34,0,1,0,0,6.68h74.75a102.2,102.2,0,0,0,6.78,20.66H26.83a3.34,3.34,0,1,0,0,6.68h84.83a102.76,102.76,0,0,0,7.2,11.5,100.94,100.94,0,0,0,7.43,9.16H26.83a3.34,3.34,0,1,0,0,6.68H133a89.22,89.22,0,0,0,26,16.45l.49.19v13.08a7.18,7.18,0,0,1-7.17,7.17H13.86a7.18,7.18,0,0,1-7.18-7.17V57.82H45.26A12.58,12.58,0,0,0,57.82,45.26V6.68h94.53a7.18,7.18,0,0,1,7.17,7.17V63.54a3.34,3.34,0,1,0,6.68,0V13.85A13.86,13.86,0,0,0,152.35,0H54.5A2.92,2.92,0,0,0,54,0H53.9l-.15,0h0l-.07,0h0l-.15,0h0l-.22.07h0A3.48,3.48,0,0,0,52.11,1L1,52.11a3.34,3.34,0,0,0-1,2.47V214.15A13.88,13.88,0,0,0,13.86,228H152.35a13.87,13.87,0,0,0,13.85-13.85V201.07l.49-.19c19.12-7.8,35.65-22.82,46.55-42.3a3.34,3.34,0,0,0-5.83-3.27c-10.16,18.17-25.52,32.16-43.25,39.39a3.47,3.47,0,0,1-2.61,0,82.93,82.93,0,0,1-24.73-15.84,3.56,3.56,0,0,0-.45-.42,93.77,93.77,0,0,1-12.1-13.76,97.46,97.46,0,0,1-7.49-12.19,4.06,4.06,0,0,0-.26-.51,95.79,95.79,0,0,1-8.88-26c0-.13,0-.27-.07-.4-.43-2.32-.76-4.65-1-7a3.45,3.45,0,0,1,2.12-3.55,50.39,50.39,0,0,0,28.06-30.54,3.53,3.53,0,0,1,2.76-2.45,150.76,150.76,0,0,1,46.71,0A3.53,3.53,0,0,1,189,84.51,50.37,50.37,0,0,0,217,115.05a3.45,3.45,0,0,1,2.12,3.55A95,95,0,0,1,213,143.65a3.34,3.34,0,0,0,6.21,2.47,101.34,101.34,0,0,0,6.64-26.82,10.12,10.12,0,0,0-6.14-10.4Z"/></g></g></svg>