<svg xmlns="http://www.w3.org/2000/svg" viewBox="0 0 19.21 22.77"><defs><style>.cls-1{fill:#dfd2be;fill-rule:evenodd;}</style></defs><g id="Слой_2" data-name="Слой 2"><g id="Isolation_Mode" data-name="Isolation Mode"><path class="cls-1" d="M1.3,16.18a8.36,8.36,0,0,0,4.4,4.05,12.37,12.37,0,0,1,3.76,2.54,8.58,8.58,0,0,1,3.44-2.71,8.39,8.39,0,0,0,4.48-4.36c.52.37,1.31.87,1.31.87.32-2.94.52-5.11.52-5.11-2.29,1.44-4.38,2.86-4.38,2.86h0l1.57.73A3.75,3.75,0,0,1,13,17.45c-2,.15-2.62-2-2.62-2l-.08-6.67,3.11-.86.09-1.43-3.23.11,0-1.15A2.82,2.82,0,0,0,12.14,2.7a2.86,2.86,0,0,0-5.71.18A2.8,2.8,0,0,0,8.26,5.4V6.63l-3.43.1L4.89,8l3.34.77-.06,6.76C8,18.37,5.08,17.67,5.08,17.67a3.35,3.35,0,0,1-2.74-2.09C3,15,3.53,14.37,3.53,14.37A21.41,21.41,0,0,0,0,12.08a40.11,40.11,0,0,0,.09,5A8.67,8.67,0,0,0,1.3,16.18ZM15.64,14.3l3-2.26-1.95,2.64Zm-4.89,2.77a3.79,3.79,0,0,0,5.84-1.62l.31.33c-3,4.42-6.15,1.29-6.15,1.29ZM11.88,2.91h0s.08.73-1,1.53c.31-.27,1.83-1.75-.52-4A2.51,2.51,0,0,1,11.88,2.91ZM9.23,1.06a1.72,1.72,0,0,1,1,3.18V3.6a1.34,1.34,0,0,0-2,.06h0v.55a1.69,1.69,0,0,1-.76-1.36A1.75,1.75,0,0,1,9.23,1.06ZM9,6.65H8.51l0-1.24.45,0ZM6.72,3h0A2.23,2.23,0,0,1,8.07.58a2.78,2.78,0,0,0,.29,4.49A2.34,2.34,0,0,1,6.72,3ZM5.35,7.46l3.71.44L9,15.64l-.51.77.06-8Zm2.77,9.81S4.92,20.78,2,16.22H2l.3-.22A3.72,3.72,0,0,0,8.12,17.27Zm-4.9-2.82-.85.71L.25,12.44Z"/></g></g></svg>