<svg id="Layer_1" data-name="Layer 1" xmlns="http://www.w3.org/2000/svg" viewBox="0 0 228 197.62"><defs><style>.cls-1{fill:#baa591;}</style></defs><g id="NewGroupe3"><g id="NewGroup0-8"><path class="cls-1" d="M221.12,46.65l-1.61,5.63-.36,1.26a15.91,15.91,0,0,1-8.35-15l6.89,2a5,5,0,0,1,3.43,6.19ZM191.64,149.46a5.29,5.29,0,0,1-.54,1.24h0l0,.07,0,0v0a5,5,0,0,1-5.55,2l-6.9-2a15.9,15.9,0,0,1,15.06-8.34l-2,6.89ZM173.52,67c7.84,2.24,11.65,13,8.49,24.06-2.66,9.26-9.72,16-16.56,16.29V67.77a11.63,11.63,0,0,1,8.07-.76Zm-14.75,63.9a5.9,5.9,0,0,1-4,5.58,43.94,43.94,0,0,0-5.27-9.06,17.64,17.64,0,0,1,9.28-4.9v8.38Zm-44.28,60a37.15,37.15,0,1,1,37.15-37.15,37.19,37.19,0,0,1-37.15,37.15Zm-45.26-60v-8.37A18,18,0,0,1,79.06,128a43.68,43.68,0,0,0-4.94,8.71,5.89,5.89,0,0,1-4.89-5.8Zm-6.68-23.55c-6.85-.32-13.9-7-16.56-16.29-3.16-11,.65-21.82,8.49-24.06a11.63,11.63,0,0,1,8.07.76v39.59ZM8.85,53.54l-.31-1.1L6.88,46.65a5,5,0,0,1,3.43-6.19l6.89-2a15.91,15.91,0,0,1-8.35,15Zm40.59,97.37c-7.08,2-7.07,2.15-8.18,2.17A5,5,0,0,1,37,150.83h0a.43.43,0,0,1,0-.07l0,0,0,0a5.77,5.77,0,0,1-.53-1.22l-2-6.89a15.91,15.91,0,0,1,15,8.34ZM69.23,12.57a5.91,5.91,0,0,1,5.89-5.89h8.37A18,18,0,0,1,69.23,20.94V12.57Zm89.54,8.37h0A18,18,0,0,1,144.51,6.68h8.37a5.91,5.91,0,0,1,5.89,5.89v8.37ZM219.53,34,165.45,18.53v-6A12.59,12.59,0,0,0,152.88,0h-32.2a3.34,3.34,0,0,0,0,6.68h17.07a24.63,24.63,0,0,0,21,21v88.07a24.31,24.31,0,0,0-13.71,6.64,43.76,43.76,0,0,0-61.64.49,24.62,24.62,0,0,0-14.19-7.12V27.7a24.63,24.63,0,0,0,21-21h17.07a3.34,3.34,0,1,0,0-6.68H75.12A12.59,12.59,0,0,0,62.55,12.57v6L8.47,34a11.68,11.68,0,0,0-8,14.45l1.6,5.58,1.39,4.86h0l23.46,81.8,0,.12c3.07,10.47,3,10.86,3.82,12.53a11.67,11.67,0,0,0,13.63,5.92l10.44-3,.08,0,7.09-2a3.34,3.34,0,0,0-1.84-6.42L56,149a22.62,22.62,0,0,0-23.45-13l-21.78-76a22.59,22.59,0,0,0,13-23.44L62.55,25.48V60.67a17.81,17.81,0,0,0-9.92-.08C41.26,63.85,35.4,78.35,39.57,92.91c3.54,12.31,13.14,20.86,23,21.14v16.86A12.58,12.58,0,0,0,72,143.08a43.84,43.84,0,1,0,84.94-.27,12.58,12.58,0,0,0,8.53-11.9V114.05c9.84-.28,19.44-8.83,23-21.14,4.17-14.56-1.69-29.06-13.06-32.32a17.81,17.81,0,0,0-9.92.08V25.48l38.83,11.13a22.6,22.6,0,0,0,13,23.45l-21.78,76A22.6,22.6,0,0,0,172,149l-4.44-1.27a3.34,3.34,0,0,0-1.84,6.42L178,157.71c3.78.69,8.55,3.87,14.47.59a11.65,11.65,0,0,0,4.71-4.83v0a11.66,11.66,0,0,0,.84-2.13l3-10.44a.56.56,0,0,0,0-.12l23.45-81.8h0l1.43-5,1.56-5.44a11.68,11.68,0,0,0-8-14.45Z"/><path class="cls-1" d="M114,48.38c9.22,0,16.71,10.48,16.71,23.36S123.22,95.09,114,95.09,97.29,84.62,97.29,71.74,104.78,48.38,114,48.38ZM90.61,71.74c0,16.56,10.49,30,23.39,30s23.39-13.47,23.39-30-10.49-30-23.39-30-23.39,13.48-23.39,30Z"/><path class="cls-1" d="M118.61,150.45h-8.25a4.13,4.13,0,0,1,0-8.26h13.09a3.34,3.34,0,1,0,0-6.68h-4.92V132.3a3.34,3.34,0,0,0-6.68,0v3.21h-1.49a10.81,10.81,0,0,0,0,21.62h8.25a4.13,4.13,0,1,1,0,8.25H105.53a3.34,3.34,0,0,0,0,6.68h6.32v3.22a3.34,3.34,0,0,0,6.68,0v-3.22h.08a10.81,10.81,0,1,0,0-21.61Z"/></g></g></svg>