<svg id="Слой_1" data-name="Слой 1" xmlns="http://www.w3.org/2000/svg" viewBox="0 0 35.46 51.73"><defs><style>.cls-1{fill:#15497e;}</style></defs><path class="cls-1" d="M13.37,6.52h0a.75.75,0,0,0,.24.08.62.62,0,0,0,.1.22h0s0,0,0,.08a.47.47,0,0,0,0,.17.66.66,0,0,0-.26.11.55.55,0,0,0-.25-.07,1,1,0,0,0-.08-.18l0,0a.37.37,0,0,0,.05-.11.55.55,0,0,0,.05-.17.66.66,0,0,0,.19-.09l0,0M13.3,2s-.24,2.57-.36,3.92l-1-.36.51,1a19,19,0,0,1-2,.43s1.47.3,2,.36l-.34,1,1-.5c.23,1.71.45,5,.45,5l.27-5,1.05.35-.49-.94,2.1-.68-2.14-.1.35-1-.94.49C13.57,4.55,13.3,2,13.3,2" transform="translate(-7.54 -2.02)"/><path class="cls-1" d="M10.85,49.25c-.3-.26-.37-.25-.57.08s-.37.34-.58.11a.6.6,0,0,1,0-.16l.19,0a2.07,2.07,0,0,0-1-.8,11.5,11.5,0,0,0-1.27-.27c.43-.52,1.46-.25,2,.57l.7-.42c-.34-.2-.55-.68-1-.34-.22-.28-.17-.46.15-.48.48,0,1,0,1.53,0-.5-.35-1.06-.11-1.54-.23l0-.09A4.74,4.74,0,0,1,10,47c.31,0,.62,0,.92,0a.65.65,0,0,1,.6.3.46.46,0,0,0,.32.15h1.88c.29,0,.59,0,.89,0a.83.83,0,0,1,.69.32.32.32,0,0,0,.29.09,7.75,7.75,0,0,0,.79-.33,1.58,1.58,0,0,1,1.82.13,2.26,2.26,0,0,0,.68.23c.1.45-.6.19-.6.57a.49.49,0,0,0,.76-.09c.15-.19.25-.4.39-.59a3.27,3.27,0,0,1,.36-.32c0,.15-.05.21-.07.29l.43.06a1.2,1.2,0,0,0-.47-1.19l.87.44.09-.1c-.08-.25-.16-.51-.25-.77-.17-.46-.35-.93-.53-1.39a.7.7,0,0,0-.15-.23,12.49,12.49,0,0,1-3.59-6.48,3.27,3.27,0,0,0-1.3-2c-.59-.44-1.2-.84-1.79-1.27a3,3,0,0,1-1.41-2.89A4.24,4.24,0,0,1,12.34,30c.49-.73,1-1.43,1.55-2.14l.24-.34a1.75,1.75,0,0,0,.44-1.41,5.8,5.8,0,0,1,.22-1.68,2.17,2.17,0,0,0,0-1.4l1.35-.38a6.94,6.94,0,0,0-.73-1c-.52-.49-1.1-.93-1.65-1.39a2.75,2.75,0,0,1-1.07-1.72A3.05,3.05,0,0,1,12.93,17a.74.74,0,0,1,.29-.29,5.75,5.75,0,0,1,4.16-1.19,2.78,2.78,0,0,0-.14-.73c-.22-.45-.5-.88-.76-1.31a2.25,2.25,0,0,0-.24-.3c-.67-.76-.7-1,.13-1.57A21.2,21.2,0,0,0,20.63,7.2c.26-.33.49-.64.16-1.11-.3.09-.63.21-1,.3-.59.15-1.19.28-1.79.4-.21,0-.43,0-.45-.3A.37.37,0,0,1,18,6.07a1.53,1.53,0,0,0,.91-.52l.65-.62A2.39,2.39,0,0,1,20,4.62c1-.47,1.31-.27,1.46.75.06.37.08.74.14,1.11a2,2,0,0,0,.22.62.66.66,0,0,0,1.13.11,2.1,2.1,0,0,1,.6-.38c.17-.06.29,0,.33.23a1.58,1.58,0,0,0,1.79,1.48c.92,0,1.83-.23,2.74-.35l.16,0c.14.61.29,1.22.4,1.83,0,.29.19.29.39.2s.23-.12.35-.16.41,0,.42.28.06.59.11.89.12.74.18,1.15c.64-.09,1.31-.16,2-.29.23,0,.35,0,.41.21a1.45,1.45,0,0,1-.22,1.52.57.57,0,0,0-.08.32,10.9,10.9,0,0,0,.61,3c.15.49.31,1,.43,1.46a.34.34,0,0,0,.43.31,5.6,5.6,0,0,0,.54-.17,1.35,1.35,0,0,1,.4-.08.28.28,0,0,1,.18.14s-.05.14-.1.18a1.05,1.05,0,0,1-.26.13.38.38,0,0,0-.26.47c0,.23.12.27.32.16a5.06,5.06,0,0,1,.58-.25l.07.11c-.07.13-.14.27-.22.4a2.44,2.44,0,0,0-.23.33.59.59,0,0,0,.48.91l.47,0,.08.09s-.11,0-.14,0a1.79,1.79,0,0,0-.65,2.23c.17.51.41,1,.61,1.5a8.52,8.52,0,0,1,.33,1,.29.29,0,0,0,.34.27l.62,0c0,.32-.25.44-.47.55s-.5.29-.54.62.13.68.6.6l.69-.09c-.11.76-.74.51-1.14.7.25.88.48,1.76.77,2.64a3.58,3.58,0,0,0,.44.68.41.41,0,0,1,.09.3,1.65,1.65,0,0,0,0,1c.14.44.26.89.41,1.34.08.25.28.16.44.11s.29-.11.43-.16a.35.35,0,0,1,0,.08c-.09.11-.19.21-.27.32A6.63,6.63,0,0,0,38,36c-.21.38,0,.68.44.69.27,0,.55,0,.9,0-.48.62-.16,1.3-.33,1.91-.31,1.21-.66,2.42-1,3.62-.25.88-.5,1.76-.73,2.6,0-.14-.08-.33-.14-.54-.76.83-.9,2.19-.26,2.69l.21-.76h0c0,.12,0,.25,0,.37a.41.41,0,0,0,.28.51.37.37,0,0,1,.17.13.48.48,0,0,1,.06.29s-.13,0-.21.07l-.88.27.05.17c.23,0,.47-.07.7-.14s.67-.25,1-.37c.19-.08.29,0,.37.18a1.24,1.24,0,0,1,0,1.29,1.79,1.79,0,0,0,1.46-.41c.27.52.79.52,1.26.61.32.07.63.11.94.21A.89.89,0,0,1,43,50c-.45-.05-.88-.12-1.31-.15a2.5,2.5,0,0,0-.82,0,1.65,1.65,0,0,0-.59.33c-.11.08-.15.31-.24.33a3.47,3.47,0,0,1-.72,0,.83.83,0,0,1-.21-.06c0,.22,0,.22.82.92.28-.13.3-.39.34-.65.07-.43.24-.58.63-.55.08,0,.16.07.24.11s-.09.21-.17.26a3.15,3.15,0,0,1-.49.19h1.26c.13.15,0,.32-.18.42a6.41,6.41,0,0,1-.76.32l-.33.12c-.39.17-.41.26-.12.59-1.3.48-4,.64-4.79-.4a1.78,1.78,0,0,1,.61-.16,11.2,11.2,0,0,1,1.41.23,4.15,4.15,0,0,0,1.85.16l.19-.06c-.34-.49-.66-1-1-1.45-.15-.22-.11-.41.16-.44a4.09,4.09,0,0,1,.7,0c.34,0,.45-.05.52-.35-.52,0-1,0-1.55,0a15.7,15.7,0,0,0-3.71.83,1.26,1.26,0,0,1-1.16-.18,2.16,2.16,0,0,0-1.77-.52,4.12,4.12,0,0,0-1.69-1.67,1,1,0,0,0-1.24,0c-.73.42-1.53.72-2.3,1.09a.56.56,0,0,0-.23.25c-.1.26-.15.53-.26.79a.55.55,0,0,1-.69.37c-.19-1.64,0-3.35-.68-4.93l-.14,0c.07.56.14,1.12.2,1.68.1.89.22,1.78.28,2.68,0,.56,0,.58-.54.69a5.15,5.15,0,0,1-3-.4c.14-.24.28-.3.63-.22l1,.27a1.43,1.43,0,0,0,1.11,0,4.67,4.67,0,0,0-.78-1.58.41.41,0,0,0-.48-.13c-.3.09-.6.2-.91.28s-.46.07-.53-.26c-.46.12-.34.53-.43.85a.67.67,0,0,1-.28-.68c0-.22-.09-.3-.28-.27a2.4,2.4,0,0,0-.76.16,3.06,3.06,0,0,0-1.58,1.75c-.06.16-.08.3.11.41s.13.22-.05.29a.41.41,0,0,1-.21,0c-.48-.09-.84.22-1.26.34a.5.5,0,0,1-.34,0,6.15,6.15,0,0,0-2.64-.5,1,1,0,0,1,0,.1,1.93,1.93,0,0,0,.53.28c.46.07.93.1,1.39.14a2,2,0,0,1,1.38.54,2.94,2.94,0,0,1-.75.11c-.42-.06-.82-.2-1.24-.29a6,6,0,0,0-.63-.08c0,.37.19.53.5.55s.43,0,.64,0a1.43,1.43,0,0,1,.49.17c.06,0,.05.18.07.27a.7.7,0,0,1-.25,0,1.67,1.67,0,0,0-.39-.05c.1.27.31.27.52.26s.44-.06.66-.08a.92.92,0,0,1,.78.23.77.77,0,0,1-.79.43c-.43,0-.85-.12-1.28-.19s-.62-.18-.92.05c0,0-.26-.07-.27-.13a1,1,0,0,1,.06-.46c0-.07.15-.1.24-.15-.18-.33-.34-.59-.8-.52s-1.12.07-1.7.1c.35-.54,1.08-.77,1.32-1.44a1.5,1.5,0,0,0-1.35.71c-.29-.73.17-1.38,1.11-1.57a4.82,4.82,0,0,0-3,0,1,1,0,0,1,.71-.85m15.6-12.81c.41,1.31.86,2.6,1.19,3.91A1.32,1.32,0,0,0,29,41.46a5.6,5.6,0,0,1,3.15,1.23,6.94,6.94,0,0,0,.88.57,7.08,7.08,0,0,0,.73.28A12.93,12.93,0,0,1,33.2,36a23.86,23.86,0,0,0-6.75.44m-2.18-4.13.27,0a28.42,28.42,0,0,1,4.78-.44,19.14,19.14,0,0,1,5.11.63c.1,0,.23,0,.35-.08a.76.76,0,0,0-.11-.32,4.7,4.7,0,0,1-1.37-2.43,5.49,5.49,0,0,1,0-2.25c-3.13.67-6.11,1.8-9.3,2.11.1,1,.2,1.88.29,2.81m-7.69,0,.09,0c0-.16.07-.31.1-.47a23.37,23.37,0,0,0,.67-4.33,3.89,3.89,0,0,1,.27-1.08c.23-.78.43-1.58.59-2.37a6.62,6.62,0,0,1,.48-1.74c.18-.35.12-.48-.17-.62l-.11.19c-.61,1-1.18,1.94-1.84,2.86-.88,1.21-1.86,2.35-2.75,3.54-.43.57-.78,1.21-1.17,1.82l.11.05H13a2.26,2.26,0,0,1,1.87.61c.22.19.41.41.62.6l1,1m10.16-7.17.05.11c2.26.58,4.64.38,7,1a9.26,9.26,0,0,1-.84-3.22c-.06-1.09,0-2.17,0-3.29l-.19.16c-.42.43-.84.85-1.24,1.29-1.2,1.33-2.32,2.74-4.11,3.36-.24.09-.41.36-.61.55m6-5.79c-.3.06-.55.1-.79.17q-2.49.64-5,1.33a.51.51,0,0,0-.32.32,14.82,14.82,0,0,0-.35,1.71,3.54,3.54,0,0,0,.18,1.57l.28-.05a5.34,5.34,0,0,0,3-1.68c1-1.08,1.95-2.21,3-3.37m.67-.36a17.21,17.21,0,0,0-2.57-4.19c-.45.07-.81.14-1.17.18s-.66,0-1,0a3.27,3.27,0,0,0-.62.14c-.06,0-.15.15-.13.21.23,1,.48,1.9.72,2.86.05.2.2.27.4.29s.68.13,1,.18,1,.14,1.46.21c0-1-.74-1.8-.2-2.79.14,1,.27,1.86.4,2.78l1.66.12m-7.12,17,7.13-.57c.17-.32.34-.66.53-1s.29-.4.39-.62a.46.46,0,0,0,0-.38c0-.07-.22-.08-.34-.06l-5.51.94L26,34.69l.29,1.24M27,13.5c.26,0,.52,0,.61-.37-.73-.11-1.35-.77-2.19-.38.32.34.86.33,1,.85A3.86,3.86,0,0,0,22.87,15a5.62,5.62,0,0,1,3.94,1.79,4.88,4.88,0,0,1,2.3-3.08A2.66,2.66,0,0,1,27,13.5M21.36,24.84c-.06,0-.09.05-.1.07a15.41,15.41,0,0,1-2.15,3.7.56.56,0,0,0-.07.32c0,.62,0,1.25,0,1.87A12.47,12.47,0,0,0,19,34.25c.06.32.16.64.24,1h.08c.75-3.42,1.8-6.78,2.08-10.35M16,21.25c.11-.94.21-1.77.31-2.6l-.53-.06c-.62-.12-.72-.37-.44-.92.06-.11,0-.37,0-.41a4.28,4.28,0,0,0-1-.45.87.87,0,0,0-.66,0c-.89.78-1.09,1.64-.19,2.48s1.63,1.26,2.5,1.92m10.28,3.6a6.68,6.68,0,0,0-.17-.68A3,3,0,0,1,26,22.38a8.43,8.43,0,0,0,.18-.9c0-.32-.12-.46-.42-.43a2.52,2.52,0,0,0-2.07,3.54.51.51,0,0,0,.34.25c.72,0,1.44,0,2.21,0m-9.91-2.68a1.66,1.66,0,0,0,1.79-1.46c.11-.67.09-1.35.15-2,0-.25-.1-.31-.31-.33a1.31,1.31,0,0,0-1.62,1.29c-.07.83,0,1.67,0,2.53m18.57,4.51c-.14-1-.27-2-.41-3.05a5.82,5.82,0,0,0-.57-2.17,8.75,8.75,0,0,0-.58-.78l-.11.06a9.55,9.55,0,0,0,.27,4.08,3.46,3.46,0,0,0,1.4,1.86m-8,14.44c-.14-1-.22-1.94-.42-2.87a7.85,7.85,0,0,0-.64-1.57c-.05-.09-.25-.13-.38-.14s-.14.17-.15.27c0,.34,0,.69,0,1,0,.87,0,1.74,0,2.6a.36.36,0,0,0,.12.26,2.34,2.34,0,0,0,1.5.41m8.79-8.72a6,6,0,0,1-.86-5.26,1.53,1.53,0,0,0-1.25.27s0,.11-.06.17a5.66,5.66,0,0,0,1.08,4,2,2,0,0,0,1.09.78M36.29,44h.14L37.63,39l-1.48-.19c.05,1.75.09,3.51.14,5.27M14.71,30.87c-.22-.06-.36-.42-.61-.12a6.31,6.31,0,0,0-1.4,2.64.65.65,0,0,0,.15.64,2.47,2.47,0,0,0,1.19.68,6.46,6.46,0,0,1,.67-3.84m20.93-1.95c-.74,1.11-.56,3.23.81,3.72.65-.75.28-2.52-.81-3.72M25.27,10a1.12,1.12,0,0,0,.89.92,1.45,1.45,0,0,0,1.38-.27l-.43-.37.08-.11a.88.88,0,0,1,.22.1,1,1,0,0,0,1,.22c.09,0,.23-.15.23-.23,0-.43,0-.86-.05-1.38l-2,.78c.05.1.13.24.19.34ZM16.65,34.69a1,1,0,0,0-1-1.28,10.85,10.85,0,0,0-1.14,0,.26.26,0,0,0-.19.13,1.27,1.27,0,0,0,.24,1.25,2.69,2.69,0,0,0,1.46.59c.15-.73.15-.73.63-.72m8-18.4a.81.81,0,0,0,0,.09,5,5,0,0,0,.72,1.92.2.2,0,0,0,.15.08l1.52.13a2.37,2.37,0,0,0-2.37-2.22m-4.13-4.18-1.59,1.21c-.26.2-.55.37-.79.59s-.49.56-.75.85a.92.92,0,0,0,.87.13c.37-.11.73-.2,1.1-.32a.35.35,0,0,0,.16-.16c.17-.34.33-.7.51-1s.33-.49.48-.75.17-.38,0-.51m-.84,15.22c.3-.55.62-1.1.92-1.66s.62-1.18.88-1.8a7.38,7.38,0,0,0,.27-1.17c-1.3.83-2.42,3.43-2.07,4.63m11-.11.06-.11a3,3,0,0,0-.44-.43,3.45,3.45,0,0,0-1.92-.59,1.63,1.63,0,0,0-.64.16.45.45,0,0,0-.22.62c.07.19.07.49.38.48l2.78-.13m-11.94-6.3a8.57,8.57,0,0,0,.63-1.09c.24-.65.42-1.31.6-2a1,1,0,0,0,0-.41c-.15,0-.34,0-.46.08a2.72,2.72,0,0,0-.74,3.39m-1.38-4.66A6.4,6.4,0,0,1,20.52,16c0-.38.05-.73.07-1.1-.35,0-.68,0-1,0a3.59,3.59,0,0,0-1.83.57.87.87,0,0,0-.43.83m4.72,16.62a.68.68,0,0,0,.91-.39,5.47,5.47,0,0,0,.1-2.72h-.77c-.08,1.05-.16,2.07-.24,3.11m9.71-.19a9.53,9.53,0,0,0-2.58-.42,3.93,3.93,0,0,0-1,.15.6.6,0,0,0-.47.52c.33,0,.64.11.95.13.78,0,1.56.08,2.34.08a.88.88,0,0,0,.78-.46m-16.45-16,.16.37c.21.47.21.47.7.34l.31-.07c.89-.17,1.79-.32,2.68-.52a6.94,6.94,0,0,0,1.07-.41l0-.1a4.4,4.4,0,0,0-3.67.83c-.42-.3-.84-.57-1.22-.44M37.84,41.54c.42-1.42,1.15-2.8.66-4.36-1,1.33-.7,2.87-.66,4.36M23.69,25c.06.51.1.9.16,1.36.67-.14,1.28-.24,1.88-.4a1.21,1.21,0,0,0,.84-.81c-.33,0-.61-.05-.89,0a2.82,2.82,0,0,1-2-.12m-6.56-13.4c1.36,0,2.45-1.53,2.78-3.06a20.66,20.66,0,0,0-2.78,3.06m3.34,0a7.14,7.14,0,0,1-.89.37c-.65.17-1.3.29-1.95.44-.08,0-.2.05-.21.08a.65.65,0,0,0,0,.42c.12.18.32.46.45.44a3.67,3.67,0,0,0,2.57-1.75m9.32,1.68c.42.19.8.4,1.19.53a3.38,3.38,0,0,0,.9.13c.06,0,.2-.11.2-.18.05-.37.06-.75.09-1.16a4.35,4.35,0,0,0-2.38.68m-.71-.33v-.77a2.69,2.69,0,0,0,0-.57c0-.14-.19-.31-.35-.12a1.58,1.58,0,0,1-1.1.49l-1,.15v.08a5.84,5.84,0,0,0,2.51.74M24.55,36.68a9.81,9.81,0,0,0,.22,4.21c.37-.91.5-3.63-.22-4.21m9,9.71v-.08a2.81,2.81,0,0,1-1.41-.67,8.31,8.31,0,0,0-.92-.63.56.56,0,0,0-.84.27c.28.06.56.11.82.19a.68.68,0,0,1,.56.8c0,.09,0,.24,0,.26A2.16,2.16,0,0,0,33,47c0-.18-.07-.32-.11-.5l.65-.08m-9.28-5.9A9.22,9.22,0,0,0,24,37.15c-.14.55-.28,1.06-.39,1.57a3.54,3.54,0,0,0-.11.91.82.82,0,0,0,.76.86m10-13.92a4.74,4.74,0,0,1-2.07-.15,3.76,3.76,0,0,0-1.7-.09l-.21.1a3.69,3.69,0,0,0,4,.14m2.41,6.13c-.05.12-.14.23-.13.33a6.23,6.23,0,0,0,.17.86c.12.43.31.85-.11,1.25a2.82,2.82,0,0,0,.52,0l.48-.13c0-1.24-.17-2.11-.93-2.27M20.38,10.31A1.13,1.13,0,0,0,21.66,10c-.08-.29-.16-.54-.21-.79s0-.47-.07-.7S21.23,8,21,8c-.21.77-.41,1.53-.62,2.32m0,30.47a.62.62,0,0,0-.63.61.7.7,0,0,0,.32.69c-.15-.85.53-.94,1-1.21-.19-.3-.72-.29-.65-.81l.49.12,0-.08-1.33-1.21-.1.08a1.41,1.41,0,0,0,.11.38.65.65,0,0,1,0,.85l.72.58m7.14-25.13-.12,0c-.09.55-.21,1.1-.28,1.65a.67.67,0,0,0,.34.7,3.54,3.54,0,0,0,.55.18,1.77,1.77,0,0,0,.13-.54,5,5,0,0,0-.62-2m-2,2.92a1.62,1.62,0,0,0,.08.52c.29.43.59.85,1.22.69.1,0,.22,0,.31,0s.27-.12.4-.18a2.45,2.45,0,0,0-.26-.51.72.72,0,0,0-.36-.18l-1.39-.3M16.3,37.7c.32,1.23.8,3,1.31,3.28-.08-.53-.15-1.07-.25-1.6A7.26,7.26,0,0,0,17,38.19a.67.67,0,0,0-.73-.49M34.71,23.82c.12.69.2,1.33.34,2a1.1,1.1,0,0,0,.71.83,3.05,3.05,0,0,0-1-2.8M20.6,36.91c0,1-.13,2,.79,2.78l.17-.37-.51-.41.05-.07.32,0-.35-.58.07,0,.5.22a2,2,0,0,0-1-1.59M35,48.35c-.07-.34.12-.41.42-.4a1.63,1.63,0,0,0,.37-.08c-.52-.18-.59-.26-.61-.74a3.55,3.55,0,0,0,0-.57,1.32,1.32,0,0,0-.2-.34,1.39,1.39,0,0,0,0,.43c0,.45-.13.56-.58.53-.12,0-.23,0-.35,0a2.2,2.2,0,0,0-.36,0c.42.19.9.17,1.08.72a3.06,3.06,0,0,1-.73-.21c-.28-.12-.31-.13-.46.08l1.52.58M22.37,39.61c.08-.44.15-.75.19-1.06a4.39,4.39,0,0,0,.07-.95c0-.13-.19-.29-.33-.35s-.27.15-.32.27a2.27,2.27,0,0,0,0,1.68c.05.14.22.25.38.41m1.4-3.07c.05-.22.09-.44.15-.65a5.54,5.54,0,0,0,.17-.58c0-.22-.17-.4-.33-.35s-.34.08-.5.14-.21.11-.22.17c0,.34-.05.69-.06,1s.16.38.41.29a3.53,3.53,0,0,1,.38-.05m8.1-22.33a.61.61,0,0,0-.31.62,2.78,2.78,0,0,0,1.07,2s0,0,0,0c-.09-.56-.17-1.09-.26-1.62a1.3,1.3,0,0,0-.48-1M23.73,37a.6.6,0,0,0-.74.4,3.85,3.85,0,0,0,0,2.23h.12c.2-.87.4-1.74.6-2.64M21.38,14.69a.62.62,0,0,0,.72-.45,2.62,2.62,0,0,0-.18-1.93,5.6,5.6,0,0,0-.54,2.38m8.41-4h-.12c-.08.09-.19.16-.22.26a4.72,4.72,0,0,0-.2,1.1c.05.87.14.74.72.52l.11,0c0-.33,0-.64-.09-1s-.14-.59-.2-.89M26.1,9.15a11,11,0,0,0-3.67,1.11A6.55,6.55,0,0,0,26.1,9.15M17,23.49c-.37.17-.71.32-1.05.49-.12.05-.29.13-.32.23a9.06,9.06,0,0,0-.13,1c0,.08.07.17.15.32.42-.77,1.21-1.2,1.35-2.07m5.93,9.89c-.62-.14-.77,0-.86.54a2.09,2.09,0,0,0,0,.66.55.55,0,0,0,.51.44c.16,0,.24,0,.25-.2,0-.48.06-1,.09-1.44M19.87,19.82c.45-.12.64-.38.68-.95s.08-.92.12-1.4H20.3c-.15.52-.28,1-.42,1.49a1.11,1.11,0,0,0,0,.86M26,45.32l0,.09,4.67,1.37,0-.1c-1.54-.51-3-1.42-4.67-1.36M21.9,36.17a1.29,1.29,0,0,0,.1.43.49.49,0,0,0,.3.23c.09,0,.24-.09.3-.18a1.43,1.43,0,0,0,.18-1.16.45.45,0,0,0-.28-.29.43.43,0,0,0-.33.22,5.74,5.74,0,0,0-.27.75m-2.71-25.4a.78.78,0,0,0,.87-.4,5.26,5.26,0,0,0,.43-1.83l-.08,0-1.22,2.26M35.65,38.61A3.36,3.36,0,0,0,36,41.46v-2a1.05,1.05,0,0,0-.34-.85M22.73,9.79l.13,0c.27-.51.78-.89.84-1.63l-1.42.8.45.86m-8,6.52,1.75.31c.12-.28.21-.5.31-.72a2.45,2.45,0,0,0-2.06.41m2.59,18.43c.06.21.13.4.19.58s.06.35.16.44a.61.61,0,0,0,.45.17.46.46,0,0,0,.35-.28.9.9,0,0,0-1.15-.91m1.79,8.49a10.08,10.08,0,0,0-1.29-2.83,4.07,4.07,0,0,0,1.29,2.83m9.38-1.39c.09.56,1.62.95,2.58.67a6.82,6.82,0,0,0-2.58-.67m-7.09.89a2,2,0,0,0-.47.21,1,1,0,0,0,.29,1.44.29.29,0,0,0,.25-.12,1.08,1.08,0,0,0,0-.44c0-.33-.06-.67-.1-1.09m3.65-7.06c-.08-.24-.14-.48-.23-.72s-.24-.19-.32,0a2.36,2.36,0,0,0-.26.76c-.06.43.12.76.34.76s.43-.35.47-.77m-1.78-3.06a.54.54,0,0,0,.71-.48,1.94,1.94,0,0,0-.2-1.27,2.19,2.19,0,0,0-.22-.27c-.1.7-.2,1.35-.29,2m.81-14.53a2.15,2.15,0,0,0-.58-1.69,1.31,1.31,0,0,0-.1,1.36.61.61,0,0,0,.68.33M32,33.28a3.19,3.19,0,0,0,2-.38c-.49-.1-.9-.2-1.32-.25s-.63.13-.67.63M21.48,17.34l-.51,0c0,.57-.07,1.11-.11,1.65.55-.07.76-.67.62-1.63m13,18.18c-.87.09-1.26.94-.94,1.89l.94-1.89M25.7,11c-.19-.23-.34-.44-.52-.63a1.25,1.25,0,0,0-.34-.19c-.09.17-.26.35-.25.51s0,.52.35.57A.76.76,0,0,0,25.7,11m-.46,25.15.69,0c-.11-.45-.19-.85-.31-1.23,0-.1-.15-.17-.23-.25-.07.12-.2.24-.21.36,0,.34,0,.69.06,1.08M19.93,20.46l-.61,1.35.55.22c.39-.74.58-1.44.06-1.57m5.16,23.63a4.56,4.56,0,0,0-1.62-1.31c.1.3.19.58.29.85,0,.08.08.21.14.22.38.09.77.16,1.19.24M23,10.8A1,1,0,0,0,23,11l1.16.45.1-.09a5.56,5.56,0,0,0-.08-.7.32.32,0,0,0-.27-.16c-.31.09-.62.22-.92.33M20.09,23.44c-.85,0-1.26.31-1.31.95.57.11,1.07-.24,1.31-.95m-.81,16.34a2.51,2.51,0,0,0-1.35-1.56c-.05,1,.78,1.09,1.35,1.56m1.94-20a1.62,1.62,0,0,0-.16,2,2.83,2.83,0,0,0,.16-2m7.08-8.95c-.68.16-1.48,0-2,.67.71-.08,1.46,0,2-.67m-7,36.28a9,9,0,0,0-1-2.47,3.64,3.64,0,0,0,1,2.47m6.32-6c-.24-.87-.47-1.68-.7-2.49-.12,1.23.17,2.21.7,2.49m7.16-4.42c.24-.44.47-.83.7-1.24-.39-.08-.84,0-.87.24a5.7,5.7,0,0,0,0,.83c0,.06.14.11.21.17M28.7,18.81a3.1,3.1,0,0,0-1.44-.65.71.71,0,0,0,.48.7.89.89,0,0,0,1-.05M16.53,13l.68,1.18.42-.19c-.25-.8-.7-1.19-1.1-1M17.7,48.26c-.06-.56-.85-.7-1.81-.32a5.16,5.16,0,0,0,1.81.32M21,45c.14.5.12,1.06.56,1.47.26-1,0-1.6-.56-1.47m15.4-10.67a4.49,4.49,0,0,0-.11-.87.47.47,0,0,0-.36-.23c-.07,0-.2.17-.23.29-.12.39.17.75.7.81M28.23,8.4c-.6.15-1.31,0-1.77.7a1.9,1.9,0,0,0,1.77-.7M20.1,43.78a4.72,4.72,0,0,0-1.13-2,3,3,0,0,0,1.13,2M36.83,44h.09c.17-.43.35-.85.49-1.29a.46.46,0,0,0-.24-.62c-.12.44-.25.86-.34,1.29a3.11,3.11,0,0,0,0,.61M22.59,27.09h-.13a3.33,3.33,0,0,0,.13,2.28ZM38,35.29l-.05-.09a3.12,3.12,0,0,0-.74.27c-.1.06-.18.37-.13.41a2.59,2.59,0,0,0,.55.28l.37-.87m-18.59.93c0,.37,0,.65-.06.94.48.13.7-.07.75-.63l-.69-.31M13.09,49c-.36,0-.73-.11-1.09-.13-.1,0-.21.12-.31.19.11.1.21.26.33.29A1.2,1.2,0,0,0,13.09,49M15,24.52a2.38,2.38,0,0,0,0,1.87,2.09,2.09,0,0,0,0-1.87m2.41-6.63A1.05,1.05,0,0,0,19,17.55l-1.59.34m11.39.8c.12.2.18.41.31.47A1.65,1.65,0,0,0,30.48,19l-1.65-.32m-6.76-8.61a1.11,1.11,0,0,0-.38-1.53,3.64,3.64,0,0,0,.38,1.53m7.77.27c-.67-.08-1.16.16-1.23.6a1.38,1.38,0,0,0,1.23-.6M38,37.14l0-.12-1.22.14,0,.13c.15.08.29.22.45.23a.84.84,0,0,0,.84-.38m-3.7-2.41c.59.09.76,0,.76-.45L34.32,34c0,.27,0,.5-.07.74M23.07,26.45a1.74,1.74,0,0,0,0-1.71c.09.58-.3,1.12,0,1.71M19.35,41a1.09,1.09,0,0,0-1-1.28l1,1.28m6-32c-.57-.47-.82-.56-1-.42,0,.21.07.39.12.63l.9-.21M36.77,38.6a1.17,1.17,0,0,1,0,.11,1.75,1.75,0,0,0,.46,0c.15,0,.4-.14.4-.22s-.12-.33-.2-.51l-.71.63M33.52,19.43c0,.22,0,.44,0,.67l.12,0a5.44,5.44,0,0,0,.47-.49.32.32,0,0,0,0-.3c0-.05-.19,0-.29,0l-.32.11M23.19,29.12h.12c-.06-.6-.11-1.19-.16-1.78H23a3.18,3.18,0,0,0,.15,1.78M21.57,7.56a2.9,2.9,0,0,0,.24.5.56.56,0,0,0,.29.17s.16-.08.15-.11a1.48,1.48,0,0,0-.18-.56.31.31,0,0,0-.5,0M24.4,18.82c0-.35-.29-.5-.87-.5,0,.44.33.64.87.5m-4.68-4.23A1.77,1.77,0,0,0,20.58,13l-.86,1.61M24,8.44l-.51,1c.38.13.54-.22.68-.38s0-.47-.17-.63m-3,2.13c-.42.33-1,.21-1.35.61.65.11,1.34-.18,1.35-.61m7.14,9.33a.53.53,0,0,0,.67.11,2.27,2.27,0,0,0,.35-.41c-.46-.05-.77,0-1,.3M17.16,22.33l.06.13a5.68,5.68,0,0,0,.81-.32c.24-.12.27-.31.08-.48l-.95.67m9.19,21.44.9.31c.16.06.33.13.45-.08-.77-.45-1.19-.5-1.35-.23m-2.19-2c.15-.43-.11-.7-.65-.69,0,.36,0,.41.65.69m1.69-30.35h-.64a1,1,0,0,0-.25.08c.05.07.08.17.14.19.23.08.47.14.75.22Zm-2.21,2.48c.56-.59.57-.61.29-.85a1.8,1.8,0,0,1-.19.2c-.06.07-.14.12-.21.19-.24.24-.23.31.11.46M34.2,39.52c0-.4.57-.73.16-1.25-.23.45-.39.83-.16,1.25M11.88,48.07c.31.08.55.16.79.21.07,0,.21-.06.21-.11a.3.3,0,0,0-.1-.23.73.73,0,0,0-.9.13m8.87-34.31a4.42,4.42,0,0,0-.3.55c0,.1,0,.24.06.36.1-.06.26-.09.3-.18a.7.7,0,0,0-.06-.73m-6.29,36.1a5.19,5.19,0,0,0-.73-.21c-.05,0-.19.16-.18.19.11.25.66.3.91,0M29.8,33.63l0-.14a4.48,4.48,0,0,0-.62-.06c-.09,0-.17.13-.26.21.08,0,.17.16.25.15s.44-.11.66-.16M24,12.67h.55c0-.18,0-.34,0-.49-.36-.07-.48,0-.58.49m10.26,8.42a2,2,0,0,0-.14-.61c-.06-.1-.25-.12-.42-.2,0,.44.18.62.56.81m2.84,15.73c.05-.45-.06-.57-.48-.55q0,.24,0,.51l.51,0M22.19,18l-.13,0a5.31,5.31,0,0,0,0,.68c0,.08.14.15.21.22.05-.08.16-.16.15-.23,0-.23-.12-.46-.18-.69M27,20.18c.33,0,.61,0,.88,0a1.43,1.43,0,0,0,.05-.28.89.89,0,0,0-.93.29m-4.44-8.26a3.52,3.52,0,0,0,.58-.08c.08,0,.14-.13.21-.2s-.17-.14-.25-.13a.89.89,0,0,0-.41.15c-.07,0-.08.17-.13.26m.33.47a4.38,4.38,0,0,0,.59,0c.07,0,.15-.13.17-.21s-.1-.15-.17-.16a.48.48,0,0,0-.59.33M17.06,51l.13,0c0-.21.08-.41.11-.62l-.11-.05c-.13.1-.34.18-.38.32s.16.26.25.39M27.21,27.17c-.11-.22-.18-.4-.28-.57s-.13,0-.19,0,0,.07,0,.1a2.8,2.8,0,0,0,.12.5.26.26,0,0,0,.18.16c.06,0,.13-.09.22-.16m5.16-14.6c0,.18,0,.32,0,.46s0,.1,0,.13a.52.52,0,0,0,.19.17s.13-.05.16-.1a.52.52,0,0,0-.31-.66M25.05,42.46c.05-.43-.09-.59-.48-.54,0,.4.05.49.48.54M20.9,47.75c.08-.4,0-.56-.46-.55-.05.41,0,.53.46.55m1.93-23.66a1.45,1.45,0,0,0-.17-1.41c.06.52.11,1,.17,1.41m-8.36,11-.3.23c.1.08.2.23.31.23s.22-.12.33-.2l-.34-.26m7.93,5L22,39.64v.79l.18.13c-.23-.35.23-.3.26-.51m3.71,3.5a4.11,4.11,0,0,0-.52-.25c-.06,0-.16,0-.24,0s0,.23.09.27a.52.52,0,0,0,.67,0M15.89,35.93v-.12a1.1,1.1,0,0,0-.37-.16c-.07,0-.15.14-.23.22a.85.85,0,0,0,.31.21c.09,0,.19-.09.29-.15m7.28,4.89.73-.25-.42-.4c-.1.22-.2.41-.31.65m-1.84,6.59V48l.6-.07-.6-.54M34.24,36.92h-.11a5.17,5.17,0,0,0-.11.54c0,.08.08.17.13.26.06-.07.18-.14.17-.21a3.81,3.81,0,0,0-.08-.59m-15.11-.14c0-.35,0-.4-.49-.49,0,.37.08.46.49.49m1.22,1c0-.24.14-.49-.08-.71-.32.33-.29.56.08.71M15.54,49.63c.42-.08.76.18,1.14,0-.53-.22-.88-.23-1.14,0M27.76,19.49l.5,0c0-.36-.12-.44-.5-.35ZM17.73,12l.85-.33c0-.05,0-.1,0-.14l-.83.28a1,1,0,0,0,0,.19m3.58,3.14c0,.2,0,.36.07.6l.52-.58-.59,0m3,33.32-.11,0,.26.66.1,0c.05-.27.06-.53-.25-.67m-.49-3.92a.56.56,0,0,0,0,.12c.26,0,.53.07.62-.35l-.66.23M28,44.28l.46.29a.22.22,0,0,0,.16,0,.16.16,0,0,0,0-.16.54.54,0,0,0-.66-.14m-5.54-1.55.24.65c.19-.41.13-.55-.24-.65M22.92,40h-.14a4.37,4.37,0,0,0-.09.5c0,.06.06.12.1.18s.17-.09.17-.14a3.27,3.27,0,0,0,0-.54M16.3,36.42l-.12,0c-.05.27-.05.52.22.66l.12,0-.22-.66m7.4-6.06a.46.46,0,0,0-.06-.63.15.15,0,0,0-.16,0,.17.17,0,0,0,0,.16l.25.49m1.42-11.83-.17.06c0,.15.08.31.11.47.08,0,.24-.12.23-.15a1.63,1.63,0,0,0-.17-.38m-9.74,2.62,0-.08c-.42-.53-.46-.55-.66-.33l.61.41M17.1,31.84l.56-.29c-.43-.15-.52-.1-.56.29m.7,17.67c-.44-.15-.55-.09-.52.29l.52-.29m-3,.06v.1c.18.15.35.14.52-.1ZM30.24,19.39v.07h.62v-.07Z" transform="translate(-7.54 -2.02)"/></svg>