<?xml version="1.0" standalone="no"?>
<!DOCTYPE svg PUBLIC "-//W3C//DTD SVG 20010904//EN"
 "http://www.w3.org/TR/2001/REC-SVG-20010904/DTD/svg10.dtd">
<svg version="1.0" xmlns="http://www.w3.org/2000/svg"
 width="832.000000pt" height="832.000000pt" viewBox="0 0 832.000000 832.000000"
 preserveAspectRatio="xMidYMid meet">
<metadata>
Created by potrace 1.14, written by Peter Selinger 2001-2017
</metadata>
<g transform="translate(0.000000,832.000000) scale(0.100000,-0.100000)"
fill="#000000" stroke="none">
<path d="M2229 8264 c0 -21 -2 -46 -3 -54 -2 -8 -7 -53 -11 -100 -3 -47 -8
-98 -10 -115 -11 -115 -23 -246 -24 -283 -1 -16 -43 -9 -107 19 -23 9 -45 15
-47 12 -3 -3 10 -34 29 -69 19 -35 34 -69 34 -77 0 -8 -24 -18 -67 -27 -38 -8
-72 -15 -78 -16 -5 -2 -37 -8 -70 -15 -62 -12 -94 -28 -59 -30 10 0 26 -2 34
-4 8 -2 44 -8 80 -14 61 -10 105 -19 140 -26 8 -2 18 -4 22 -4 4 -1 -4 -33
-18 -72 -14 -39 -23 -73 -21 -76 3 -2 37 12 75 31 39 20 73 32 76 28 2 -4 7
-34 10 -67 4 -33 9 -73 11 -90 2 -16 7 -64 10 -105 3 -41 8 -93 10 -114 2 -22
7 -78 11 -125 3 -47 8 -102 9 -121 2 -19 4 -50 4 -69 1 -50 15 -28 17 27 2 48
11 234 19 377 2 44 7 127 10 184 3 58 7 106 9 108 2 2 36 -8 77 -22 40 -14 76
-25 80 -25 4 0 -10 33 -31 73 l-39 74 132 42 c73 23 139 45 147 48 8 4 18 7
22 7 3 1 10 4 14 9 4 4 -17 7 -47 8 -30 1 -81 3 -114 4 -33 2 -81 4 -107 6
-27 1 -48 5 -48 10 0 4 11 39 25 76 13 37 23 68 22 70 -3 3 -90 -40 -97 -48
-8 -9 -50 -18 -51 -11 0 4 -2 16 -4 27 -2 11 -7 47 -11 80 -3 33 -8 71 -9 85
-2 14 -6 49 -9 77 -3 29 -8 70 -11 90 -9 78 -15 130 -20 183 -7 66 -15 78 -16
24z m55 -690 c40 -39 3 -94 -49 -74 -23 9 -26 14 -20 38 13 52 40 66 69 36z"/>
<path d="M3385 7931 c-58 -15 -112 -50 -191 -126 -101 -98 -144 -126 -196
-132 -24 -3 -51 -12 -60 -21 -19 -16 -23 -58 -9 -81 9 -14 86 -23 106 -12 6 3
15 6 20 7 6 1 24 5 41 8 18 3 94 22 170 42 77 20 148 38 160 41 24 6 42 -27
38 -71 -9 -98 -387 -528 -653 -742 -13 -10 -28 -24 -35 -29 -6 -6 -31 -26 -56
-44 -114 -86 -117 -123 -17 -239 24 -29 50 -64 58 -79 8 -16 16 -30 19 -33 3
-3 19 -27 35 -55 39 -63 65 -129 71 -176 l4 -36 -102 -1 c-57 0 -114 -3 -128
-6 -14 -3 -41 -9 -60 -12 -93 -16 -292 -105 -346 -155 -11 -10 -24 -19 -28
-19 -20 0 -61 -63 -71 -110 -2 -8 -7 -33 -12 -55 -21 -90 2 -201 58 -290 37
-58 47 -68 221 -211 128 -106 228 -208 228 -233 0 -6 4 -11 8 -11 5 0 14 -11
20 -24 12 -27 22 -22 -143 -68 -47 -13 -50 -16 -47 -43 8 -93 3 -156 -17 -219
-18 -56 -22 -89 -27 -221 -3 -71 -10 -135 -16 -142 -6 -7 -8 -13 -4 -13 8 0
-26 -67 -48 -95 -9 -11 -41 -54 -72 -95 -30 -41 -64 -86 -74 -100 -70 -93
-100 -135 -105 -152 -4 -10 -10 -18 -15 -18 -5 0 -12 -9 -15 -20 -3 -11 -12
-26 -20 -33 -22 -23 -71 -129 -89 -196 -49 -178 -10 -356 107 -482 23 -25 124
-103 223 -173 287 -201 320 -243 385 -487 105 -397 251 -664 514 -941 45 -48
78 -93 88 -120 9 -24 25 -68 37 -98 36 -93 70 -198 70 -214 0 -22 -9 -20 -65
9 -26 14 -50 23 -53 20 -4 -3 -2 -9 3 -13 21 -15 37 -56 42 -108 l6 -53 -31 8
c-17 5 -34 6 -37 3 -4 -4 -4 3 -1 16 16 51 -34 11 -91 -74 -23 -34 -49 -64
-58 -68 -26 -10 -60 -7 -73 6 -21 21 -13 36 24 45 20 4 43 18 50 29 13 19 12
21 -28 34 -24 7 -63 26 -88 41 -91 56 -177 58 -290 6 -116 -53 -123 -55 -147
-44 -13 6 -23 14 -23 18 0 5 -15 16 -32 25 -28 15 -69 17 -283 18 -222 1 -254
3 -278 19 -15 9 -27 21 -27 26 0 32 -221 38 -278 8 -18 -10 -30 -22 -27 -27 4
-6 44 -10 89 -10 51 0 97 -6 117 -15 l34 -14 -45 -1 c-25 -1 -82 -1 -128 -1
-112 1 -141 -17 -102 -63 9 -12 16 -14 24 -6 18 18 48 11 92 -22 24 -18 44
-35 44 -38 0 -3 -23 -20 -52 -37 l-52 -32 -40 43 c-51 54 -121 88 -181 88 -47
0 -100 -25 -90 -43 4 -5 10 -7 14 -5 13 8 203 -44 236 -64 16 -10 45 -35 64
-54 33 -34 34 -37 17 -49 -17 -13 -17 -14 -1 -30 27 -27 51 -20 90 28 32 39
39 43 56 32 25 -16 24 -25 -4 -38 -24 -11 -61 -60 -71 -96 -7 -20 -5 -21 26
-13 64 17 94 21 183 25 81 3 125 -1 220 -20 41 -8 42 -13 9 -25 -97 -35 -147
-91 -150 -168 -3 -71 3 -76 44 -35 21 20 55 44 77 54 44 20 105 25 105 8 0
-11 -114 -129 -160 -164 -65 -51 -61 -54 62 -49 62 2 133 6 158 8 59 5 86 -6
110 -46 20 -33 20 -33 0 -48 -11 -8 -22 -31 -25 -51 -5 -31 -2 -37 18 -46 17
-8 28 -8 35 -1 12 12 63 14 117 3 22 -4 49 -9 60 -10 11 -2 47 -9 80 -15 87
-17 151 -9 183 24 50 50 -3 81 -118 70 -117 -12 -146 -10 -154 12 -9 23 -7 23
41 15 46 -9 61 4 40 33 -18 23 -55 33 -132 35 -91 3 -102 7 -121 42 -16 31
-12 51 9 44 7 -2 33 -6 60 -9 26 -3 51 -7 55 -10 9 -5 16 -7 127 -29 53 -10
80 -11 113 -3 42 11 43 12 25 27 -22 21 -90 54 -123 62 -14 3 -63 9 -110 12
-47 3 -101 8 -120 11 -19 3 -47 7 -61 9 -33 5 -91 37 -90 50 2 15 151 9 231
-10 14 -3 34 -8 45 -10 11 -3 45 -14 75 -26 68 -27 122 -28 180 -2 67 30 89
36 142 34 57 -1 73 19 39 50 -23 21 -26 40 -12 67 5 9 19 37 31 61 11 24 26
49 33 56 7 7 23 27 37 45 26 33 114 97 162 117 14 7 53 15 87 19 67 7 63 12
75 -79 3 -20 12 -44 20 -53 18 -17 20 -14 30 45 10 58 58 94 69 53 7 -31 38
-31 137 -1 52 16 105 29 117 29 38 0 114 -113 154 -227 17 -51 17 -52 -3 -59
-43 -13 -117 -5 -222 25 -60 17 -121 31 -136 31 -28 0 -68 -34 -52 -43 18 -12
119 -46 157 -53 22 -4 47 -9 55 -11 8 -2 62 -5 120 -5 126 -1 208 17 220 47 9
22 7 97 -5 205 -4 36 -9 81 -10 100 -2 19 -6 53 -8 75 -3 22 -9 67 -12 100 -4
33 -8 71 -10 85 -2 14 -7 50 -10 80 -3 30 -8 72 -11 93 -6 48 11 49 31 1 44
-106 67 -257 81 -539 9 -195 10 -205 22 -217 14 -14 57 -3 82 22 16 16 47 98
51 135 4 35 48 67 166 120 71 31 170 79 221 106 123 65 151 65 255 1 89 -55
159 -120 213 -198 36 -52 40 -55 78 -53 87 3 143 -17 258 -92 62 -41 115 -41
238 -1 93 31 221 64 290 76 19 3 46 8 60 11 69 14 108 17 258 22 139 5 162 3
162 -10 0 -29 -30 -40 -115 -42 -132 -2 -138 -18 -54 -137 27 -37 49 -73 49
-78 0 -6 4 -10 8 -10 5 0 18 -18 30 -39 21 -38 22 -40 5 -48 -38 -18 -199 -6
-312 23 -92 23 -100 24 -186 29 -136 6 -158 -23 -58 -77 84 -46 165 -61 318
-62 140 0 219 9 322 39 54 16 55 16 39 40 -9 13 -13 31 -10 39 3 8 43 29 87
47 111 42 154 65 166 88 17 30 -6 38 -97 36 -51 -1 -85 3 -89 9 -3 6 -3 8 2 4
10 -10 85 32 85 48 0 28 -47 38 -96 21 -20 -7 -36 -41 -49 -107 -10 -44 -26
-70 -45 -70 -23 0 -130 102 -130 124 0 13 5 16 18 11 18 -7 31 -8 94 -6 30 1
40 6 52 29 23 44 102 82 172 82 33 1 73 -1 89 -4 17 -2 59 -7 95 -11 36 -3 73
-9 83 -12 17 -4 17 -3 4 24 -8 15 -23 35 -33 44 -19 16 -103 44 -159 53 -161
26 -220 47 -249 87 l-15 21 -28 -20 c-47 -33 -141 -54 -194 -43 -4 0 -1 18 6
39 7 20 12 56 10 78 -4 45 -39 124 -55 124 -6 0 -43 -12 -83 -26 -100 -36
-179 -59 -201 -59 -23 0 -34 23 -14 29 7 3 46 15 86 27 62 19 72 25 72 45 0
15 -11 29 -34 43 -39 24 -46 37 -47 89 -1 36 -1 36 -18 -17 -15 -49 -17 -52
-31 -35 -32 40 -42 69 -45 133 -4 80 18 158 66 232 l33 52 16 -38 16 -38 16
64 c9 35 48 177 88 314 39 138 73 257 75 265 3 17 17 67 66 240 23 85 32 140
35 211 2 98 17 173 34 184 23 14 5 20 -62 19 -114 -1 -143 12 -154 66 -3 17
66 150 78 150 4 0 8 5 8 11 0 7 16 32 36 55 39 48 36 51 -30 29 -24 -8 -51
-13 -59 -9 -8 3 -21 29 -30 57 -8 29 -27 90 -41 137 -27 90 -32 152 -17 194 9
21 3 35 -35 93 -37 56 -73 145 -100 248 -2 6 -10 37 -20 70 -9 33 -17 65 -19
70 -1 6 -5 17 -8 25 -13 34 -25 90 -19 91 4 0 16 2 27 5 11 2 35 6 52 8 18 3
42 10 53 16 21 11 53 64 44 73 -3 3 -27 3 -52 -1 -114 -14 -152 4 -152 74 0
48 25 81 87 116 50 28 73 52 73 77 0 7 -25 11 -64 11 -39 0 -67 5 -74 13 -5 6
-18 39 -27 72 -10 33 -21 69 -26 80 -4 11 -20 49 -35 85 -14 36 -32 79 -39 95
-66 154 -77 234 -44 320 22 57 87 135 113 135 9 0 15 4 12 9 -3 5 -33 11 -66
13 -47 3 -64 9 -80 28 -11 13 -20 26 -21 29 0 3 -3 18 -5 32 -3 18 9 45 40 94
52 81 52 102 -2 79 -62 -27 -93 -37 -98 -31 -10 9 -12 62 -3 79 5 9 25 25 45
34 43 20 54 42 30 59 -14 11 -31 9 -93 -10 -72 -22 -108 -25 -124 -8 -4 5 -20
55 -37 113 -17 58 -44 150 -61 204 -17 54 -33 108 -36 120 -2 12 -6 32 -9 46
-24 112 -40 223 -37 270 0 14 15 54 33 89 26 52 32 74 30 119 -4 100 -30 130
-104 119 -110 -17 -179 -27 -227 -32 -30 -3 -58 -8 -62 -11 -9 -5 -17 20 -23
76 -3 19 -5 35 -6 35 -1 0 -3 11 -4 25 -2 14 -6 44 -9 68 -4 23 -9 61 -13 85
-8 64 -13 76 -37 82 -12 3 -40 -2 -62 -11 -71 -31 -85 -27 -92 21 -7 48 -12
73 -23 120 -6 28 -13 59 -15 70 -3 11 -10 39 -16 63 l-12 43 -46 -6 c-25 -4
-57 -9 -71 -11 -14 -3 -41 -7 -60 -10 -19 -2 -48 -7 -65 -11 -102 -21 -276
-28 -330 -12 -74 22 -157 111 -171 183 -11 60 -14 70 -23 79 -16 16 -54 0
-126 -53 -51 -38 -75 -49 -94 -46 -14 2 -31 5 -38 5 -18 1 -54 42 -70 80 -21
50 -22 56 -37 192 -22 193 -58 237 -171 210z m262 -507 c18 -25 28 -83 15 -96
-25 -25 -103 68 -89 105 8 21 56 15 74 -9z m-137 -94 c14 -20 24 -55 30 -109
5 -44 16 -104 24 -132 19 -61 15 -68 -52 -97 -68 -30 -151 -20 -134 16 5 9 28
92 52 185 24 92 47 167 51 167 4 0 17 -13 29 -30z m384 -56 c-19 -56 -115
-199 -134 -199 -7 0 -27 27 -45 60 -31 55 -32 61 -18 77 9 10 19 18 23 18 4 0
47 22 95 50 49 27 91 48 92 46 2 -2 -4 -25 -13 -52z m702 -19 c-48 -42 -131
-75 -191 -75 -51 0 -55 7 -22 37 36 34 86 54 140 59 28 2 53 7 56 9 2 3 16 5
30 5 25 -1 25 -2 -13 -35z m-620 8 c20 -26 17 -61 -7 -95 -24 -33 -67 -54 -81
-40 -9 9 57 152 69 152 3 0 12 -8 19 -17z m-590 -40 c-12 -113 -49 -231 -87
-272 -24 -27 -92 -52 -105 -38 -3 3 11 36 32 74 20 37 57 106 82 153 78 149
86 156 78 83z m262 -23 c25 -50 28 -112 8 -149 -13 -24 -14 -23 -35 34 -12 32
-24 77 -27 99 -3 23 -7 52 -10 65 -5 23 -4 24 18 9 13 -8 33 -34 46 -58z m469
39 c43 -30 47 -49 11 -55 -108 -19 -100 -23 -113 54 -5 30 -4 32 26 32 18 0
49 -13 76 -31z m-831 -9 c-19 -99 -114 -271 -186 -338 -37 -35 -122 -97 -130
-95 -3 0 -14 -3 -25 -7 -11 -4 -37 -10 -58 -13 l-38 -5 27 37 c34 45 98 124
144 176 42 48 263 275 269 275 2 0 1 -14 -3 -30z m1413 -146 c2 -115 -2 -123
-72 -131 -33 -4 -54 0 -88 18 -63 34 -79 40 -79 29 0 -6 14 -22 30 -37 17 -14
30 -29 30 -33 0 -9 -68 -39 -104 -46 -16 -3 -31 -6 -35 -7 -19 -5 -100 17
-134 36 -39 22 -96 101 -82 115 3 4 55 8 113 8 59 1 110 2 114 3 4 1 2 12 -4
26 -6 14 -9 27 -7 29 2 2 65 26 139 55 74 28 142 55 150 60 22 12 27 -10 29
-125z m-435 72 c-35 -25 -168 -90 -209 -102 -73 -22 -171 -45 -215 -50 -95
-11 -110 -12 -116 -3 -3 5 -1 9 5 9 6 0 41 14 78 31 71 33 254 93 313 103 19
4 51 10 70 15 19 5 48 9 65 10 28 1 28 0 9 -13z m-96 -205 c13 -14 32 -38 42
-52 l20 -27 -28 -18 c-38 -25 -106 -27 -128 -3 -26 29 -28 85 -4 125 21 33 22
33 48 17 15 -9 37 -28 50 -42z m710 30 c27 -17 -69 -84 -136 -94 -37 -6 -47 4
-33 31 19 36 55 53 151 71 3 0 11 -3 18 -8z m-893 -54 c10 -25 12 -103 4 -113
-10 -12 -178 49 -191 70 -8 12 2 26 23 30 8 2 21 6 29 9 82 35 124 37 135 4z
m-524 -14 c-21 -41 -138 -81 -186 -63 -17 6 -14 10 25 27 50 22 163 61 168 57
2 -1 -1 -11 -7 -21z m1448 -93 c20 -91 30 -186 20 -193 -11 -7 -77 -27 -92
-27 -9 0 -20 8 -25 18 -9 17 -8 162 1 192 2 8 8 29 12 47 8 37 43 79 56 66 4
-4 17 -51 28 -103z m-289 55 c-30 -32 -119 -65 -189 -70 -31 -2 -63 -5 -70 -7
-29 -7 -20 21 13 41 43 27 81 38 155 47 31 3 57 7 58 8 1 1 14 3 29 4 l28 2
-24 -25z m-366 -98 c2 -45 -6 -49 -69 -28 -98 33 -92 60 14 57 52 -1 54 -2 55
-29z m508 4 c1 -9 2 -62 3 -119 l1 -102 -45 5 c-25 3 -53 7 -61 9 -91 17 -128
29 -232 75 -25 11 -49 24 -52 29 -5 8 58 21 177 37 49 7 93 26 142 63 40 31
64 32 67 3z m-1679 -11 c-7 -7 -118 -50 -128 -50 -3 0 -5 6 -5 14 0 8 14 17
33 21 17 4 38 12 45 17 6 6 12 7 12 4 0 -4 8 -3 17 3 19 10 40 3 26 -9z m763
9 c11 -18 -19 -38 -69 -45 -45 -6 -55 -1 -39 22 20 30 94 46 108 23z m-489
-42 c-71 -109 -231 -215 -362 -240 -36 -7 -41 -4 -78 41 -42 52 -34 98 19 108
16 3 67 14 114 24 47 10 98 21 113 24 25 4 65 16 117 32 8 3 16 5 17 5 2 0 17
8 35 18 40 22 46 19 25 -12z m532 -36 c10 -7 11 -13 2 -30 -10 -17 -21 -21
-61 -21 -55 0 -63 12 -28 41 22 20 64 25 87 10z m-479 -21 c12 -23 0 -52 -60
-140 -20 -31 -53 -90 -73 -131 -20 -42 -45 -83 -54 -91 -14 -13 -99 -43 -110
-39 -2 0 -22 -7 -45 -15 -50 -18 -102 -20 -141 -5 -22 9 -26 14 -18 28 16 31
134 149 181 182 25 17 65 47 90 66 25 19 56 43 70 52 14 10 52 39 84 65 33 27
61 48 63 48 1 0 7 -9 13 -20z m631 3 c10 -75 3 -81 -78 -74 -14 1 -5 40 15 64
15 17 61 24 63 10z m-386 -114 c14 -53 12 -163 -5 -213 -13 -39 -51 -70 -91
-74 -26 -3 -26 -2 -22 50 8 108 41 246 76 313 10 18 10 18 20 -5 5 -14 15 -46
22 -71z m768 2 c43 -17 84 -31 92 -31 8 0 15 -7 15 -15 0 -20 -42 -57 -58 -50
-8 3 -12 0 -10 -7 8 -24 83 -41 186 -42 56 -1 102 -2 102 -2 0 -1 -17 -13 -37
-26 -51 -34 -150 -133 -182 -183 -14 -22 -28 -42 -31 -45 -11 -10 -59 -117
-75 -167 l-17 -52 -29 21 c-16 12 -29 25 -29 28 0 3 -29 27 -63 53 -133 97
-285 157 -447 175 l-65 8 52 51 c118 116 281 179 451 175 34 -1 62 2 62 6 0
21 -36 54 -90 83 -33 17 -60 36 -60 40 0 5 12 11 28 15 15 3 31 7 37 8 20 5
94 -14 168 -43z m832 -50 c-3 -52 -11 -101 -17 -109 -26 -31 -166 0 -301 66
l-57 28 62 31 c84 41 131 56 223 69 22 4 41 7 42 8 1 0 13 1 28 1 l26 0 -6
-94z m107 54 c12 -28 3 -75 -15 -75 -25 0 -37 24 -37 72 0 46 1 48 20 38 12
-6 26 -22 32 -35z m-2504 -49 c23 -20 72 -105 72 -124 0 -9 -43 -32 -60 -32
-8 0 -28 32 -85 134 -21 37 -24 50 -14 56 15 10 55 -6 87 -34z m1096 8 c26
-10 18 -47 -20 -87 -34 -37 -36 -38 -60 -22 -28 18 -25 25 31 82 36 37 30 34
49 27z m-551 -36 c-8 -49 -41 -113 -80 -153 -19 -20 -37 -34 -40 -31 -3 2 15
40 39 83 23 43 49 90 57 106 19 36 30 34 24 -5z m49 -135 c0 -36 -25 -73 -50
-73 -20 0 -11 77 13 114 16 24 19 26 28 11 5 -9 9 -32 9 -52z m1838 -104 c6
-21 10 -41 9 -46 -1 -4 0 -19 4 -33 10 -45 37 -224 33 -227 -8 -8 -69 60 -101
113 -38 62 -52 104 -61 172 -8 54 1 86 28 111 l21 20 28 -36 c16 -20 34 -53
39 -74z m-223 -25 c16 -16 101 -129 138 -184 17 -25 33 -46 38 -48 4 -2 7 -8
7 -14 0 -5 14 -30 32 -55 42 -62 179 -333 173 -342 -2 -5 -17 -7 -32 -5 -23 2
-174 14 -220 17 -14 0 -20 23 -28 102 -3 33 -8 67 -11 76 -3 9 -7 39 -10 65
-2 27 -6 56 -9 64 -2 8 -7 40 -10 70 -8 65 -10 68 -25 40 -23 -43 -19 -120 12
-240 30 -117 39 -160 32 -171 -7 -13 -417 55 -441 73 -10 8 -37 95 -38 123 0
6 -3 15 -6 20 -4 6 -25 88 -48 183 -32 130 -40 176 -31 186 16 20 71 29 180
31 107 3 236 18 248 30 6 5 35 -7 49 -21z m-1663 -41 c-3 -32 -6 -71 -7 -88
-2 -29 -4 -30 -42 -26 -62 7 -245 4 -294 -4 -25 -4 -74 -15 -110 -25 -36 -10
-67 -17 -69 -15 -7 7 18 70 36 91 36 43 217 124 243 109 5 -4 9 -3 9 2 0 4 54
9 119 11 l120 3 -5 -58z m177 -30 c-37 -45 -48 -45 -51 -3 -4 45 -1 47 44 46
l43 -1 -36 -42z m970 -120 c48 -111 67 -245 44 -305 -8 -20 -37 -17 -87 9 -64
31 -74 88 -43 233 3 14 8 45 12 70 3 25 10 53 15 63 9 18 10 18 24 -1 8 -11
23 -42 35 -69z m-1798 48 c44 -1 45 -9 17 -75 -22 -49 -28 -52 -95 -36 -22 5
-60 11 -85 15 -25 3 -63 11 -85 17 l-40 11 62 29 c59 28 140 47 173 42 8 -1
32 -3 53 -3z m555 -67 c25 -3 42 -10 40 -16 -9 -25 -160 -75 -313 -103 -38 -7
-170 -32 -210 -39 -16 -3 -52 -10 -80 -16 -130 -27 -120 -30 -153 38 -24 50
-27 62 -15 66 29 11 52 6 119 -29 61 -32 104 -39 104 -16 0 12 138 77 202 96
101 29 191 35 306 19z m912 -30 c33 -15 60 -30 60 -34 0 -4 9 -10 19 -13 46
-12 129 -158 143 -252 3 -22 1 -23 -137 -10 -44 4 -88 7 -97 7 -20 -1 -28 8
-66 78 -45 82 -89 230 -75 252 9 16 89 1 153 -28z m-312 -41 c36 -58 50 -101
56 -170 4 -52 4 -53 -24 -53 -38 0 -84 40 -97 84 -15 48 -8 129 13 160 9 14
18 26 19 26 2 0 16 -21 33 -47z m-1491 -17 c67 -24 129 -54 143 -71 10 -12 9
-27 -6 -84 -15 -60 -16 -72 -4 -86 19 -22 54 -36 115 -44 41 -5 50 -10 48 -25
-10 -114 -15 -166 -18 -191 -2 -16 -6 -55 -10 -85 -6 -65 -15 -110 -21 -110
-9 0 -194 135 -294 215 -146 116 -195 183 -194 270 1 63 26 117 84 177 52 53
83 60 157 34z m1134 -89 c12 -17 1 -155 -15 -189 -14 -29 -60 -68 -80 -68 -4
0 -4 26 0 58 7 70 12 137 13 178 1 30 3 31 39 30 20 0 40 -5 43 -9z m-240 -24
c2 -31 -1 -44 -38 -178 -37 -134 -79 -237 -128 -314 l-28 -45 -12 25 c-24 48
-37 130 -32 202 7 94 7 94 46 171 43 83 117 156 161 156 21 0 30 -5 31 -17z
m102 -43 c-1 -59 -11 -166 -19 -215 -2 -16 -13 -41 -23 -55 -21 -29 -67 -58
-77 -48 -19 20 -11 101 23 218 43 151 46 158 75 156 21 -1 23 -5 21 -56z
m-273 30 c0 -30 -87 -80 -139 -80 -47 0 -114 38 -76 43 6 1 53 11 105 23 115
27 110 26 110 14z m549 -108 c12 -40 9 -92 -7 -92 -25 1 -36 23 -38 80 -2 52
0 61 14 58 10 -2 23 -21 31 -46z m928 -24 c34 -17 69 -38 78 -48 15 -16 14
-18 -2 -26 -77 -34 -190 14 -209 90 l-7 29 39 -7 c21 -4 67 -21 101 -38z
m-1595 -9 c9 -11 15 -29 13 -39 -2 -11 -6 -75 -10 -143 -6 -128 -22 -234 -36
-243 -5 -3 -9 -13 -9 -23 0 -23 -64 -84 -117 -111 -23 -12 -64 -24 -91 -27
l-48 -5 0 229 c1 252 5 269 69 330 62 59 190 77 229 32z m968 3 c35 -26 33
-56 -4 -60 -54 -7 -106 31 -106 78 0 15 84 1 110 -18z m164 -41 c14 -26 14
-30 0 -41 -16 -14 -16 -15 -32 23 -22 50 8 66 32 18z m151 -5 c39 -9 82 -18
97 -20 44 -7 67 -25 88 -66 11 -22 20 -41 20 -44 0 -30 -161 -46 -212 -22 -43
21 -108 109 -108 147 0 33 -7 33 115 5z m565 -12 c136 -27 127 -24 107 -35
-41 -23 -143 -33 -186 -18 -16 6 -34 22 -42 37 -7 15 -15 30 -17 34 -4 8 36 3
138 -18z m-240 -63 c17 -33 11 -41 -30 -41 -35 0 -40 3 -40 23 0 13 3 27 7 30
13 14 53 6 63 -12z m956 -34 c3 -19 -72 -107 -90 -107 -7 0 -11 23 -11 57 1
46 4 58 20 64 34 14 78 6 81 -14z m-536 2 c0 -8 -56 -6 -64 2 -3 3 10 5 29 5
19 0 35 -3 35 -7z m290 -6 c0 -5 -21 -30 -46 -58 -40 -44 -67 -74 -151 -171
-22 -26 -133 -150 -193 -218 -67 -74 -161 -167 -200 -198 -85 -66 -258 -140
-358 -154 l-50 -6 -12 58 c-16 74 -18 155 -8 219 5 28 10 61 12 75 14 88 49
197 68 209 21 13 66 27 273 82 61 17 144 39 185 50 41 11 82 22 90 24 8 2 94
24 190 49 183 47 200 51 200 39z m-571 -28 c-7 -46 -74 -81 -116 -62 -29 13
-29 31 0 50 37 24 119 33 116 12z m-1244 -160 c-2 -75 -30 -179 -46 -169 -31
19 -46 152 -24 215 8 20 22 50 31 65 l18 27 11 -34 c7 -18 11 -65 10 -104z
m1057 119 c3 -3 4 -14 1 -25 -5 -16 -14 -19 -69 -19 -35 0 -64 4 -64 8 0 23
114 54 132 36z m796 -241 c-1 -137 2 -277 6 -313 4 -36 9 -78 11 -95 7 -56 52
-219 84 -299 16 -44 29 -81 28 -82 -1 -1 -41 6 -89 16 -48 11 -111 22 -140 25
-29 3 -60 8 -68 10 -8 2 -44 6 -80 10 -36 3 -81 8 -100 9 -19 2 -73 7 -120 11
-47 3 -98 8 -115 10 -16 2 -52 6 -80 9 -95 9 -236 32 -270 43 -23 8 -31 10
-45 12 -20 2 -9 28 28 63 20 19 81 56 136 82 170 79 294 181 485 396 111 125
317 340 326 340 2 0 3 -111 3 -247z m197 143 c18 -29 29 -86 17 -86 -34 0 -92
85 -76 112 8 12 45 -4 59 -26z m-2240 -13 c24 -23 16 -102 -17 -175 l-27 -57
-40 17 c-23 9 -41 21 -41 25 0 5 12 34 26 65 15 31 35 76 45 100 20 46 29 50
54 25z m-792 -42 c48 -51 34 -60 -26 -17 -35 25 -43 36 -35 44 17 17 20 16 61
-27z m2930 7 c60 -64 114 -172 142 -283 18 -72 20 -85 29 -170 7 -60 13 -108
20 -155 3 -19 8 -55 11 -80 3 -25 7 -56 9 -70 3 -14 7 -50 10 -80 3 -30 8 -65
10 -77 7 -33 -6 -29 -62 22 -77 69 -150 192 -166 277 -2 13 -9 41 -14 63 -12
44 -19 83 -29 165 -8 60 -7 302 1 335 2 11 5 30 5 43 1 24 16 29 34 10z
m-1180 -58 c15 -22 14 -60 -2 -135 -21 -92 -23 -110 -24 -165 -1 -65 7 -116
28 -185 9 -27 18 -62 20 -77 l5 -28 -188 0 c-183 0 -189 1 -209 23 -35 38 -47
85 -47 182 0 39 3 82 6 97 9 38 51 128 60 128 5 0 8 6 8 13 0 34 151 139 219
152 13 2 25 6 27 7 1 2 21 4 43 5 30 1 44 -3 54 -17z m-1286 -144 c-25 -20
-114 -58 -134 -58 -26 1 -4 26 64 71 76 52 78 52 87 31 9 -19 6 -26 -17 -44z
m125 1 c0 -12 -11 -49 -25 -82 -26 -65 -47 -142 -72 -275 -21 -106 -78 -326
-105 -402 -11 -32 -22 -90 -25 -130 -3 -40 -7 -89 -10 -108 -2 -19 -7 -62 -11
-95 -9 -94 -23 -188 -39 -265 -3 -14 -8 -38 -11 -55 -2 -16 -17 -78 -31 -137
-20 -81 -30 -108 -42 -108 -9 0 -82 65 -164 145 -179 174 -215 196 -351 204
-50 3 -90 10 -90 14 7 41 297 453 389 551 6 6 30 38 55 71 25 33 48 62 51 65
3 3 29 37 58 75 29 39 59 78 67 88 8 9 14 21 14 25 0 4 11 19 23 33 13 13 26
29 28 34 2 6 30 49 62 97 31 48 57 92 57 97 0 5 4 11 8 13 5 2 32 44 62 93 29
50 58 93 63 97 15 9 40 -20 39 -45z m452 -169 c-22 -99 -43 -157 -88 -248 -60
-120 -158 -304 -165 -310 -3 -3 -19 -31 -36 -62 -29 -56 -30 -57 -37 -30 -9
32 -3 132 11 180 5 18 9 33 9 35 -4 8 41 125 73 190 62 126 128 215 202 275
22 17 41 32 43 32 1 0 -4 -28 -12 -62z m188 5 c17 -54 13 -162 -6 -142 -2 2
-7 36 -10 74 -3 39 -8 80 -10 93 -9 41 11 23 26 -25z m-450 -73 c-10 -27 -49
-84 -69 -101 -32 -27 -45 -32 -84 -36 -49 -6 -60 15 -33 65 22 41 51 62 110
77 61 15 83 14 76 -5z m-498 -8 c10 -16 -47 -106 -126 -200 -45 -53 -85 -98
-89 -100 -13 -5 -21 43 -15 85 13 91 18 118 25 125 3 4 40 23 81 43 41 19 82
39 90 45 19 11 28 12 34 2z m2947 -146 c51 -76 79 -169 79 -260 0 -40 -3 -76
-7 -79 -7 -8 -52 19 -71 42 -21 27 -40 74 -47 116 -3 22 -8 54 -11 70 -3 17
-9 53 -14 80 -6 28 -12 70 -15 95 l-6 44 26 -24 c15 -14 44 -51 66 -84z
m-3248 -33 c16 -60 20 -83 19 -127 0 -53 -20 -136 -33 -136 -7 0 -10 10 -25
80 -5 28 -6 97 -1 120 14 64 20 80 27 80 5 0 11 -8 13 -17z m1313 -98 c8 -43
8 -45 1 -93 -4 -23 -12 -52 -18 -64 -11 -20 -12 -20 -22 -3 -9 16 -5 128 7
180 2 11 5 31 6 45 2 24 2 24 11 -5 5 -16 12 -43 15 -60z m-301 27 c-2 -20 -7
-59 -10 -87 -10 -92 -16 -139 -31 -230 -8 -49 -17 -103 -20 -120 -16 -95 -71
-350 -119 -550 -31 -126 -58 -237 -60 -245 -2 -8 -14 -62 -28 -120 -14 -58
-34 -142 -44 -187 -10 -46 -21 -83 -25 -83 -4 0 -11 17 -17 38 -5 20 -12 51
-17 67 -4 17 -9 41 -10 55 -2 14 -6 45 -9 70 -9 61 -9 271 0 345 4 33 9 155
11 270 4 170 7 212 19 221 8 6 15 14 15 18 0 8 46 71 68 94 6 7 12 17 12 21 0
4 11 21 25 37 14 16 25 32 25 36 0 4 19 38 42 75 45 74 123 233 120 246 -1 4
3 7 8 7 6 0 10 4 10 9 0 5 4 22 10 36 14 37 30 22 25 -23z m438 -9 c42 -11
187 -12 219 -2 32 10 166 14 175 5 6 -6 -27 -57 -52 -79 -42 -39 -128 -66
-290 -92 -27 -4 -60 -12 -72 -16 -20 -7 -23 -5 -24 14 0 12 -2 31 -5 42 -2 11
-6 51 -9 88 -5 66 -5 68 15 57 12 -6 31 -14 43 -17z m797 -158 c83 -13 191
-67 242 -121 30 -32 26 -50 -12 -51 -47 -1 -355 -15 -385 -17 -51 -5 -73 9
-86 56 -7 24 -12 50 -10 58 10 73 99 99 251 75z m500 -39 c73 -22 118 -28 223
-29 48 -1 87 -5 87 -8 0 -9 -135 -56 -185 -64 -45 -8 -148 -8 -184 0 -90 18
-199 61 -228 90 -11 11 -8 15 15 23 41 14 209 6 272 -12z m-820 -76 c21 -45
22 -52 9 -66 -14 -13 -17 -13 -31 3 -22 25 -38 99 -25 112 14 14 20 9 47 -49z
m-720 -207 c-1 -127 -4 -173 -11 -160 -6 9 -12 26 -15 37 -2 11 -7 30 -10 43
-7 31 -7 143 1 197 6 37 17 59 33 60 1 0 2 -80 2 -177z m1964 152 c-1 -11 -4
-33 -8 -50 -18 -84 -20 -108 -20 -210 -1 -126 5 -172 33 -270 22 -76 54 -151
100 -232 17 -29 29 -53 27 -53 -23 0 -85 40 -122 78 -52 53 -78 94 -127 197
-45 92 -63 150 -82 260 -9 52 -7 209 4 236 14 39 84 68 156 66 33 -2 40 -5 39
-22z m-1873 -27 c2 -47 17 -217 21 -247 2 -17 -3 -31 -12 -31 -28 0 -57 220
-37 274 8 19 27 21 28 4z m1623 -40 c-20 -125 -7 -299 31 -413 31 -90 131
-253 172 -278 23 -14 46 -68 34 -80 -10 -10 -72 -3 -156 17 -109 26 -274 52
-400 64 -147 13 -696 4 -746 -12 -8 -3 -41 -7 -74 -10 -33 -3 -73 -7 -90 -10
-132 -24 -202 -30 -209 -17 -7 10 -8 23 -21 161 -4 41 -9 89 -11 105 -11 88
-15 163 -7 168 4 3 33 8 63 11 30 4 66 8 80 11 14 2 41 6 60 9 94 14 364 71
400 84 8 3 24 7 35 9 11 2 70 17 130 34 61 17 117 32 126 34 8 2 73 19 145 39
135 37 318 83 369 92 17 3 32 8 34 10 2 2 12 4 22 4 15 0 17 -6 13 -32z m495
-373 c67 -136 85 -288 46 -382 -19 -47 -22 -49 -62 -30 -81 36 -161 174 -159
275 1 23 -2 42 -5 42 -9 0 9 123 26 175 10 28 24 58 33 68 14 16 18 14 54 -35
21 -29 51 -80 67 -113z m-2022 5 c5 -14 7 -34 3 -45 -6 -18 -9 -17 -29 15 -24
40 -26 56 -8 63 14 5 20 0 34 -33z m-105 -24 c19 -91 12 -261 -15 -356 -2 -8
-7 -27 -11 -41 -7 -24 -53 -60 -86 -66 -8 -2 -25 -1 -37 2 -19 4 -21 10 -17
57 3 29 7 76 9 103 2 28 7 91 11 140 6 79 9 116 13 188 1 16 9 18 63 15 l62
-3 8 -39z m-1382 -106 l29 -20 -29 -69 c-38 -93 -56 -158 -77 -281 -2 -14 -4
-80 -4 -147 l-1 -122 -24 9 c-115 44 -197 123 -189 181 13 83 73 224 142 332
41 64 104 137 119 137 3 0 19 -9 34 -20z m1492 -45 c33 -64 39 -174 13 -225
-24 -46 -106 -59 -99 -15 2 11 5 38 9 60 3 22 7 49 9 60 4 24 19 123 22 148 1
9 2 20 3 23 2 10 28 -21 43 -51z m-1011 -95 c-13 -11 -29 -20 -36 -20 -7 0
-16 -6 -18 -12 -4 -8 -6 -7 -6 4 -2 35 11 48 48 48 l36 -1 -24 -19z m2044
-124 c164 -28 237 -47 242 -63 8 -24 -69 -62 -127 -64 -95 -3 -382 12 -453 24
l-68 12 23 34 c23 34 43 44 123 60 45 9 200 7 260 -3z m508 -62 c48 -9 87 -19
87 -23 0 -8 -81 -41 -101 -41 -9 0 -19 -3 -23 -7 -12 -12 -157 -20 -174 -9
-19 12 9 75 42 93 21 12 40 10 169 -13z m594 -23 c35 -24 72 -111 78 -182 14
-147 14 -150 -14 -161 -14 -5 -50 -12 -79 -15 l-53 -5 19 36 c23 42 22 61 -6
176 -25 102 -28 128 -18 158 8 25 31 23 73 -7z m-142 -76 c14 -13 25 -34 26
-47 0 -13 2 -40 5 -60 3 -34 1 -38 -20 -38 -33 0 -83 44 -91 80 -7 33 20 90
43 90 7 0 24 -11 37 -25z m-2141 -104 c-8 -153 -6 -146 -41 -149 -71 -7 -106
71 -82 185 12 63 37 84 91 81 l38 -3 -6 -114z m-1097 88 c42 -13 90 -69 98
-113 11 -55 4 -70 -35 -76 -32 -5 -36 -9 -53 -61 l-19 -57 -41 9 c-104 23
-188 75 -216 135 -37 78 -23 170 28 176 52 6 206 -2 238 -13z m2925 6 c16 -21
7 -62 -25 -110 -19 -28 -54 -87 -78 -132 -36 -69 -48 -83 -69 -84 -31 -1 -82
-5 -180 -14 -41 -3 -100 -8 -131 -10 -30 -2 -82 -6 -115 -9 -32 -3 -93 -8
-134 -11 -41 -4 -95 -8 -120 -10 -57 -5 -164 -13 -260 -20 -41 -3 -96 -8 -121
-10 l-47 -5 -6 45 c-4 25 -7 46 -6 47 1 2 -3 15 -8 29 -6 14 -13 42 -16 61
l-5 35 92 13 c50 7 99 13 107 15 19 3 107 16 140 20 14 2 40 6 58 9 17 3 44 8
60 10 34 6 115 19 122 21 3 1 28 5 55 10 28 4 59 9 70 11 11 3 36 7 55 10 19
3 42 7 50 9 8 2 35 7 60 10 25 3 81 13 125 21 44 8 96 17 115 20 19 2 46 7 58
10 13 3 43 7 65 11 23 3 43 6 45 8 7 6 38 -1 44 -10z m-715 -9 c21 -21 -86
-53 -118 -35 -20 10 -20 11 -3 30 15 17 27 19 68 15 27 -3 51 -8 53 -10z m795
-103 c63 -20 76 -40 49 -74 -16 -19 -39 -24 -99 -20 -21 1 -22 5 -20 56 1 30
5 55 8 55 3 0 31 -8 62 -17z m-1443 -213 c12 -48 21 -93 21 -99 0 -16 -99 -15
-105 2 -3 6 -6 47 -8 90 -3 62 0 84 15 108 l19 31 19 -22 c10 -12 28 -61 39
-110z m-1254 100 c44 -21 74 -62 80 -110 3 -23 -2 -34 -22 -50 -29 -23 -57
-22 -90 1 -27 19 -77 165 -59 173 23 9 51 5 91 -14z m1113 -75 c21 -61 22 -74
11 -112 -22 -79 -79 -100 -110 -41 -27 50 21 233 60 226 10 -2 25 -29 39 -73z
m-140 35 c12 -20 9 -68 -7 -99 -5 -9 -14 -40 -21 -69 -6 -28 -16 -54 -20 -57
-5 -3 -29 -8 -53 -11 -39 -4 -48 -2 -61 17 -8 12 -13 25 -11 29 2 4 7 42 10
86 7 87 13 98 65 112 56 16 84 14 98 -8z m-1508 -20 c19 -16 21 -22 10 -35
-16 -20 -44 -19 -65 2 -16 16 -16 18 5 35 27 22 22 22 50 -2z m1295 -20 c39
-44 16 -196 -35 -228 -32 -20 -67 1 -81 48 -11 36 -10 49 6 98 31 94 72 124
110 82z m2458 14 c3 -3 2 -14 -3 -23 -5 -9 -19 -40 -31 -68 -12 -29 -24 -53
-26 -53 -7 0 -67 32 -80 42 -9 7 -8 17 2 41 10 24 24 35 61 48 55 20 68 22 77
13z m-411 -30 c5 -5 -41 -93 -88 -171 -25 -41 -41 -18 -43 60 -1 80 3 91 39
106 28 11 84 14 92 5z m-231 -174 c-39 -79 -73 -135 -77 -129 -4 6 -8 40 -9
75 -3 72 17 125 61 165 31 29 87 51 92 38 2 -5 -28 -72 -67 -149z m-2927 125
c38 -29 -13 -66 -53 -38 -17 11 -19 18 -11 34 12 22 37 24 64 4z m2734 -35
c36 -2 62 -8 62 -14 0 -6 -7 -49 -15 -96 -35 -197 -39 -462 -9 -660 17 -116
60 -289 94 -380 11 -30 20 -56 20 -58 0 -2 -12 -1 -27 3 -50 12 -142 63 -240
133 -130 93 -253 151 -353 168 -14 3 -32 7 -40 9 -8 2 -46 7 -85 11 -88 8
-135 27 -173 68 -37 40 -50 64 -57 104 -10 58 -148 522 -176 590 -19 49 -16
51 96 67 22 4 47 8 55 10 8 3 35 7 60 10 25 3 63 8 85 11 71 10 88 12 195 19
58 4 106 8 107 9 3 2 336 -1 401 -4z m-2044 -100 c-1 -5 -2 -19 -2 -29 -3 -27
-33 -61 -60 -66 -43 -8 -51 3 -47 58 2 29 4 62 4 74 l1 22 53 -24 c28 -14 52
-29 51 -35z m-184 35 c21 -11 30 -23 30 -40 0 -43 -65 -24 -70 20 -5 41 -2 42
40 20z m2897 7 c7 -4 16 -22 19 -40 6 -32 6 -32 -35 -32 l-41 0 0 40 c0 35 3
40 23 40 12 0 28 -4 34 -8z m-3303 -63 c10 -28 14 -54 11 -58 -12 -11 -52 46
-49 70 1 13 3 27 3 32 3 23 21 0 35 -44z m1495 17 c33 -11 117 -199 136 -306
10 -58 15 -91 21 -135 3 -27 8 -61 10 -75 9 -65 18 -148 19 -175 0 -23 -4 -30
-20 -30 -71 -2 -207 49 -219 82 -9 21 -9 613 -1 635 7 17 14 17 54 4z m-123
-136 c27 -104 24 -342 -6 -477 -21 -97 -26 -88 -58 122 -23 146 -20 427 5 468
9 16 41 -45 59 -113z m-631 45 c24 -25 53 -62 64 -83 22 -44 41 -108 34 -116
-3 -3 -21 1 -41 10 -44 18 -50 13 -23 -24 26 -38 27 -52 1 -52 -11 0 -20 -7
-20 -15 0 -8 3 -15 8 -15 4 0 20 -11 36 -25 27 -23 28 -27 16 -55 l-12 -30
-35 36 c-43 46 -67 95 -82 162 -14 66 -15 252 -1 252 5 0 30 -20 55 -45z
m2135 -14 c5 -40 3 -51 -11 -60 -15 -8 -19 -7 -24 10 -4 11 -4 37 0 57 13 70
25 67 35 -7z m-1706 41 c2 -4 -5 -46 -16 -92 -11 -47 -21 -94 -24 -105 -22
-113 -54 -225 -64 -225 -4 0 -11 17 -15 38 -5 20 -10 44 -11 52 -9 39 -5 171
6 210 7 25 14 53 16 63 5 30 46 61 84 64 11 1 22 -2 24 -5z m2303 -20 c2 -26
-45 -55 -96 -59 -38 -3 -51 0 -76 21 -16 13 -28 26 -25 29 3 3 27 8 55 12 27
3 50 7 52 8 1 1 21 3 45 4 34 1 44 -3 45 -15z m-2833 -60 c-6 -48 -12 -52 -35
-23 -20 24 -18 51 4 79 17 22 36 -13 31 -56z m345 14 c7 -9 14 -32 16 -52 2
-33 -15 -168 -30 -239 -4 -16 -7 -36 -7 -42 -2 -19 -12 -16 -40 15 -48 51 -65
156 -41 253 24 93 60 116 102 65z m261 -65 c22 -121 32 -307 22 -394 -3 -30
-7 -34 -25 -29 -98 25 -122 121 -77 307 29 122 28 116 39 153 11 35 11 36 12
55 1 22 18 -31 29 -92z m2316 68 c13 -55 19 -148 12 -199 -9 -74 -19 -133 -25
-142 -2 -5 -6 -16 -8 -27 -2 -10 -20 -68 -40 -127 -36 -106 -43 -129 -44 -148
-1 -5 -4 -6 -7 -3 -4 4 -8 89 -10 189 -4 239 11 325 82 446 28 47 32 48 40 11z
m-3506 -69 c23 -17 50 -70 65 -130 1 -3 4 -12 7 -20 8 -20 27 -99 32 -132 2
-14 10 -62 16 -105 7 -43 14 -86 15 -96 3 -14 1 -15 -16 -7 -10 6 -19 16 -19
22 0 6 -7 19 -15 28 -14 16 -91 209 -98 247 -5 26 -26 101 -43 151 -8 23 -14
47 -14 52 0 17 41 11 70 -10z m3342 -64 c13 -27 14 -37 5 -51 -21 -28 -127
-40 -127 -13 0 10 90 97 101 98 3 0 13 -15 21 -34z m-3122 -16 c0 -5 6 -10 13
-10 26 0 116 -98 147 -160 31 -61 31 -63 9 -48 -13 8 -54 34 -91 57 -50 32
-72 52 -87 85 -25 50 -27 86 -6 86 8 0 15 -4 15 -10z m2625 -11 c14 -21 5 -75
-19 -121 -17 -34 -26 -43 -30 -32 -11 29 -6 78 12 121 17 44 26 51 37 32z
m232 -82 c14 -26 17 -64 18 -214 0 -101 -3 -183 -6 -183 -11 0 -48 94 -63 159
-23 100 -6 295 24 276 6 -3 18 -21 27 -38z m-1406 -76 c9 -36 25 -93 34 -126
21 -77 26 -95 31 -125 5 -23 3 -22 -28 11 -43 47 -68 134 -74 252 -6 106 6
102 37 -12z m1594 72 c17 -3 41 -6 55 -7 14 -2 28 -4 32 -4 3 -1 2 -17 -3 -34
-5 -18 -27 -109 -50 -203 -22 -93 -42 -178 -45 -187 -7 -32 -14 -63 -19 -88
-20 -102 -73 -284 -83 -288 -9 -3 -12 17 -13 75 0 43 -2 132 -4 198 -2 66 -7
218 -10 338 l-6 218 58 -6 c32 -4 72 -9 88 -12z m-2759 -40 c22 -21 65 -60 95
-88 65 -60 80 -80 51 -71 -49 16 -62 15 -62 -3 0 -23 37 -71 54 -71 13 0 53
-38 45 -43 -2 -2 -30 -16 -63 -32 -68 -33 -99 -74 -93 -122 1 -18 -1 -33 -5
-33 -17 0 -41 54 -43 96 -2 45 15 76 61 102 17 11 17 13 3 24 -86 70 -91 75
-80 96 16 30 13 72 -9 117 -37 76 -18 87 46 28z m-170 -111 c47 -25 88 -99 82
-148 -3 -27 -7 -24 -72 61 -38 50 -74 95 -79 102 -7 9 -2 10 21 4 16 -5 38
-13 48 -19z m546 -6 l27 -33 -25 -22 c-14 -12 -22 -27 -18 -34 5 -8 3 -8 -7 1
-13 12 -21 122 -9 122 3 0 17 -15 32 -34z m118 -60 c0 -53 -25 -82 -39 -45 -4
14 -4 37 0 54 5 16 9 31 9 32 0 2 7 3 15 3 11 0 15 -12 15 -44z m115 -11 c14
-14 25 -29 25 -33 0 -5 -22 -15 -50 -23 -27 -9 -50 -12 -50 -7 0 11 39 88 45
88 2 0 16 -11 30 -25z m-845 -190 c52 -107 113 -265 101 -265 -14 0 -131 155
-131 174 0 3 -9 25 -19 49 -26 57 -55 190 -44 201 7 7 31 -34 93 -159z m897
53 c21 -11 43 -71 30 -84 -5 -5 -97 31 -97 38 0 2 -4 18 -9 36 l-10 33 32 -6
c18 -3 42 -11 54 -17z m-726 -200 c35 -54 101 -200 93 -207 -8 -9 -90 88 -119
140 -24 45 -55 136 -55 164 0 13 41 -36 81 -97z m884 62 c16 -50 14 -60 -10
-60 -13 0 -31 7 -39 16 -15 15 -22 55 -11 66 11 11 55 -5 60 -22z m698 13 c4
-2 20 -6 35 -8 42 -6 64 -12 107 -28 22 -8 56 -20 75 -27 19 -7 39 -16 44 -21
25 -22 -163 -23 -246 -1 -72 19 -146 67 -148 94 0 8 119 0 133 -9z m1286 -37
c27 -33 21 -64 -46 -239 -10 -26 -22 -46 -27 -44 -15 5 -10 98 9 167 37 136
41 144 64 116z m-2363 -94 c17 -12 24 -40 15 -64 -9 -22 -10 -21 -26 17 -9 22
-19 43 -22 48 -5 9 19 9 33 -1z m-199 -28 c1 -10 6 -62 9 -114 5 -82 4 -98
-10 -110 -15 -11 -21 -10 -44 7 -75 55 -76 205 -3 232 34 12 44 9 48 -15z
m412 -16 c57 -35 149 -116 162 -141 10 -17 7 -18 -23 -13 -95 15 -144 28 -155
39 -6 6 -23 44 -36 84 -29 81 -27 82 52 31z m313 -59 c31 -16 38 -23 27 -30
-38 -24 -109 0 -109 37 0 20 34 17 82 -7z m224 -59 c64 -29 77 -50 30 -50 -20
0 -165 46 -175 55 -1 2 0 8 4 14 12 20 75 11 141 -19z m187 -80 c27 -13 35
-34 18 -44 -5 -4 -28 6 -51 21 -34 23 -38 28 -23 34 20 7 19 8 56 -11z m-650
-17 c-9 -27 -34 -43 -66 -43 -41 0 -30 19 23 41 25 10 46 18 47 18 1 1 0 -7
-4 -16z m-612 -131 c59 -127 116 -292 101 -292 -8 0 -43 51 -80 114 -28 49
-59 146 -66 209 -7 62 6 53 45 -31z m1712 31 c18 -10 44 -27 58 -38 14 -11 36
-27 49 -35 12 -8 29 -21 36 -28 30 -29 128 -81 175 -93 27 -7 49 -16 49 -20 0
-9 -38 -19 -73 -19 -28 0 -29 -1 -22 -41 l7 -42 -43 6 c-23 3 -67 18 -98 34
-54 28 -55 29 -56 73 -3 91 -28 118 -138 143 -77 17 -82 20 -73 42 13 35 81
44 129 18z m-1586 -8 c31 -22 46 -76 39 -147 -3 -33 -8 -63 -11 -67 -18 -18
-65 86 -80 178 -3 19 -8 38 -11 43 -9 14 40 9 63 -7z m923 -56 c97 -19 414
-134 449 -163 8 -6 16 -10 18 -8 7 6 84 -22 95 -35 8 -10 8 -12 -3 -9 -17 6
-257 76 -279 81 -8 2 -28 8 -45 13 -16 6 -102 31 -190 56 -211 62 -225 66
-225 75 0 10 111 4 180 -10z m1294 -245 c4 -97 9 -108 53 -129 19 -9 33 -18
31 -20 -2 -2 -23 -6 -48 -10 -49 -7 -70 -20 -70 -41 0 -8 -2 -14 -4 -14 -16 0
-211 80 -214 88 -6 19 40 20 83 2 24 -10 57 -21 73 -23 28 -5 30 -3 21 17 -12
25 -68 66 -92 66 -8 0 -19 5 -22 10 -4 6 -10 8 -15 5 -5 -3 -11 -1 -14 4 -4 5
21 9 56 9 90 0 95 0 112 18 11 10 16 34 16 72 0 51 1 55 16 41 11 -11 16 -40
18 -95z m-2294 -95 c0 -28 -8 -34 -40 -29 -37 4 -56 75 -22 82 29 7 62 -21 62
-53z m150 -60 c0 -13 -80 -15 -81 -2 -7 82 -1 89 41 48 22 -21 40 -42 40 -46z
m-765 26 c46 -7 80 -30 90 -62 6 -22 4 -22 -42 -18 -116 10 -241 41 -226 56 4
4 26 10 47 13 22 4 41 8 42 9 6 6 52 7 89 2z m-700 -31 c29 -19 32 -40 7 -48
-20 -7 -71 2 -122 22 l-24 9 29 16 c39 21 79 21 110 1z m1903 -153 c2 -22 -1
-41 -5 -41 -9 0 -29 42 -39 85 -7 29 -7 30 17 14 18 -12 25 -27 27 -58z
m-1948 -6 c36 -4 71 -8 78 -8 22 -1 7 -20 -31 -40 -52 -27 -118 -26 -146 2
l-22 22 22 20 c12 10 24 17 28 15 3 -2 35 -7 71 -11z m840 -96 c0 -11 -56 -40
-63 -33 -10 10 5 43 22 47 20 4 41 -2 41 -14z m-206 0 c73 -20 -3 -33 -89 -15
-11 3 -24 5 -30 5 -5 1 -3 6 5 11 20 13 66 12 114 -1z m-180 -14 c-9 -21 -40
-28 -66 -13 -22 12 -21 13 22 19 25 3 46 7 47 7 1 1 0 -5 -3 -13z m-194 -20
c8 -2 16 -4 18 -5 1 -2 7 -3 14 -4 22 -2 19 -24 -4 -32 -33 -11 -81 -6 -97 11
-20 20 4 49 33 40 12 -3 28 -8 36 -10z m512 -108 c0 -4 -3 -28 -7 -53 -8 -53
-31 -57 -54 -10 -13 28 -12 31 15 53 28 22 45 26 46 10z"/>
</g>
</svg>
