<svg xmlns="http://www.w3.org/2000/svg" viewBox="0 0 92.69 104.79"><defs><style>.cls-1{fill:none;stroke:#baa591;stroke-miterlimit:10;stroke-width:1.5px;}</style></defs><g id="Слой_2" data-name="Слой 2"><g id="Layer_4" data-name="Layer 4"><path class="cls-1" d="M83.38,30.64l0,41.81.08-2V61.87a6.32,6.32,0,0,1,6.33-6.32h2.1c.09,0-.09,0,0,0v7.91s0,0,0,0V74l-12,14.24v-.3c-1.38,1.32-2.27,2.47-4.19,2.94"/><path class="cls-1" d="M54.22,90.6V88.76a11.11,11.11,0,0,1-4.47-8.91v-7.5"/><polyline class="cls-1" points="50.48 104.79 50.48 90.81 85.92 90.81 85.92 104.79"/><path class="cls-1" d="M9.31,30.64l0,41.81-.09-2V61.86a6.31,6.31,0,0,0-6.32-6.31H.78c-.09,0,.08,0,0,0v7.91s0,0,0,0V74l12,14.24v-.3a9.49,9.49,0,0,0,4.48,2.81"/><path class="cls-1" d="M38.46,90.6V88.75a11.07,11.07,0,0,0,4.48-8.9v-8"/><polyline class="cls-1" points="42.21 104.79 42.21 90.81 6.76 90.81 6.76 104.79"/><path class="cls-1" d="M60.36,6.59A5.59,5.59,0,0,0,53.18.94a9.61,9.61,0,0,0-7.07,8.79h0l0,7.53,7.34-1.72h0A9.61,9.61,0,0,0,60.36,6.59Z"/><path class="cls-1" d="M32,6.59A5.59,5.59,0,0,1,39.18.94a9.61,9.61,0,0,1,7.07,8.79h0l0,7.53-7.34-1.72h0A9.61,9.61,0,0,1,32,6.59Z"/><rect class="cls-1" x="6.87" y="17.56" width="78.62" height="13.18"/><rect class="cls-1" x="9.05" y="30.74" width="74.27" height="41.56"/><rect class="cls-1" x="39.82" y="17.56" width="12.72" height="13.18"/><rect class="cls-1" x="40.17" y="30.74" width="12.02" height="41.56"/><line class="cls-1" x1="13.21" y1="37.28" x2="26.6" y2="37.28"/><line class="cls-1" x1="13.21" y1="43.66" x2="19.75" y2="43.66"/></g></g></svg>