<svg xmlns="http://www.w3.org/2000/svg" viewBox="0 0 109.76 75.53"><defs><style>.cls-1{fill:none;stroke:#baa591;stroke-miterlimit:10;stroke-width:1.5px;}</style></defs><g id="Слой_2" data-name="Слой 2"><g id="Layer_4" data-name="Layer 4"><path class="cls-1" d="M13,69.21V16.89a2.82,2.82,0,0,1,2.82-2.82H92.74"/><polyline class="cls-1" points="56.46 63.21 18.14 63.21 18.14 19.52 56.46 19.52"/><path class="cls-1" d="M56.18,70.39h-7c-1.6,0-2.94,0-3.36-1.44H.75V72s3.7,2.77,6.42,2.77H67.36"/><path class="cls-1" d="M73.79,13.7V10.82A10.08,10.08,0,0,1,83.86.75h3.92A10.08,10.08,0,0,1,97.84,10.82V13.7"/><rect class="cls-1" x="56.1" y="14.31" width="52.91" height="60.47"/><path class="cls-1" d="M67.57,20.59V10.82A10.08,10.08,0,0,1,77.64.75h3.91A10.08,10.08,0,0,1,91.62,10.82v9.77"/><polyline class="cls-1" points="66.52 50.85 75.5 41.85 66.52 32.86"/><line class="cls-1" x1="74.06" y1="41.85" x2="35.45" y2="41.86"/><line class="cls-1" x1="97.84" y1="14.03" x2="97.84" y2="74.53"/><line class="cls-1" x1="103.43" y1="14.03" x2="103.43" y2="74.53"/></g></g></svg>