<svg xmlns="http://www.w3.org/2000/svg" viewBox="0 0 334.21 126.21"><defs><style>.cls-1{fill:#fff;}</style></defs><g id="Слой_2" data-name="Слой 2"><g id="Nautical_rope_knots" data-name="Nautical rope knots"><path class="cls-1" d="M138.28,56.69l-.8.67.88-.55Z"/><path class="cls-1" d="M140.72,60.33c-3.21,4.55-8,6.35-9.94,6.48l.16-.29c3.88-.83,7.77-4.2,9.75-6.24l-.35-.53a19.16,19.16,0,0,1-8.74,5.36l.08-.18a15.46,15.46,0,0,0,6.92-5.14,21.14,21.14,0,0,1-6.47,3.81,33.94,33.94,0,0,0,1.1-5.61A9.25,9.25,0,0,0,137,54.8l-.55-.82a12.06,12.06,0,0,1-3.09,2.51c.17-2,.3-3.93.53-5.79,0-.14.05-.3.07-.43l-1-1.49c0,.18-.07.38-.1.58-1.5.41-4.51,2.15-5.41,4.63a11.2,11.2,0,0,1,5.26-3.55q-.15,1.14-.3,2.37c-2.66,2.15-5.25,5.75-8.07,8.21A11.27,11.27,0,0,1,121,63.11c.41-1.92.79-3.85,1.25-5.66l.13-.43a43.69,43.69,0,0,1,1.71-4.81,27.16,27.16,0,0,1,7.39-4.83,19.92,19.92,0,0,0-6.39,2.67,12.87,12.87,0,0,1,5-5.54l-.55-.82a12.91,12.91,0,0,0-5,5.28,14,14,0,0,0-5.78,1,13.24,13.24,0,0,0-5.65,4.65,15.18,15.18,0,0,0-5.93.32A13.43,13.43,0,0,0,101,59a14.52,14.52,0,0,0-5.72-.28L95,59.8l.27-.07a11.67,11.67,0,0,1,4.88.06,16.84,16.84,0,0,0-3.43,4.68,5.75,5.75,0,0,1,.22.84,8.31,8.31,0,0,1,.25.89,39.63,39.63,0,0,1,2.6-4.12A27.28,27.28,0,0,1,108.21,59c-.41,0-4.23,0-6.93,1.22a13.18,13.18,0,0,1,6.3-4.34,13.55,13.55,0,0,1,4.78-.4,20.18,20.18,0,0,0-3,5.22l-.23.56c-1.55.11-5,1-6.37,3.33a11.07,11.07,0,0,1,6-2.31l-.84,2.28a26.35,26.35,0,0,0-4.78,3c-1.62,1.16-3.29,2.31-4.9,3.24-.24.14-.48.26-.72.38v.47a.39.39,0,0,1,0,.13l.45.36c.19-.13.39-.25.57-.39,2.22-1.63,4.24-3.84,8.9-5.76-.06.14-.11.27-.16.41-.37,1-.75,1.93-1.17,2.9l-.33.77a26.43,26.43,0,0,1-6.16,3.65l.15.17a49,49,0,0,0,5.17-2,22.91,22.91,0,0,1-2.8,4.39l-.5.31a17.8,17.8,0,0,1,1.12,2.76,17.79,17.79,0,0,0,6.17-1,14.42,14.42,0,0,0,5.71-3.58.54.54,0,0,0,.15,0c6.5-.06,10.86-2.63,13.59-6a.7.7,0,0,0,.16,0c6.51-.86,10.57-4,12.89-7.61ZM109.8,62.75c.06-.12.12-.27.18-.4.71-1.62,1.47-3.11,2.28-4.57a23.22,23.22,0,0,1,3.38-2.05,20.46,20.46,0,0,1,4.59-1.87,19.72,19.72,0,0,0-6.71,1.88,13,13,0,0,1,5.74-4.91,11.53,11.53,0,0,1,4.65-.93,18.45,18.45,0,0,0-2.35,5.52c0,.18-.1.38-.16.58-1.57.18-4.75,1.6-6,3.93A11.14,11.14,0,0,1,121.11,57c-.19.75-.39,1.52-.59,2.32a38.59,38.59,0,0,0-4.43,3.48,41.09,41.09,0,0,1-4.56,3.7A10.37,10.37,0,0,1,108,68.28C108.58,66.46,109.14,64.53,109.8,62.75Zm4.37,11a15.15,15.15,0,0,1-10.92,4.06l.21-.25c3.87,0,8.34-2.29,10.69-3.86l.3-.2A3.15,3.15,0,0,1,114.17,73.7Zm-.24-.64a18.74,18.74,0,0,1-9.55,3.22l.12-.16a15.57,15.57,0,0,0,7.76-3.41,13,13,0,0,1-2.11,1,22.69,22.69,0,0,1-4.94,1.27,36,36,0,0,0,2.26-5.24,8.44,8.44,0,0,0,4.4-2.24c2.08-1.79,3.85-4.22,8.28-6.62,0,.15-.08.29-.11.43-.27,1-.53,2-.85,3l-.25.79a27.25,27.25,0,0,1-6.28,4.51l-.92.47,1-.34A40.31,40.31,0,0,0,118.27,67a23.46,23.46,0,0,1-2.37,4.69C115.26,72.18,114.6,72.64,113.93,73.06Zm13.87-5.22a15.73,15.73,0,0,1-10.56,5.23l.18-.27a17.52,17.52,0,0,0,5.82-2,34.94,34.94,0,0,0,4.53-3l.28-.24C128,67.65,127.88,67.76,127.8,67.84Zm-.31-.61a25.73,25.73,0,0,1-4.88,3,15.6,15.6,0,0,1-4.39,1.22l.1-.18a15.4,15.4,0,0,0,7.45-4.22,22.72,22.72,0,0,1-2,1.18A18,18,0,0,1,118.92,70a32,32,0,0,0,1.75-5.41,9.21,9.21,0,0,0,4.14-2.7c1.85-2.07,3.36-4.64,7.45-7.57,0,.16,0,.3-.06.45-.12,1-.3,2-.49,3.09l-.15.82a27.63,27.63,0,0,1-5.73,5.24c-.52.37-.87.57-.87.57a8,8,0,0,0,.94-.45,44.6,44.6,0,0,0,5.23-3.37,21.73,21.73,0,0,1-1.84,4.92C128.71,66.18,128.11,66.72,127.49,67.23Z"/><path class="cls-1" d="M79.91,83.67a12.1,12.1,0,0,1-5.09-.07l.24-.21a14.77,14.77,0,0,0,4.53-.16c-.2-.28-.37-.57-.55-.86a13.75,13.75,0,0,1-2.91-.06l.13-.14a19.18,19.18,0,0,0,2.55-.23c-.16-.28-.3-.57-.43-.86-.42,0-.83,0-1.26,0,.29-.38.56-.77.82-1.16a1.27,1.27,0,0,1-.06-.18A16.68,16.68,0,0,1,77.15,77a32.67,32.67,0,0,1-5.91,2.2l-1,.26,1-.12a47,47,0,0,0,6-1.3A24.17,24.17,0,0,1,73.87,82c-.72.33-1.44.63-2.17.88a18.58,18.58,0,0,1-9.77,1.09l.14-.13a15.32,15.32,0,0,0,8.11-1.67A22.64,22.64,0,0,1,68,82.6a21.92,21.92,0,0,1-5,.17,39.23,39.23,0,0,0,3.23-4.62A8.83,8.83,0,0,0,71,76.92a53.68,53.68,0,0,1,6.09-3.27c0-.24,0-.48.07-.72a67.55,67.55,0,0,1-6.29,3,11.41,11.41,0,0,1-3.85.93c1-1.69,2-3.42,3-5l.26-.35a38.21,38.21,0,0,1,3.37-3.92l.91-.33A15.28,15.28,0,0,1,74,65.6a18.24,18.24,0,0,0-4,4.13l-.35.49c-1.56-.26-5.16,0-7,1.88a11.31,11.31,0,0,1,6.4-1c-.42.66-.87,1.33-1.33,2-3.39.71-7.24,3-10.75,4.18a11.92,11.92,0,0,1-3.89.7c1.06-1.64,2.13-3.29,3.27-4.82l.28-.34a47.3,47.3,0,0,1,3.57-3.76,26.55,26.55,0,0,1,9.09-1.3,20.91,20.91,0,0,0-7.22-.28,13.85,13.85,0,0,1,7.33-2.91,12.48,12.48,0,0,1,4.51.62c-.07-.34-.14-.69-.19-1a13.14,13.14,0,0,0-4.44-.56,14.2,14.2,0,0,0-7.21,2.69A15.15,15.15,0,0,0,56,65a13.18,13.18,0,0,0-7.37,2.37,14.27,14.27,0,0,0-6-1.66,14.23,14.23,0,0,0-7.5,2.07,14,14,0,0,0-6-1.81v1A12.57,12.57,0,0,1,34,68.23a17.71,17.71,0,0,0-4.86,3.84v1.8A37.1,37.1,0,0,1,33,70.36a26.52,26.52,0,0,1,9.25-.52,20.9,20.9,0,0,0-7.23-.9,13.84,13.84,0,0,1,7.63-2.26,12.66,12.66,0,0,1,4.89,1.17,17.41,17.41,0,0,0-4.71,4l-.4.46c-1.54-.39-5.18-.47-7.21,1.28a11.24,11.24,0,0,1,6.49-.43L40.24,75c-3.45.43-7.48,2.37-11.06,3.31v1c2.54-1,5.07-2.67,10.12-3.08l-.27.34-2,2.43-.52.64a34.28,34.28,0,0,1-7.36,1.94v.14c2.08,0,4.77-.4,6-.56a27.84,27.84,0,0,1-3.81,3.48c-.74.25-1.49.46-2.23.63v.63l.33-.08-.33.14v1.12a.62.62,0,0,0,.12.09c5.83,2.07,10.4,1.64,14.09-.35,0,0,.07.07.12.08,5.91,2,10.52,1.2,14.13-.84,0,0,.07.06.13.08,6,1.66,10.62.78,14.16-1.52a.49.49,0,0,0,.13.08,19,19,0,0,0,8.1.3c.25-.05.48-.12.71-.18C80.54,84.46,80.22,84.07,79.91,83.67ZM42.63,73.94c.09-.11.2-.23.3-.33A38.29,38.29,0,0,1,46.66,70a26.39,26.39,0,0,1,9.19-.87,18.88,18.88,0,0,0-7.23-.6A13,13,0,0,1,56.12,66,13.73,13.73,0,0,1,61,66.9a18.65,18.65,0,0,0-4.52,4.19l-.38.46c-1.56-.38-5.18-.29-7.14,1.58a10.75,10.75,0,0,1,6.46-.71c-.46.63-.94,1.27-1.44,1.94-3.42.62-7.37,2.7-10.93,3.71a11.25,11.25,0,0,1-3.91.58C40.3,77.07,41.43,75.42,42.63,73.94Zm.72,11.77a15.11,15.11,0,0,1-11.21.7l.26-.19c3.6,1,8.31.18,11-.57l.33-.1Zm0-.7a18.58,18.58,0,0,1-9.74.26l.15-.13a15.3,15.3,0,0,0,8.16-1,19.9,19.9,0,0,1-2.23.28,21.72,21.72,0,0,1-4.95-.25,41.26,41.26,0,0,0,3.59-4.33,8.81,8.81,0,0,0,4.82-.81c2.5-1.1,5-2.73,10-3.45l-.26.36c-.63.85-1.25,1.69-1.86,2.53l-.51.67a32.11,32.11,0,0,1-7.29,2.16l-1,.17,1,0c2.08-.11,4.76-.52,6-.72a27.72,27.72,0,0,1-3.69,3.58A20.21,20.21,0,0,1,43.32,85ZM57.55,85c-4.76,2.38-9.5,1.82-11.22,1.11l.25-.19c3.65,1,8.36-.22,11-1l.33-.11Zm0-.69c-3.73,1.09-7.42,1.32-9.76.63l.14-.13A15.51,15.51,0,0,0,56,83.45a22.29,22.29,0,0,1-7.2.34,35.53,35.53,0,0,0,3.43-4.5,9.19,9.19,0,0,0,4.79-1c2.47-1.12,4.86-3,9.85-3.86l-.24.36L64.91,77.4l-.48.68a30.33,30.33,0,0,1-7.21,2.5l-1,.2,1-.06a47.75,47.75,0,0,0,6-1,27.68,27.68,0,0,1-3.54,3.79A18.56,18.56,0,0,1,57.5,84.26Zm14.29-.74a15.27,15.27,0,0,1-11.23,1.66l.25-.2c3.7.71,8.39-.52,11-1.52l.33-.12Z"/><path class="cls-1" d="M192.36,57.28l-.09.11-.83-.66ZM198,49.61l-1.07,1.44-.43.07c-1.85.39-3.77.9-5.7,1.38a12.64,12.64,0,0,0,3.49,2.16l-.59.79a10,10,0,0,1-4.39-2.58,30.68,30.68,0,0,1-5.71.81,18.22,18.22,0,0,0,3.89,3.6,22.5,22.5,0,0,0,2,1.32,16.21,16.21,0,0,1-7.34-4.91H182a15.54,15.54,0,0,0,3.16,3.45,28.14,28.14,0,0,0,5,3.12l-.37.51a39.53,39.53,0,0,1-4.9-2.8,18,18,0,0,1-4.52-4.42l-.33,0a14.46,14.46,0,0,0,3.1,3.72,18,18,0,0,0,6.61,3.59l-.66.9a17.19,17.19,0,0,1-6.36-3A20.69,20.69,0,0,1,177.32,52a.44.44,0,0,1,0-.15l.76-.82.36.14-.32-.19.43-.46c.69.42,1.4.81,2.14,1.17a25.85,25.85,0,0,0,5.35.09,44.44,44.44,0,0,1-5.08-3.86l.1-.1a29.22,29.22,0,0,0,7,3.72l.83-.12c1-.15,2.1-.37,3.14-.58l.44-.09c-4.26-2.95-7.28-3.51-9.87-4.6l.67-.72a43.13,43.13,0,0,0,5.48,2.51A43.29,43.29,0,0,1,194,50.4l2.37-.49c-.9-1.51-3.36-3.12-5.28-3.86,2.66.08,5.46,2.31,6.36,3.66Zm3.63-4.93-.59.79c-1.95-1.81-4.43-2.53-7.11-3a20.84,20.84,0,0,1,4.86,5.25,21.16,21.16,0,0,0-3.86-3.33,27.22,27.22,0,0,0-3.43-2.18c-1.7-.09-3.43-.12-5.21,0l1.22-1.32a21,21,0,0,1,6.14.44A14.48,14.48,0,0,0,191,37.05l.66-.72a15.46,15.46,0,0,1,3.11,5.29A13.7,13.7,0,0,1,201.63,44.68Z"/><path class="cls-1" d="M191.67,36.33a14.51,14.51,0,0,0-6.76-3.91,17.42,17.42,0,0,0-1-2.65,4,4,0,0,1-.54,1.05c.15.36.3.72.43,1.1a10.93,10.93,0,0,0-1.15-.35,4.4,4.4,0,0,1-2.43.9c.45.05.89.11,1.33.19a28.34,28.34,0,0,1,7,6.35,21,21,0,0,0-4.5-5.84,14.28,14.28,0,0,1,7,3.88Z"/><path class="cls-1" d="M186.9,40.86c-.82-1.37-3.34-4.09-6.08-4.33a11.6,11.6,0,0,1,5,4.42l-2.44.24c-2.41-1.92-6-3.4-8.95-5.06a5.4,5.4,0,0,1-.25.67,25.74,25.74,0,0,1,7.66,4.54l-.44,0c-1.05.11-2.1.2-3.16.27l-.84.05A28.6,28.6,0,0,1,172.55,39l-.28.29c1.16,1,2.36,2,3,2.55a27.51,27.51,0,0,1-5.22-.39l-.12-.07-.23.17-.38.29-.1.08,0,0,0,0a4,4,0,0,1-1,.44l-.29,0a3.36,3.36,0,0,1-.56.31c2.53,5,6,7.84,10,9.13l.76-.82a16,16,0,0,1-8.69-7.85l.32.06c1.79,3.34,5.91,6.3,8.41,7.74l.43-.46a19.54,19.54,0,0,1-7.31-7.07l.19,0a16.38,16.38,0,0,0,6.65,5.37,15.27,15.27,0,0,1-1.84-1.47,22.19,22.19,0,0,1-3.44-3.84,38.41,38.41,0,0,0,5.72-.37,9.13,9.13,0,0,0,4.09,3l.67-.72A11,11,0,0,1,180,42.94c1.93-.26,3.93-.59,5.84-.78l.45,0,1.22-1.32Z"/><path class="cls-1" d="M163.66,18.23l-.1-.07a7.94,7.94,0,0,0-4.25-1.4A12,12,0,0,1,163,18.63,3.51,3.51,0,0,1,163.66,18.23Z"/><path class="cls-1" d="M160.61,21.19a3.65,3.65,0,0,1,.63-.78,30.05,30.05,0,0,0-4.05-1.55c-2.07-.47-4-1.05-5.86-1.36l-.45.87a27.14,27.14,0,0,1,4.44.57A15.7,15.7,0,0,1,160.61,21.19Z"/><path class="cls-1" d="M170.21,15.47a14.71,14.71,0,0,0-3.14-2.07A20.06,20.06,0,0,0,162.56,12,17.88,17.88,0,0,0,160,8.79a11.43,11.43,0,0,0-3-2.3l-.45.87a14,14,0,0,1,4.6,4.24,14.66,14.66,0,0,0-7,.33l-.82,1.59a20.38,20.38,0,0,1,5.58-.79c.62.24,1.31.53,2.06.87s1.46.83,2.24,1.34c1.44.89,1.8.6,2.85,1.7l0,0-.18-.23a18.43,18.43,0,0,0-4.18-3.53,18.73,18.73,0,0,1,4.57,1.31,13.28,13.28,0,0,1,3,1.92l.17,0c.13,0,.24,0,.36,0A3.52,3.52,0,0,1,170.21,15.47Z"/><path class="cls-1" d="M157.6,22.3l-.8.2c-1.3-.37-2.72-.72-3.94-1.12s-2.29-.8-3-1l-.07.13c1.76.75,4,2,5.13,2.44-1.67.43-3.27.85-4.79,1.08-.66-.16-1.33-.24-2-.37l-.29.56.29.05h-.32l-.51,1a.93.93,0,0,0,0,.13,21.31,21.31,0,0,0,3,3.26,3.32,3.32,0,0,1,1.12-.72l.07-.09a9.35,9.35,0,0,1-1.77-2l.27,0a14.31,14.31,0,0,0,1.83,1.7,4.12,4.12,0,0,1,.91-.52,17.78,17.78,0,0,1-1.38-1.45l.17,0a18.34,18.34,0,0,0,1.65,1.32,4.93,4.93,0,0,1,1.16-.18,21.41,21.41,0,0,1-1.57-1.47c1.69-.44,3.42-.94,5.27-1.49l.42.37a3.6,3.6,0,0,1,1.78-2c0-.13.08-.27.13-.4Z"/><path class="cls-1" d="M149.84,20.39l-.07.13c-.29-.14-.57-.28-.82-.42Zm4.36-8.46-.82,1.59-.46.14a27.53,27.53,0,0,0-5.32,2.58,16.29,16.29,0,0,0,3.73,1.26l-.45.87a11.68,11.68,0,0,1-4.56-1.32l-4.53,3a19.3,19.3,0,0,0,3.88,1.7l1.81.63a18.07,18.07,0,0,1-3-.36,24.05,24.05,0,0,1-3.74-1.28l-.15.09a20.53,20.53,0,0,0,3.23,1.64,42.29,42.29,0,0,0,4.36,1.24l-.29.56c-1.13-.18-2.57-.63-4.12-.95a12.75,12.75,0,0,1-2.24-.81,8.76,8.76,0,0,1-2.14-1l-.25.12a12.47,12.47,0,0,0,3.19,1.74,10.17,10.17,0,0,0,2.49.65,14,14,0,0,0,3,.32l-.51,1a10.73,10.73,0,0,1-2.54-.05,11.05,11.05,0,0,1-2.52-.46,9.66,9.66,0,0,1-1.26-.53,12.89,12.89,0,0,1-1.36-.58c-.94-.43-1.83-1.19-2.94-1.85,0,0-.06-.08-.08-.1l.19-1.1.31-.1-.3,0,.11-.62c.68-.1,1.33-.16,2-.22,1.36-.68,2.76-1.55,4.23-2.48-1.23-.1-3.69-.55-5.61-.8l0-.14c.78-.05,1.9.05,3.18.06s2.75-.1,4.06-.11l.71-.41,2.77-1.54.41-.22a15.18,15.18,0,0,0-6.33-.78,28.36,28.36,0,0,0-4.4.76l.17-1c1.86-.21,3.88-.27,6-.44a21,21,0,0,1,6,.74c.77-.34,1.54-.64,2.33-.91C151.13,11,147.79,10,145.56,10a8.12,8.12,0,0,1,4.56.19,10,10,0,0,1,3.45,1.91ZM157,6.49l-.45.87a15.17,15.17,0,0,0-9.77-1.81A21.23,21.23,0,0,1,152,7.84a31.54,31.54,0,0,1,2.55,2,25.84,25.84,0,0,0-2.82-1.68c-1-.4-1.94-.75-2.86-1a22.48,22.48,0,0,0-2.62-.67c-.83-.11-1.58-.18-2.25-.22a19.62,19.62,0,0,0-5.09,2.4l.31-1.76a14.47,14.47,0,0,1,6.55-2.37,14.71,14.71,0,0,0-5.66-2.7l.17-1a17,17,0,0,1,7,3.58A16,16,0,0,1,157,6.49Z"/><path class="cls-1" d="M137.57,16.29l0,.14c-.33,0-.64-.09-.93-.14Zm1.66-9.37-.31,1.76-.4.27a37.15,37.15,0,0,0-4.34,4,12.23,12.23,0,0,0,4,.12l-.17,1a9.55,9.55,0,0,1-4.79,0c-1.27,1.47-2.47,2.89-3.69,4.13a25.26,25.26,0,0,0,4.41.58,16.64,16.64,0,0,0,2,.08,11.33,11.33,0,0,1-3.11.47,13.94,13.94,0,0,1-4.17-.24l-.14.11a11,11,0,0,0,3.77.75,26.57,26.57,0,0,0,4.71,0l-.11.62a36.5,36.5,0,0,1-4.39.23,13.49,13.49,0,0,1-5-.62l-.2.19a11.78,11.78,0,0,0,3.71.91,16.83,16.83,0,0,0,5.86-.65l-.19,1.1a14.11,14.11,0,0,1-5.28.94,12.18,12.18,0,0,1-3.06-.43,19,19,0,0,1-3.24-1,.45.45,0,0,1-.1-.09l-.1-1.11.26-.16-.26.1-.06-.63a16.76,16.76,0,0,0,1.83-.71l3.5-3.42c-.61.07-1.58.08-2.6.21s-2.09.31-3,.38l0-.14c.73-.15,1.82-.42,3.05-.8a39.33,39.33,0,0,0,4-1.09l.57-.61c.73-.75,1.48-1.56,2.24-2.27l.33-.3a19.73,19.73,0,0,0-6.3.9,43.93,43.93,0,0,0-4,1.91l-.09-1c1.75-.53,3.69-1.46,5.69-1.91a18.4,18.4,0,0,1,5.9-.95c.64-.56,1.29-1.08,2-1.58a9.89,9.89,0,0,0-3.44-.86,13.36,13.36,0,0,0-3.75.48,7.49,7.49,0,0,1,4.34-1.14,12.3,12.3,0,0,1,3.81.82Zm1.06-6-.17,1A13.89,13.89,0,0,0,130.56,3c3.67-.35,8,1.68,8.42,1.88a23.35,23.35,0,0,0-10.82-.59A25.57,25.57,0,0,0,123.8,8l-.16-1.78a18.73,18.73,0,0,1,2.69-2.34,11.18,11.18,0,0,1,3.06-1.62c-.5-.23-1-.44-1.5-.62s-1.06-.24-1.59-.32a18.27,18.27,0,0,0-3.1-.23l-.09-1a14.83,14.83,0,0,1,7.64,1.74A17.05,17.05,0,0,1,135.3.56,18,18,0,0,1,140.29.89Z"/><path class="cls-1" d="M124.46,15.66l0,.14c-.33,0-.64,0-.93,0Zm-.82-9.48L123.8,8l-.32.34a25.23,25.23,0,0,0-3.11,5.09,22.46,22.46,0,0,0,3.81-1l.09,1a11.91,11.91,0,0,1-4.53,1.32c-.81,1.63-1.45,3.4-2.12,5,.78,0,1.49-.24,2.19-.32a15.72,15.72,0,0,0,1.89-.32,14,14,0,0,0,1.82-.55c-1.28,1.06-3.75,1.85-6.4,2.32L117,21a21.73,21.73,0,0,0,7.74-1.63l.06.63c-2.16.69-5.42,2.26-8.4,2.16l-.13.23a7.8,7.8,0,0,0,3.48-.23,15.31,15.31,0,0,0,2.39-.7c.84-.36,1.7-.9,2.66-1.4l.1,1.11a12.12,12.12,0,0,1-1,.66,9.47,9.47,0,0,1-1.06.68,7.54,7.54,0,0,1-2.31.86c-1.58.61-3.5.57-5.92.6,0,0-.09,0-.12,0l-.47-1,.19-.24-.22.18-.26-.57a17,17,0,0,0,1.43-1.3c.66-1.42,1.38-2.73,2.08-4.31l-2.3,1c-.91.43-1.84,1-2.7,1.38l-.06-.13c.62-.38,1.52-1.07,2.57-1.78a25.91,25.91,0,0,0,3.3-2.3,7.23,7.23,0,0,1,.35-.74l1.51-2.72c.08-.12.15-.25.23-.38a14.09,14.09,0,0,0-5.74,2.73,24.92,24.92,0,0,0-3.18,3.13L110.8,16c.72-.57,1.47-1.21,2.23-1.89s1.64-1.19,2.5-1.8A16.25,16.25,0,0,1,121,9.62a25.32,25.32,0,0,1,1.48-2.1,9.38,9.38,0,0,0-3.6.24,15.5,15.5,0,0,0-1.94.57,9.07,9.07,0,0,0-1.63.95,6.69,6.69,0,0,1,4-2.34,8.9,8.9,0,0,1,4-.29Zm-.53-6.1.09,1a12.85,12.85,0,0,0-5.1,1.15,19.8,19.8,0,0,0-2.26,1.12,16,16,0,0,0-2,1.57A14.49,14.49,0,0,1,119.57,4c.86,0,1.62,0,2.19.07s1,.17,1.09.2A22.81,22.81,0,0,0,116.5,5a27.44,27.44,0,0,0-4.65,2,19.48,19.48,0,0,0-2.93,4.92l-.75-1.63a13.53,13.53,0,0,1,4.25-5.68,13.33,13.33,0,0,0-6.41,1l-.42-.89a20.06,20.06,0,0,1,3.8-1.06,21.87,21.87,0,0,1,4.27.06A13.6,13.6,0,0,1,118,1.16,13.33,13.33,0,0,1,123.11.08Z"/><path class="cls-1" d="M112.17,18.9l.06.13c-.29.14-.58.25-.84.36Zm-4-8.64.75,1.63c-.06.14-.12.3-.18.43a23.14,23.14,0,0,0-1.18,5.83A24.18,24.18,0,0,0,110.8,16l.41.89a12.27,12.27,0,0,1-3.78,2.79c-.19,1.81-.19,3.69-.28,5.39,1.37-.7,2.66-1.41,3.6-2,.47-.32.84-.6,1.1-.81a2,2,0,0,1,.42-.3,15.57,15.57,0,0,1-5.21,4.36l0,.17a21.72,21.72,0,0,0,6.68-4.18l.26.57c-1.76,1.33-4.23,4-7.11,4.9l0,.28A8.37,8.37,0,0,0,110,26.56a14.32,14.32,0,0,0,2-1.48A10.1,10.1,0,0,0,113,24a12.83,12.83,0,0,0,1-1.14l.47,1a12.52,12.52,0,0,1-3.33,3.55,18.6,18.6,0,0,1-5.42,2.64.65.65,0,0,1-.14,0l-.78-.8c0-.09.06-.19.1-.29l-.15.25-.44-.45a18.62,18.62,0,0,0,.93-1.72c.14-1.59.37-3,.48-4.78L103.91,24c-.69.74-1.4,1.58-2.08,2.23l-.1-.1c.46-.57,1.1-1.51,1.82-2.56a25.72,25.72,0,0,0,2.31-3.3,7.12,7.12,0,0,1,.08-.82c.16-1,.31-2,.47-3.07l.09-.45c-4.46,3-5.28,6.22-6.37,8.58l-.69-.69c.49-.78,1-1.63,1.47-2.53s1.12-1.69,1.71-2.56a16.63,16.63,0,0,1,4.19-4.36,18.06,18.06,0,0,1,.68-2.46,8.32,8.32,0,0,0-3.31,1.45,15.3,15.3,0,0,0-1.63,1.21,10.23,10.23,0,0,0-1.2,1.45,6.68,6.68,0,0,1,2.92-3.56,8.58,8.58,0,0,1,3.64-1.64Zm-2.58-5.55.42.89a12.4,12.4,0,0,0-4.45,2.84,13.09,13.09,0,0,0-3.06,4,14.72,14.72,0,0,1,5-2.86,13.33,13.33,0,0,1,3.21-.87A20.55,20.55,0,0,0,101,11.62a27,27,0,0,0-3.68,3.44,20.58,20.58,0,0,0-1,5.62L95,19.4a13.66,13.66,0,0,1,2-6.77,13.89,13.89,0,0,0-5.63,3.11l-.69-.7a20.55,20.55,0,0,1,3.18-2.24,20.39,20.39,0,0,1,4-1.41A13.8,13.8,0,0,1,101.1,7.5,13.1,13.1,0,0,1,105.59,4.71Z"/><path class="cls-1" d="M101.73,26.17l.1.1c-.23.23-.46.44-.68.63ZM95,19.4l1.26,1.28c0,.14,0,.31,0,.46A25.46,25.46,0,0,0,97.12,27a21.71,21.71,0,0,0,2.32-3.17l.69.69a11.58,11.58,0,0,1-2.65,3.92c.41,1.77,1,3.59,1.47,5.23A14.73,14.73,0,0,0,100.48,32a16.9,16.9,0,0,0,1.27-1.47A14.08,14.08,0,0,0,102.82,29a15.2,15.2,0,0,1-3.57,5.95l0,.17a12.36,12.36,0,0,0,2.53-2.57,31.47,31.47,0,0,0,2.51-3.71l.44.45c-1.19,1.89-2.78,5.26-5.23,7.14l.06.28a9.66,9.66,0,0,0,2.63-2.47,22.93,22.93,0,0,0,1.41-2.12c.43-.82.78-1.79,1.18-2.79l.78.8a10.65,10.65,0,0,1-.37,1.17,9.53,9.53,0,0,1-.4,1.21,9.63,9.63,0,0,1-1.26,2.19,9.91,9.91,0,0,1-1.82,2.15A28.54,28.54,0,0,1,99.14,39a.31.31,0,0,1-.12.05l-1-.52v-.31l-.06.28-.57-.29a16.4,16.4,0,0,0,.39-2c-.36-1.57-.63-3.06-1.05-4.72l-1.19,2.24c-.39,1-.85,2-1.3,2.81l-.12-.07c.25-.7.61-1.78,1-3a27.88,27.88,0,0,0,1.15-3.88l-.2-.82-.57-3.06-.06-.44c-3.19,4.33-3,7.58-3.29,10.19l-.88-.45c.47-1.79.76-3.88,1.43-5.83a16.51,16.51,0,0,1,2.52-5.48A22.47,22.47,0,0,1,95,21.21a10.89,10.89,0,0,0-4.39,5.87,6.36,6.36,0,0,1,.36-2.24,10.88,10.88,0,0,1,1.2-2.05A9.15,9.15,0,0,1,95,20C95,19.83,95,19.61,95,19.4ZM90.73,15l.69.7a13,13,0,0,0-3.18,4.11,17.09,17.09,0,0,0-1,2.29,20.67,20.67,0,0,0-.53,2.43,14.54,14.54,0,0,1,3.78-4.28,13.22,13.22,0,0,1,2.69-1.88A22.65,22.65,0,0,0,88.8,23a33.2,33.2,0,0,0-2.32,4.39A22.82,22.82,0,0,0,87.26,33l-1.59-.82a14.18,14.18,0,0,1-.26-7,14.08,14.08,0,0,0-4.31,4.63l-.87-.45a18.7,18.7,0,0,1,2.3-3,17.15,17.15,0,0,1,3.3-2.56,20.69,20.69,0,0,1,.6-2.41,19.19,19.19,0,0,1,1.07-2.25A13.77,13.77,0,0,1,90.73,15Z"/><path class="cls-1" d="M94.13,36.56l.12.07c-.15.29-.31.55-.46.8C93.79,37.43,93.92,37.11,94.13,36.56Zm-8.46-4.37,1.59.82c0,.15.09.31.12.45A28.8,28.8,0,0,0,90,38.81a17.82,17.82,0,0,0,1.24-3.74l.88.45a11,11,0,0,1-1.35,4.55c.92,1.58,2.09,3.14,3,4.6a13.88,13.88,0,0,0,1-2.09,18.39,18.39,0,0,0,.78-1.82A14.11,14.11,0,0,0,96,38.9a15.35,15.35,0,0,1-1.68,6.84l.08.16a12,12,0,0,0,1.67-3.26,26.53,26.53,0,0,0,1.3-4.39l.57.29c-.34,1.06-.48,2.66-1,4.15a14,14,0,0,1-1.9,4.41l.13.25A10.19,10.19,0,0,0,97,44.16a25.09,25.09,0,0,0,.73-2.5A23.88,23.88,0,0,0,98,38.57l1,.52c.26,3.52-.64,6.51-3.58,10.69,0,0-.09.06-.11.08l-1.11-.21c0-.09,0-.2-.07-.3l0,.29-.63-.12a15.54,15.54,0,0,0-.19-2c-.78-1.41-1.49-2.78-2.37-4.25-.11.6-.29,1.52-.48,2.52s-.25,2.12-.44,3.07l-.14,0c0-.75.08-1.89,0-3.19a29.16,29.16,0,0,0,0-4.07l-.44-.71c-.52-.91-1-1.81-1.46-2.76-.07-.13-.13-.26-.2-.4-1.73,5.08-.6,8.11-.16,10.71l-1-.18c-.06-1.84-.4-3.93-.33-6a26.62,26.62,0,0,1,.11-3.11,19.57,19.57,0,0,1,.66-2.86c-.37-.78-.69-1.57-1-2.36a11,11,0,0,0-2.4,6.88,6.28,6.28,0,0,1-.31-2.23,9.11,9.11,0,0,1,.51-2.3,9.41,9.41,0,0,1,1.86-3.46C85.78,32.6,85.72,32.39,85.67,32.19Zm-5.44-2.81.87.45a13.17,13.17,0,0,0-1.73,4.8,13.51,13.51,0,0,0,0,4.91,14.2,14.2,0,0,1,2.3-5.15,15.87,15.87,0,0,1,2-2.58,24.58,24.58,0,0,0-2.75,5.64,34.15,34.15,0,0,0-.91,4.83,23.56,23.56,0,0,0,2.39,5.13l-1.77-.33a14.38,14.38,0,0,1-2.28-6.57,14.07,14.07,0,0,0-2.77,5.62l-1-.18a18.59,18.59,0,0,1,1.32-3.54A16.4,16.4,0,0,1,78.26,39a13.38,13.38,0,0,1,.18-4.88A13.85,13.85,0,0,1,80.23,29.38Z"/><path class="cls-1" d="M89.92,48.84l.14,0c-.06.32-.14.62-.21.91C89.85,49.78,89.88,49.43,89.92,48.84Zm-9.36-1.76,1.77.33c.07.13.16.27.24.4a28.85,28.85,0,0,0,4,4.38,18.7,18.7,0,0,0,.12-3.95l1,.18a10.73,10.73,0,0,1,0,4.76c1.34,1.26,2.88,2.42,4.14,3.58a16.35,16.35,0,0,0,.34-2.28,18.25,18.25,0,0,0,.24-2,15.87,15.87,0,0,0,0-2,15.58,15.58,0,0,1,.32,7.06l.12.13a12.14,12.14,0,0,0,.68-3.61,26.24,26.24,0,0,0,0-4.61l.63.12c0,1.13.3,2.71.21,4.3a13.69,13.69,0,0,1-.59,4.78l.2.2a9.58,9.58,0,0,0,.83-3.58,22.73,22.73,0,0,0,0-2.62,24.8,24.8,0,0,0-.61-3.07l1.11.21A13,13,0,0,1,96.2,55a18.87,18.87,0,0,1-1.28,6.21s-.06.08-.08.11l-1.11.11-.17-.27.11.27-.63.07a16.17,16.17,0,0,0-.76-1.86c-1.17-1.13-2.19-2.25-3.47-3.41.06.6.15,1.54.24,2.55s.37,2.11.46,3.07h-.14c-.18-.73-.47-1.83-.88-3.07a26,26,0,0,0-1.16-3.89l-.63-.57c-.74-.72-1.44-1.46-2.18-2.23l-.3-.33c-.21,5.36,1.7,8,2.88,10.32l-1,.1c-.61-1.75-1.49-3.66-2-5.66a17.21,17.21,0,0,1-1-5.93c-.57-.64-1.11-1.31-1.62-2a11.06,11.06,0,0,0-.34,7.27,6.36,6.36,0,0,1-.94-2.06,10.13,10.13,0,0,1-.16-2.34,9.25,9.25,0,0,1,.8-3.83C80.79,47.44,80.67,47.26,80.56,47.08Zm-6-1.13,1,.18a13,13,0,0,0-.29,5.07,13.38,13.38,0,0,0,1.36,4.7,14.42,14.42,0,0,1,.75-5.58,14.73,14.73,0,0,1,1.15-3,23.83,23.83,0,0,0-1,6.15,33,33,0,0,0,.49,4.89,22.77,22.77,0,0,0,3.74,4.26l-1.79.17a14.24,14.24,0,0,1-4-5.65,13.81,13.81,0,0,0-1.06,6.17l-1,.1a19.53,19.53,0,0,1,.25-3.78,18.06,18.06,0,0,1,1.36-3.89,23.41,23.41,0,0,1-.84-2.3A17.66,17.66,0,0,1,74.2,51,13.62,13.62,0,0,1,74.55,46Z"/><path class="cls-1" d="M89.37,61.83h.14q0,.49.06.93S89.49,62.41,89.37,61.83Zm-9.48,1,1.79-.17.35.3A26.8,26.8,0,0,0,87.12,66a20.76,20.76,0,0,0-1-3.82l1-.1a11.57,11.57,0,0,1,1.36,4.56c1.65.82,3.38,1.52,5,2.25a41.64,41.64,0,0,0-.65-4.23c-.14-.56-.28-1-.38-1.36s-.17-.51-.17-.51c1,1.31,1.88,3.88,2.33,6.66l.15.09a21.82,21.82,0,0,0-1.67-8l.63-.07c.73,2.2,2.32,5.67,2.21,8.79l.23.14a8.31,8.31,0,0,0-.23-3.66,13,13,0,0,0-.72-2.51c-.38-.88-.89-1.79-1.43-2.76l1.11-.11a13.26,13.26,0,0,1,2.27,4.63c.61,1.71.56,3.77.55,6.3,0,0,0,.09,0,.12l-1,.43-.23-.21.18.23-.59.24a17.79,17.79,0,0,0-1.28-1.55C93.3,70.7,91.92,70,90.37,69.2c.47,1.12,1.43,3.44,2.28,5.18l-.13.05c-.35-.65-1.07-1.58-1.69-2.69a26.13,26.13,0,0,0-2.28-3.39c-.26-.12-.49-.24-.73-.37L85.1,66.45l-.39-.23A14.92,14.92,0,0,0,87.4,72a24.23,24.23,0,0,0,3,3.3l-.91.38c-.54-.75-1.19-1.51-1.81-2.31L86,70.82a17.51,17.51,0,0,1-2.6-5.42A22.11,22.11,0,0,1,81.26,64a8.86,8.86,0,0,0,.23,3.54A9,9,0,0,0,83,71a6.71,6.71,0,0,1-2.29-3.91,9,9,0,0,1-.31-3.91Zm-6.09.62,1-.1a12.48,12.48,0,0,0,1.15,5,13.45,13.45,0,0,0,2.63,4.13,14.82,14.82,0,0,1-.86-5.57A13.78,13.78,0,0,1,78,63.59a22,22,0,0,0,.76,6.2,25.86,25.86,0,0,0,1.87,4.56,19.77,19.77,0,0,0,4.78,3L83.71,78a20.65,20.65,0,0,1-3.08-1.8,13.48,13.48,0,0,1-2.42-2.47,16.26,16.26,0,0,0,0,3.27A17.23,17.23,0,0,0,79,80l-.91.38a15.28,15.28,0,0,1-.85-3.69,21.51,21.51,0,0,1,.18-4.13,13.74,13.74,0,0,1-2.48-4.19A13.3,13.3,0,0,1,73.8,63.4Z"/><path class="cls-1" d="M92.52,74.43l.13-.05c.14.3.24.59.34.87ZM83.71,78l1.66-.68.43.2a26,26,0,0,0,5.73,1.49,21.17,21.17,0,0,0-2-3.38l.91-.38a10.51,10.51,0,0,1,1.41,1.78A9.19,9.19,0,0,1,93,79.28l5.37.77a23.82,23.82,0,0,0-1.82-3.89c-.65-1-1-1.66-1-1.66a16.36,16.36,0,0,1,2.1,2.28,25.71,25.71,0,0,1,2,3.48l.18,0a8.43,8.43,0,0,0-.59-1.59,13.38,13.38,0,0,0-.79-1.82A15.59,15.59,0,0,0,97.28,75c-.44-.64-.83-1.32-1.35-2l.59-.24c.35.46.74,1,1.14,1.6s1,1.2,1.39,1.88a23.05,23.05,0,0,1,1.19,2.12,8.75,8.75,0,0,1,.94,2.21l.27.07a14.62,14.62,0,0,0-4.88-7.9l1-.43c2.74,2.18,4.7,4.68,5.81,9.77a.28.28,0,0,1,0,.13l-.88.7-.3-.13.25.17-.49.39c-.57-.37-1.11-.76-1.65-1.17a45.44,45.44,0,0,0-4.81-1c.86.89,2.39,2.88,3.68,4.34l-.11.08c-.62-.47-1.4-1.29-2.35-2.15s-2.17-1.74-3.14-2.61l-.8-.16-3.09-.66L89.29,80a24,24,0,0,0,2.08,2.88,13.9,13.9,0,0,0,2.15,1.88,27.47,27.47,0,0,0,3.81,2.35l-.77.61C95,86.62,93.48,85.31,91.78,84a21.86,21.86,0,0,1-4-4.46,18.85,18.85,0,0,1-2.37-.81c0,2,1.95,4.84,3.59,6.33-2.6-1.1-4.58-4.95-4.66-6.79Zm-5.66,2.33L79,80a14.82,14.82,0,0,0,6.16,7.65,18.88,18.88,0,0,1-2.4-5.1,16.36,16.36,0,0,1-.62-3.18,18.55,18.55,0,0,0,2.51,5.72,18.08,18.08,0,0,0,3,3.83,19.81,19.81,0,0,0,5.4,1.56l-1.41,1.11A14.45,14.45,0,0,1,85.2,89a14.33,14.33,0,0,0,2.42,5.74l-.77.61A17,17,0,0,1,84,88.14,15.69,15.69,0,0,1,78.05,80.37Z"/><path class="cls-1" d="M99.11,85.66l.11-.08c.22.24.42.49.6.72Zm-7.46,5.92,1.41-1.11.47.06a36,36,0,0,0,5.9-.13,11.74,11.74,0,0,0-2.87-2.71l.77-.61a9.56,9.56,0,0,1,3.59,3.15c1.92-.27,3.75-.56,5.46-.71a25.07,25.07,0,0,0-2.87-3.29,15.24,15.24,0,0,0-1.42-1.36,10.93,10.93,0,0,1,2.62,1.69,13.18,13.18,0,0,1,2.92,2.87h.18a11,11,0,0,0-2.29-3A26.7,26.7,0,0,0,102,83.37l.49-.39a32.48,32.48,0,0,1,3.42,2.72,13.63,13.63,0,0,1,3.3,3.69h.29a12.56,12.56,0,0,0-2.19-3.1,17,17,0,0,0-4.77-3.34l.88-.7a12.35,12.35,0,0,1,2.37,1.14,13,13,0,0,1,1.06.77A10.68,10.68,0,0,1,108,85a11.38,11.38,0,0,1,2,2.28,23.46,23.46,0,0,1,2,3,1.21,1.21,0,0,1,0,.14l-.68.89-.32-.07.28.12-.38.5a19.86,19.86,0,0,0-1.93-.74c-1.64.07-3.23.14-4.91.27.51.35,1.21,1,2.09,1.53s1.83,1.18,2.61,1.77l-.08.11c-.67-.37-1.7-.91-2.9-1.46s-2.4-1.28-3.69-1.76l-.83.08c-1,.08-2.15.21-3.18.23h-.45a19.19,19.19,0,0,0,5.33,3.48c1.62.61,3.07.85,4.34,1.25l-.59.78C103.19,96,98.73,94.5,96,91.9c-.85,0-1.68-.05-2.52-.11a10.08,10.08,0,0,0,2,2.92,13,13,0,0,0,3.16,2.13,7.53,7.53,0,0,1-4-2,12.21,12.21,0,0,1-2.3-3.14Zm-4.8,3.81.77-.61a17.28,17.28,0,0,0,3.57,3.53,17.16,17.16,0,0,0,4.41,2c-3.06-2.2-4.94-6.6-5.12-7a23.23,23.23,0,0,0,7.8,7.66,27.9,27.9,0,0,0,5.63,0l-1.08,1.43a14.69,14.69,0,0,1-6.84-.72,13.8,13.8,0,0,0,3.74,4.82l-.6.78a15.13,15.13,0,0,1-4.44-6.2A17.44,17.44,0,0,1,90.38,99,18.39,18.39,0,0,1,86.85,95.39Z"/><path class="cls-1" d="M108.58,94.8l.08-.11c.27.2.51.4.74.6Zm-5.75,7.6,1.08-1.43.46,0c1-.16,1.93-.38,2.87-.63s1.92-.63,2.84-1a9.29,9.29,0,0,0-1.61-1,17.93,17.93,0,0,0-1.86-.95l.59-.78a10.85,10.85,0,0,1,2.13.84,8.53,8.53,0,0,1,2.17,1.33c1.79-.67,3.49-1.33,5.13-1.82A17,17,0,0,0,113,94.32c-1.08-.57-1.78-1-1.78-1a14.72,14.72,0,0,1,3.08,1,21.42,21.42,0,0,1,3.58,2.22l.17,0a18.1,18.1,0,0,0-3-2.46,47.19,47.19,0,0,0-4.28-2.19l.38-.5c.55.23,1.17.53,1.86.86a24,24,0,0,1,2.25,1,21.07,21.07,0,0,1,4.18,2.94l.29-.06a15.4,15.4,0,0,0-3-2.56,17.31,17.31,0,0,0-5.57-2.23l.68-.89a16,16,0,0,1,5.21,1.69,22,22,0,0,1,5.2,4.46s0,.1.06.13l-.48,1h-.33l.31.07-.27.57a19.42,19.42,0,0,0-2.07-.38c-1.57.31-3.22.87-4.83,1.36,1.12.51,3.62,1.34,5.39,2.23l-.06.13c-.73-.25-1.85-.59-3.14-.9-.65-.15-1.33-.3-2-.42s-1.36-.33-2-.44l-.78.25-3,.94-.43.12c4.62,2.67,7.83,2.22,10.47,2.51l-.41.89c-1.81-.42-3.88-.66-6-1a28.22,28.22,0,0,1-5.65-1.93,20.83,20.83,0,0,1-2.44.51c1,1.63,4,3.15,6.14,3.65-2.76.27-6.31-2-7.29-3.5Zm-3.7,4.88.6-.78a15.82,15.82,0,0,0,2,1.49,14.45,14.45,0,0,0,2.22,1,18.64,18.64,0,0,0,4.62,1,19.41,19.41,0,0,1-6.48-5.56A18.66,18.66,0,0,0,107,108a18.17,18.17,0,0,0,4.36,1.86,28.57,28.57,0,0,0,5.41-1.14l-.76,1.62a17,17,0,0,1-6.73.83A16.71,16.71,0,0,0,113.8,115l-.42.89a17,17,0,0,1-5.51-5,19.81,19.81,0,0,1-4.55-1.08,15.91,15.91,0,0,1-2.19-1A17.38,17.38,0,0,1,99.13,107.28Z"/><path class="cls-1" d="M120,101.68l.06-.13.85.45Zm-4,8.61.76-1.62.44-.14a34.42,34.42,0,0,0,5.28-2.75,18.23,18.23,0,0,0-3.81-1.15l.41-.89a11.22,11.22,0,0,1,4.69,1.26c1.64-1,3.2-1.93,4.76-2.73a20.29,20.29,0,0,0-6.14-2.55,15.07,15.07,0,0,1,7.33,1.93l.17-.07a18.91,18.91,0,0,0-3.49-1.91,31.15,31.15,0,0,0-4.78-1.33l.27-.57c1.14.32,2.88.5,4.54,1a17.45,17.45,0,0,1,2.48,1,13.2,13.2,0,0,1,2.33,1.22l.28-.11a15.4,15.4,0,0,0-9.61-3.18l.48-1c3.78-.28,7.33.75,11.8,4.23a.42.42,0,0,1,.08.12l-.3,1.08-.34,0,.32,0-.17.6c-.7,0-1.42-.05-2.16,0a43.09,43.09,0,0,0-4.58,2.17c1.23.28,3.85.7,5.78,1.27l0,.13a53.73,53.73,0,0,0-7.48-.47l-.72.39-2.79,1.48-.4.21c5,1.75,8.09.74,10.77.58l-.26,1c-1.86-.1-3.95,0-6,0a27.23,27.23,0,0,1-5.88-.85c-.77.38-1.54.74-2.31,1.06a12.48,12.48,0,0,0,6.68,2.35c-2.65.79-6.45-.78-7.75-2Zm-2.6,5.55.42-.89a15.28,15.28,0,0,0,9.13,1.52,21.2,21.2,0,0,1-7.27-4.11,22.62,22.62,0,0,0,5.38,2.49,17.82,17.82,0,0,0,4.53,1,30.6,30.6,0,0,0,5.1-2.07l-.49,1.73a17.44,17.44,0,0,1-6.39,2,16,16,0,0,0,5,2.94l-.27.94a16.92,16.92,0,0,1-6.11-3.87A16,16,0,0,1,113.38,115.84Z"/><path class="cls-1" d="M132.76,106.34l0-.13.93.29Zm-2.58,9.17.49-1.73.4-.21a35.28,35.28,0,0,0,4.77-3.52,19,19,0,0,0-4-.57l.26-1a11.9,11.9,0,0,1,4.86.54c1.48-1.23,2.91-2.43,4.37-3.43a19.47,19.47,0,0,0-4.5-1.31l-2.1-.28a15.08,15.08,0,0,1,7.69.87l.16-.09a13.21,13.21,0,0,0-3.82-1.43,40.91,40.91,0,0,0-5-.61l.17-.6c1.23.1,3,.14,4.77.36a16.59,16.59,0,0,1,5.19,1.54l.27-.14a14,14,0,0,0-3.83-1.59,17.88,17.88,0,0,0-6.38-.23l.3-1.08a16.14,16.14,0,0,1,5.86-.14,14,14,0,0,1,3.2,1,23.62,23.62,0,0,1,3.58,1.68c.05,0,.08.08.1.1l-.16,1.11-.34.1.33,0-.09.63c-.72.06-1.46.16-2.2.29-1.47.84-2.87,1.74-4.27,2.71,1.25.19,3.92.27,6,.51l0,.14c-.79,0-2,0-3.35.15a37.34,37.34,0,0,0-4.18.39l-.66.5-2.55,1.91-.36.27a22.79,22.79,0,0,0,6.34.11c1.71-.3,3.09-.79,4.43-1.08l-.14,1c-3.74.5-8.23,1.36-11.91.93a22.64,22.64,0,0,1-2.09,1.37c1.53,1.09,4.74,1.54,6.9,1.27-2.5,1.18-6.45.34-7.89-.71Zm-1.66,5.89.27-.94a11.09,11.09,0,0,0,4.58.73,17.76,17.76,0,0,0,4.48-.71,19.3,19.3,0,0,1-7.66-2.89,26.23,26.23,0,0,0,10.15,2,31.35,31.35,0,0,0,4.73-2.81l-.26,1.78a15.66,15.66,0,0,1-6,2.87,13.12,13.12,0,0,0,5.23,2.21l-.14,1a14.53,14.53,0,0,1-6.43-3,18.31,18.31,0,0,1-4.43.58A11.52,11.52,0,0,1,128.52,121.4Z"/><path class="cls-1" d="M146.19,109.14l0-.14,1,.15Zm-1.38,9.42.26-1.78.37-.27a49.57,49.57,0,0,0,4.28-4,11.94,11.94,0,0,0-4-.12l.14-1a9.35,9.35,0,0,1,4.9,0,55.8,55.8,0,0,1,4-4,31.76,31.76,0,0,0-6.83-.84,11.21,11.21,0,0,1,3.37-.4,16.43,16.43,0,0,1,4.49.38l.15-.11a13.23,13.23,0,0,0-4.05-.88,25.77,25.77,0,0,0-5.15-.07l.09-.63a34.72,34.72,0,0,1,4.85-.13,14.94,14.94,0,0,1,5.45.85l.26-.16c-1.57-.88-5.78-1.87-10.55-.62l.16-1.11a15.49,15.49,0,0,1,5.92-.78,18.15,18.15,0,0,1,7.18,2s.08.07.11.1l0,1.12-.33.11.33,0,0,.63a21.4,21.4,0,0,0-2.17.44,33,33,0,0,0-4,3.15c1.28,0,4-.17,6,0v.14a35.17,35.17,0,0,0-7.47,1.31l-.6.59-2.3,2.19-.33.3c5.28.18,8-1.36,10.61-2.11l-.05,1c-3.65.56-8,2.36-11.71,2.16-.62.56-1.25,1.08-1.89,1.59a9.41,9.41,0,0,0,3.3.84,11,11,0,0,0,3.64-.36c-2.34,1.67-6.29,1-7.84.22Zm-.89,6,.14-1a13.64,13.64,0,0,0,8.85-1.08c-3.44.22-7.43-1.78-7.83-2a23,23,0,0,0,10.18.73,30.65,30.65,0,0,0,4.37-3.15l-.07,1.8a17.26,17.26,0,0,1-5.59,3.38,15.48,15.48,0,0,0,5.37,1.75l0,1a17.08,17.08,0,0,1-6.61-2.37A14.16,14.16,0,0,1,143.92,124.61Z"/><path class="cls-1" d="M160,110.47v-.14l1,0Zm-.4,9.52.07-1.8.34-.3c1.37-1.43,2.65-3,3.88-4.55a12.64,12.64,0,0,0-4,.39l.05-1a9.58,9.58,0,0,1,4.92-.6,50.26,50.26,0,0,1,3.72-4.25,22.63,22.63,0,0,0-7.06-.19,15.73,15.73,0,0,1,8-.74l.14-.11a18.89,18.89,0,0,0-9.51-.07l0-.63c2.6-.57,7.17-1.32,10.65-.25l.25-.18a15,15,0,0,0-10.9.37l0-1.12c3.68-1.78,8-2.09,13.6,0,0,0,.08.07.11.09l0,1.12-.33.15.33-.09v.63c-.72.17-1.45.38-2.18.63a35.2,35.2,0,0,0-3.83,3.43c1.29-.12,4-.45,6.07-.51v.14a40.11,40.11,0,0,0-7.43,1.86L166,113l-2.12,2.38-.3.34c5.26-.28,7.88-1.9,10.44-2.92l0,1c-3.64,1-7.87,2.79-11.5,3.11-.57.64-1.14,1.24-1.71,1.83a11.83,11.83,0,0,0,6.87-.22c-2.19,1.72-6.1,1.53-7.69,1C159.87,119.71,159.71,119.86,159.56,120Zm-.26,6.11,0-1a15.1,15.1,0,0,0,8.47-2A21.74,21.74,0,0,1,160,122a28.12,28.12,0,0,0,10-.23,33.88,33.88,0,0,0,4.11-3.49l0,1.79a16.81,16.81,0,0,1-5.26,3.81,14,14,0,0,0,5.34,1.33v1a15.44,15.44,0,0,1-6.57-1.87A15.54,15.54,0,0,1,159.3,126.1Z"/><path class="cls-1" d="M174,110.55v-.14h1Zm.15,9.52,0-1.79.32-.33a58,58,0,0,0,3.61-4.63,12.36,12.36,0,0,0-4,.49l0-1a9.4,9.4,0,0,1,4.89-.72c1.14-1.5,2.24-3.06,3.42-4.46a35.16,35.16,0,0,0-4.81-.13c-1.32.08-2.2.23-2.2.23a18.32,18.32,0,0,1,7.91-1.1l.13-.13a22.65,22.65,0,0,0-9.43.34v-.63a32.41,32.41,0,0,1,5-.85,18.33,18.33,0,0,1,5.55.12l.23-.2a11.2,11.2,0,0,0-4.19-.49,16.25,16.25,0,0,0-6.55,1.36l0-1.12a14,14,0,0,1,6-1.58,18.3,18.3,0,0,1,7.38.9c.05,0,.09.06.12.08l.11,1.12-.31.16.31-.1.06.63a21.67,21.67,0,0,0-2.08.75,33.69,33.69,0,0,0-3.52,3.71c1.26-.25,3.89-.75,5.94-.93v.14a34.23,34.23,0,0,0-7.21,2.39c-.17.22-.34.44-.52.65l-2,2.43-.28.34a17.51,17.51,0,0,0,6.15-1.53c1.59-.7,2.83-1.44,4.06-2l.09,1c-3.53,1.12-7.66,3.49-11.27,3.76-.53.65-1.07,1.27-1.61,1.87a10.75,10.75,0,0,0,6.87-.47c-2.11,2-6,1.72-7.64,1.3Zm.09,6.12v-1a14,14,0,0,0,8.38-2.28c-3.4.61-7.44-.78-7.89-.87a22.08,22.08,0,0,0,10-.69,32.11,32.11,0,0,0,3.9-3.75l.17,1.79a17.54,17.54,0,0,1-5.07,4.16,15.49,15.49,0,0,0,5.56,1l.09,1a17.25,17.25,0,0,1-6.87-1.38A14.43,14.43,0,0,1,174.24,126.19Z"/><path class="cls-1" d="M187.92,109.93v-.14l1-.06Zm.91,9.48-.17-1.79.29-.34a39.81,39.81,0,0,0,3.2-5,17.57,17.57,0,0,0-3.92.89l-.09-1a11.39,11.39,0,0,1,4.75-1.23c1-1.67,1.89-3.29,2.92-4.74a19.73,19.73,0,0,0-4.71.35c-1.26.24-2.1.49-2.1.49a14.92,14.92,0,0,1,7.59-1.89l.12-.14c-2.3-.48-5.62.08-9.14,1.23l-.06-.63c2.48-.76,6.64-2.29,10.14-1.71l.2-.23a13.15,13.15,0,0,0-4.18-.18,17.92,17.92,0,0,0-6.16,2.06l-.11-1.12a16.69,16.69,0,0,1,5.56-2.23,14.94,14.94,0,0,1,3.4-.18,28.27,28.27,0,0,1,3.9.36.81.81,0,0,1,.13.06l.23,1.1-.28.2.29-.14.14.62a19.23,19.23,0,0,0-1.94,1c-1.07,1.3-2.1,2.58-3.07,4l2.61-.68c1-.33,2.15-.66,3.14-.9l0,.14c-.74.28-1.85.73-3.08,1.31a31.12,31.12,0,0,0-3.79,1.8l-.45.7c-.56.89-1.14,1.78-1.71,2.68l-.25.38a23,23,0,0,0,6-2.11c1.5-.83,2.63-1.8,3.78-2.53l.2,1c-3.33,1.77-7.25,4.09-10.83,5-.47.7-.95,1.41-1.45,2,1.79.44,4.95-.22,6.86-1.24-1.91,2-5.89,2.54-7.57,2.11Zm.58,6.09-.09-1a14.47,14.47,0,0,0,8.35-3.16,19.84,19.84,0,0,1-8.1,0,26.63,26.63,0,0,0,10.1-1.69,28.69,28.69,0,0,0,3.49-4.26l.37,1.75a15.18,15.18,0,0,1-4.63,4.76,12.85,12.85,0,0,0,5.71.27l.21,1a14.31,14.31,0,0,1-7.09-.6A15.1,15.1,0,0,1,189.41,125.5Z"/><path class="cls-1" d="M201.54,107.84l0-.14,1-.19Zm2,9.31-.37-1.75.25-.39a47.54,47.54,0,0,0,2.6-5.26,12.13,12.13,0,0,0-3.79,1.28l-.2-1a9.46,9.46,0,0,1,4.57-1.7c.73-1.81,1.42-3.56,2.22-5.15a31.82,31.82,0,0,0-6.56,1.62,11.72,11.72,0,0,1,3-1.56,15.08,15.08,0,0,1,4.19-1.22l.1-.16a12.69,12.69,0,0,0-4,.6,27.59,27.59,0,0,0-4.77,1.74l-.14-.62a38.07,38.07,0,0,1,4.43-1.82,13.89,13.89,0,0,1,5.21-1.11l.17-.24c-1.77-.29-5.78.29-9.82,3.11l-.23-1.1c3-2.42,6.6-3.85,12.2-3.57a.39.39,0,0,1,.13,0l.39,1-.23.24.26-.19.22.59c-.59.39-1.13.88-1.72,1.3a35.34,35.34,0,0,0-2.47,4.34c1.14-.56,3.62-1.45,5.43-2.31l.05.13a59.12,59.12,0,0,0-6.32,4l-.35.77c-.45,1-.88,2-1.36,2.88l-.2.39a19.73,19.73,0,0,0,5.63-2.94,28.21,28.21,0,0,0,3.4-3l.34.92c-1.5,1.16-3.18,2.31-4.88,3.5a19.58,19.58,0,0,1-5.2,2.86c-.39.74-.8,1.45-1.22,2.15a9.44,9.44,0,0,0,3.4-.37,12,12,0,0,0,3.31-1.67,7.19,7.19,0,0,1-3.62,2.49,11.33,11.33,0,0,1-3.7.52C203.76,116.8,203.65,117,203.53,117.15Zm1.29,6-.21-1a15.22,15.22,0,0,0,4.4-1.41,16.63,16.63,0,0,0,3.65-2.78c-3.26,1.49-7.7,1-8.15,1a23,23,0,0,0,9.94-3,21.8,21.8,0,0,0,2.91-4.66L218,113a14.55,14.55,0,0,1-4,5.33,12.65,12.65,0,0,0,5.82-.52l.34.92a14.89,14.89,0,0,1-7.26.42,14.07,14.07,0,0,1-8.05,4Z"/><path class="cls-1" d="M214.65,104.09l-.05-.13.9-.35ZM218,113l-.62-1.68.19-.43a44,44,0,0,0,1.76-5.63,11.85,11.85,0,0,0-3.52,1.87l-.34-.92a9,9,0,0,1,4.22-2.39c.45-1.84.79-3.74,1.29-5.42a37.92,37.92,0,0,0-4.24,1.64,17.52,17.52,0,0,0-1.84,1,10.31,10.31,0,0,1,2.63-2,17.23,17.23,0,0,1,3.83-1.84l.07-.17a11.54,11.54,0,0,0-3.7,1.23,20.5,20.5,0,0,0-4.35,2.39l-.22-.59a26.58,26.58,0,0,1,4-2.43,13.39,13.39,0,0,1,4.8-1.91l.12-.26a9.64,9.64,0,0,0-3.82,1,16.9,16.9,0,0,0-5.11,3.52l-.39-1a14,14,0,0,1,4.48-3.5,12.78,12.78,0,0,1,2.94-1.16c1.12-.28,2.35-.49,3.65-.74a.42.42,0,0,1,.13,0l.59,1c-.06.08-.12.18-.18.28l.21-.23.33.54c-.49.48-.93,1-1.4,1.57a36.5,36.5,0,0,0-1.62,4.67c1-.73,3.26-2,4.86-3.21l.07.12a69.67,69.67,0,0,0-5.44,5l-.21.82c-.27,1-.59,2-.9,3,0,.14-.09.28-.14.43a17.1,17.1,0,0,0,5.08-3.81,23.69,23.69,0,0,0,1.56-1.79l1.23-1.74.51.83c-1.26,1.42-2.7,2.86-4.17,4.32-.74.73-1.5,1.45-2.27,2.11A15.38,15.38,0,0,1,219.6,109c-.28.8-.57,1.58-.88,2.34a10.46,10.46,0,0,0,6.36-3.1c-1.19,2.7-5.11,4-6.83,4.16Zm2.15,5.73-.34-.92a14.35,14.35,0,0,0,7.47-5.5,15.05,15.05,0,0,1-2.47,1.25,19.35,19.35,0,0,1-2.53.66,27.75,27.75,0,0,1-3,.43,22.9,22.9,0,0,0,5.58-2,33.42,33.42,0,0,0,3.92-2.63,23.12,23.12,0,0,0,1.2-2.45c.33-.9.62-1.8.87-2.69l.93,1.53a14.29,14.29,0,0,1-3.08,6,12.67,12.67,0,0,0,5.75-1.64l.51.84a14.87,14.87,0,0,1-7.24,1.8A14.89,14.89,0,0,1,220.13,118.74Z"/><path class="cls-1" d="M226.78,98.27l.74-.62c-.26.15-.53.31-.81.5Z"/><path class="cls-1" d="M237.55,84.49a15.46,15.46,0,0,0-1.34,2.85l.34-.43c.2-.28.47-.7.82-1.17a21.37,21.37,0,0,1,2.42-2.62,6.29,6.29,0,0,1-1.14-.11C238.25,83.51,237.87,84,237.55,84.49Z"/><path class="cls-1" d="M259.46,64.65l.18,0c.15,0,.28,0,.43,0a6.24,6.24,0,0,0-.92-3.48A11.28,11.28,0,0,1,259.46,64.65Z"/><path class="cls-1" d="M259.34,85.3c-.12,0-.22,0-.33,0a15.13,15.13,0,0,1-1,1.91,14.22,14.22,0,0,1-4.45,4.38,14.88,14.88,0,0,0,.15-6.27h-.14a4,4,0,0,1-1.28-.21,22,22,0,0,1,.24,4.23,18.07,18.07,0,0,1-2.43,4.23A18.93,18.93,0,0,1,245.78,98a18.9,18.9,0,0,0,6.5-5.82,16.45,16.45,0,0,1-1.62,4.56,17.29,17.29,0,0,1-1.31,2.12,15.2,15.2,0,0,1-1.79,1.8,13.47,13.47,0,0,1-5.34,3A14.52,14.52,0,0,0,244,97l0-.64c1.67-.73,4.45-4,4.53-6.81-.75,2.07-2.77,4.84-4.51,5.66a18.3,18.3,0,0,0-.16-2.51,21.65,21.65,0,0,0,2.65-5.39c.34-1.23.7-2.4,1-3.54a4.47,4.47,0,0,1-.6-.25c-.12.6-.26,1.23-.43,1.92a15.41,15.41,0,0,1-1,2.7,25.53,25.53,0,0,1-1.91,3c0-.16,0-.3-.07-.45-.17-1-.35-2.08-.52-3.11l-.15-.79c.39-1.06.69-2.27,1.07-3.33a4.66,4.66,0,0,1-.77.08c-.28.51-.53,1-.69,1.33-.09-.41-.17-.81-.25-1.21a3.26,3.26,0,0,1-.45.05,4,4,0,0,1-1.24-.2c.35,1.44.65,2.86,1,4.43A8.29,8.29,0,0,0,240,89.82a12.5,12.5,0,0,0-1.13,2c-.58,1.19-1,2.61-1.87,4.09a19.81,19.81,0,0,1-4.2,4.78c0-.16,0-.3.05-.44.11-1,.16-2.14.23-3.19l0-.83a33.53,33.53,0,0,1,2.3-3.39c.71-1.11,1.39-2,1.86-2.64l.59-.75c-.22.2-.46.41-.69.65-.7.68-1.45,1.52-2.12,2.31s-1.42,1.39-1.84,1.84c.11-1.7.31-3.27.47-4.89a18,18,0,0,1,1-1.79,45.78,45.78,0,0,1,2.68-3.83q.38-.43.75-.81l-1-.19a6.9,6.9,0,0,0-.53.68,20,20,0,0,0-1.25,2c-.39.61-.76,1.19-1.09,1.69l-.15.26.11-.3a20.4,20.4,0,0,1,2.35-4.45,8.2,8.2,0,0,1-1.33-.4,15.68,15.68,0,0,0-1.81,4.05.56.56,0,0,0-.13,0A25.62,25.62,0,0,0,230,87.74a11.49,11.49,0,0,0-2.58,1.63,15.67,15.67,0,0,0-3.52,4.2l.59,1a18,18,0,0,1,4.13-4.36,12.1,12.1,0,0,1,3.42-1.71l0,.29a13.37,13.37,0,0,0-4.19,2.74,41.62,41.62,0,0,0-3.29,3.09l.33.54A28.66,28.66,0,0,1,228.52,92a10.79,10.79,0,0,1,3.33-1.85l0,.17a13.57,13.57,0,0,0-3.3,2.5,12.64,12.64,0,0,0-2.12,2.41A17.93,17.93,0,0,1,228,94a24.27,24.27,0,0,1,3.72-2.41c-.12,1.72-.1,3.57-.11,5.52a9.78,9.78,0,0,0-3.65,3.13l.51.84a11.8,11.8,0,0,1,3.1-2.47,40.64,40.64,0,0,1-.66,5.84l-.12.46.93,1.53c.05-.2.11-.41.16-.62a12,12,0,0,0,3.39-1.81,7.65,7.65,0,0,0,2.56-3.7,13.27,13.27,0,0,1-2.55,2.82,9.91,9.91,0,0,1-3.14,1.55c.17-.81.32-1.62.44-2.46a18.29,18.29,0,0,0,3.87-4.55c1.23-1.64,2.1-3.59,3.1-5.14a16.46,16.46,0,0,1,1.21-1.7,7.92,7.92,0,0,1,1.18-1.46c.21,1,.4,1.94.56,3a25.9,25.9,0,0,1,.21,2.93l0,.46a25.44,25.44,0,0,1-.88,5.57,23.16,23.16,0,0,1-8.56,6.55c.45-.12,4.94-1.31,7.56-4a17.74,17.74,0,0,1-2.56,4,16.51,16.51,0,0,1-3.86,3l.51.84a17.17,17.17,0,0,0,3.88-2.9,17.89,17.89,0,0,0,2.66-3.93,14.87,14.87,0,0,0,6.81-3.49,18.93,18.93,0,0,0,1.8-1.78,19.57,19.57,0,0,0,1.34-2.1A17.92,17.92,0,0,0,253.15,93a17,17,0,0,0,5.72-5.3,18.59,18.59,0,0,0,1.23-2.44A4.56,4.56,0,0,1,259.34,85.3Z"/><path class="cls-1" d="M266.91,54a15.57,15.57,0,0,0-3.17-9.3,15.94,15.94,0,0,0-.24-7.84l-.93.33a14.88,14.88,0,0,1,.43,6.26,15.05,15.05,0,0,0-5.27-4.55l-1.7.6a26.52,26.52,0,0,1,4.65,3.25,33.76,33.76,0,0,1,1.59,4.64,24.21,24.21,0,0,1,.51,6.22,26.27,26.27,0,0,0,.37-3.2,21.08,21.08,0,0,0,0-2.76,16.56,16.56,0,0,0-.61-2.83,14.73,14.73,0,0,1,3.38,9.23,15.34,15.34,0,0,1-1.35,6.12,15.38,15.38,0,0,0-3.78-5.84c-.14-.15-.3-.3-.45-.45.31-1.74,0-6.07-2.27-7.93a10.82,10.82,0,0,1,1.37,7.15c-.65-.54-1.33-1-2-1.55a15.37,15.37,0,0,0-.86-2.79c-.44-.93-.94-1.85-1.46-2.75-.94-1.82-2.36-3.44-3.28-5l-.92.33c.82,1,1.85,2,2.86,3.45a16.56,16.56,0,0,1,2.37,5.9l-.37-.25c-.88-.58-1.73-1.13-2.68-1.64l-.73-.41c-.81-1.11-1.4-2.39-2.07-3.5s-1.2-2.12-1.53-2.79l-.13,0c.62,1.82,1.68,4.12,2,5.29-1.45-.84-2.83-1.65-4.19-2.48a16.74,16.74,0,0,1-1.15-1.63l-.59.21.16.24c-.08-.07-.15-.15-.22-.22l-1.06.38a.27.27,0,0,0-.05.12c-.45,5.07.2,8.15,2.29,11.09,0,0-.07.06-.09.1a19.15,19.15,0,0,0-1.63,7.62,4.09,4.09,0,0,1,.72-.07h.11a1.55,1.55,0,0,1,.29,0h.19a13.57,13.57,0,0,1,1.09-5.22l.19.22a14.18,14.18,0,0,0-.75,4.74c0,.07,0,.14,0,.21a5,5,0,0,1,.8-.12l0-.24a10.22,10.22,0,0,1,.88-3.57l.11.13a12.55,12.55,0,0,0-.39,3.68,3.61,3.61,0,0,1,.67.08,15.28,15.28,0,0,1,.58-2.86c1.18,1.21,2.58,2.43,4,3.76,0,.14-.07.26-.11.39a3.5,3.5,0,0,1,1.75.94,3.81,3.81,0,0,1,1.13.54l.4,0A3.67,3.67,0,0,1,257,65c-.06-3.44-1.51-7.23-2.41-10.3a14.16,14.16,0,0,1-.82-3.86,33.12,33.12,0,0,1,5,3.3l.33.32a27,27,0,0,1,3.52,4.42,28.93,28.93,0,0,1,.22,4.91c0,.27,0,.56-.07.85a4.18,4.18,0,0,1,.72.15,11.75,11.75,0,0,0,.36-3.39,14.08,14.08,0,0,1,1,3.67,3.38,3.38,0,0,1,1.07.43,14.63,14.63,0,0,0-.91-3.88A16,16,0,0,0,266.91,54Zm-20,1.07a13.93,13.93,0,0,1-2-9l.24.15a13.91,13.91,0,0,0,.6,4.77A33.31,33.31,0,0,0,247,55.08l.08.28Zm8.42,3.77a17,17,0,0,1,.61,6.32l-.28-.34c-.65-.8-1.38-1.57-2.13-2.34L253,61.9c-.73-2.59-1.41-5.58-1.67-7a7.43,7.43,0,0,0-.18-.93,9.11,9.11,0,0,1,0,.93c.06,1.93.46,4.44.41,5.65l-1.67-1.79q-.88-.89-1.65-1.77a16.25,16.25,0,0,1-.63-1.9,21.15,21.15,0,0,1-1.09-4.47,10.2,10.2,0,0,1-.19-3.67l.14.09a14.82,14.82,0,0,0,.75,3.94,9.2,9.2,0,0,0,1.2,2.85,14.77,14.77,0,0,1-.43-1.9,34.84,34.84,0,0,1-.44-4.27c1.48.83,3.22,1.6,4.88,2.49a9.71,9.71,0,0,0,1.13,4.62C254.07,56,254.74,57.2,255.34,58.85Z"/><path class="cls-1" d="M248.75,42.09l-.13,0c-.11-.31-.18-.62-.3-.89A8.39,8.39,0,0,1,248.75,42.09Zm9-3.18-1.7.6-.4-.22a32.54,32.54,0,0,0-5.7-1.76A15.36,15.36,0,0,0,251.82,41l-.92.33a9.84,9.84,0,0,1-2.4-4.11c-1.84-.37-3.73-.61-5.38-1a36.2,36.2,0,0,0,1.63,3.94,15.42,15.42,0,0,0,.95,1.69,9.17,9.17,0,0,1-2-2.38A14.57,14.57,0,0,1,241.92,36l-.16,0A9.91,9.91,0,0,0,243,39.36a21.66,21.66,0,0,0,2.3,4l-.59.21a34.73,34.73,0,0,1-2.33-3.59,13.64,13.64,0,0,1-1.93-4.33l-.28-.08a14,14,0,0,0,4.48,8l-1.06.38c-2.82-2.22-4.29-5-5.3-9.85a.53.53,0,0,1,0-.13l.9-.67.27.15-.22-.19.51-.37a14.78,14.78,0,0,0,1.55,1.2L246,35.2c-.63-1-2.32-2.9-3.43-4.46l.11-.08c.51.54,1.3,1.34,2.27,2.2s1.89,1.92,3,2.75l.82.17c1.06.22,2,.51,3,.81l.42.13a12.22,12.22,0,0,0-2-2.95,20.15,20.15,0,0,0-2-2c-1.39-1.05-2.66-1.71-3.74-2.45l.78-.59c1.33,1.24,3.18,2.36,4.6,3.85.76.71,1.5,1.45,2.19,2.21a16.64,16.64,0,0,1,1.63,2.43c.81.28,1.6.58,2.38.91a10.82,10.82,0,0,0-3.36-6.47c2.76,1.12,4.26,5.21,4.44,7Zm5.77-2-.93.33a14.79,14.79,0,0,0-5.89-7.94,15.84,15.84,0,0,1,1.4,2.56,20.09,20.09,0,0,1,.79,2.66,22.74,22.74,0,0,1,.55,3.19,23.92,23.92,0,0,0-2.26-5.85,32.08,32.08,0,0,0-2.88-4A26.1,26.1,0,0,0,248.87,26L250.31,25a15.08,15.08,0,0,1,6.4,2.85,15.14,15.14,0,0,0-2.28-5.92l.79-.59a16,16,0,0,1,2.57,7.51A15.57,15.57,0,0,1,263.5,36.87Z"/><path class="cls-1" d="M242.68,30.66l-.11.08A7.49,7.49,0,0,0,242,30,6.48,6.48,0,0,1,242.68,30.66Zm7.63-5.7L248.87,26l-.45-.09a31.18,31.18,0,0,0-6,0,14.24,14.24,0,0,0,2.83,2.73l-.78.59A9.56,9.56,0,0,1,241,26.12c-1.89.24-3.73.59-5.38.77a31.32,31.32,0,0,0,2.7,3.19,14.12,14.12,0,0,0,1.39,1.31,8.76,8.76,0,0,1-2.54-1.65A12.69,12.69,0,0,1,234.4,27h-.16a9.43,9.43,0,0,0,2.14,2.84,22.27,22.27,0,0,0,3.35,3l-.51.37A27.36,27.36,0,0,1,236,30.59a13.56,13.56,0,0,1-3.11-3.41l-.28,0a13,13,0,0,0,2,2.87c.56.53,1.2,1.07,1.9,1.66a15.74,15.74,0,0,0,2.63,1.55l-.9.67c-3.33-1.22-5.46-3.25-7.87-7.5,0,0,0-.1,0-.13l.63-.93.29.05-.26-.1.36-.52a17.44,17.44,0,0,0,1.81.64L238,25c-.9-.8-3.11-2-4.62-3.1l.08-.12c1.28.7,4,1.95,6.49,3l.83-.08a28.08,28.08,0,0,1,3.14-.18h.45a12.49,12.49,0,0,0-2.79-2.2A16.32,16.32,0,0,0,239.07,21c-1.66-.54-3.06-.78-4.32-1.13l.55-.81c3.35,1.33,8,2.68,10.65,5.45.85,0,1.7.07,2.55.15a10.53,10.53,0,0,0-5.21-5.18c3,.23,5.69,3.7,6.4,5.33Zm4.91-3.66-.79.59A14.87,14.87,0,0,0,246.3,16c3.22,2.3,5,6.87,5.26,7.26a23.34,23.34,0,0,0-4-4.94,27.13,27.13,0,0,0-4-3,25.84,25.84,0,0,0-5.7,0l1-1.48a15.42,15.42,0,0,1,7,.7,16.18,16.18,0,0,0-4.14-4.95l.55-.81a16.19,16.19,0,0,1,4.94,6.4A15.78,15.78,0,0,1,255.22,21.3Z"/><path class="cls-1" d="M233.47,21.77l-.08.12c-.26-.19-.53-.33-.77-.49A8.81,8.81,0,0,1,233.47,21.77Zm5.36-7.87-1,1.48c-.15,0-.31,0-.47.07a31.84,31.84,0,0,0-5.62,2,12.83,12.83,0,0,0,3.57,1.63l-.55.81a8.94,8.94,0,0,1-4.34-1.82c-1.72.9-3.3,1.82-4.78,2.57a30.38,30.38,0,0,0,3.57,2.06,13.15,13.15,0,0,0,1.71.77,8.79,8.79,0,0,1-2.89-.7,11.17,11.17,0,0,1-3.48-1.6l-.15.08a9.8,9.8,0,0,0,2.93,1.92,20.88,20.88,0,0,0,4.08,1.65l-.36.52A26.14,26.14,0,0,1,227.18,24a11,11,0,0,1-2.12-.9,8.25,8.25,0,0,1-1-.62,6.52,6.52,0,0,1-.94-.6l-.25.11a6.36,6.36,0,0,0,1.14.9A8.66,8.66,0,0,0,225.76,24,15.28,15.28,0,0,0,231,25.39l-.63.93c-3.51,0-6-1.12-9.77-4.28a.34.34,0,0,1-.06-.12l.27-1.08.29-.06h-.28l.15-.62a15.34,15.34,0,0,0,1.91,0L227.22,18c-1.1-.46-3.59-.75-5.38-1.32l0-.14c1.43.24,4.45.41,7.09.59l.75-.36a30.61,30.61,0,0,1,2.91-1.24l.42-.14a12,12,0,0,0-3.38-1.12,12.37,12.37,0,0,0-2.81-.36c-1.75.07-3.14.32-4.43.43l.23-1c3.6.09,8.44-.23,11.87,1.51.81-.27,1.64-.49,2.46-.68a10.29,10.29,0,0,0-2.91-2.16,11.35,11.35,0,0,0-3.77-1,7.19,7.19,0,0,1,4.58.64A12.51,12.51,0,0,1,238.18,14,5.13,5.13,0,0,1,238.83,13.9Zm3.44-5.06-.55.81A17.1,17.1,0,0,0,237,7.31a15.46,15.46,0,0,0-5-.54c3.85,1.08,7.14,4.83,7.48,5.14a21.92,21.92,0,0,0-10.32-4.79,25.73,25.73,0,0,0-5.37,2l.44-1.74a15.67,15.67,0,0,1,6.87-1.77,16.63,16.63,0,0,0-5.63-3.22l.23-1a21.35,21.35,0,0,1,3.58,1.66A19.1,19.1,0,0,1,231,4.2q.81.72,1.59,1.53a16,16,0,0,1,5,.71A18.23,18.23,0,0,1,242.27,8.84Z"/><path class="cls-1" d="M221.88,16.58l0,.14c-.3-.1-.61-.12-.89-.19A7.78,7.78,0,0,1,221.88,16.58Zm2.3-9.23-.44,1.74-.41.22a32.24,32.24,0,0,0-4.59,3.83,12.82,12.82,0,0,0,3.92.28l-.23,1a9,9,0,0,1-4.72-.21c-1.3,1.39-2.5,2.85-3.66,4.06a39.37,39.37,0,0,0,4.12.71,15.07,15.07,0,0,0,1.88.13,8.63,8.63,0,0,1-3,.34,13.21,13.21,0,0,1-3.89-.3l-.12.11a9.71,9.71,0,0,0,3.49.78,18.13,18.13,0,0,0,4.42.16l-.15.62a23.13,23.13,0,0,1-4.12,0,12.21,12.21,0,0,1-4.66-.67l-.22.2a13.37,13.37,0,0,0,9,.49l-.27,1.08a13,13,0,0,1-2.42.65,22.09,22.09,0,0,1-2.48.11,9.31,9.31,0,0,1-2.75-.46,27.06,27.06,0,0,1-3.5-1c-.05,0-.08-.07-.11-.09L209.23,20l.29-.15-.3.09,0-.63a20.13,20.13,0,0,0,2-.69c1.25-1.11,2.34-2.18,3.52-3.37-.6.06-1.5,0-2.53.18s-2.18.28-3.17.34v-.14c.75-.15,1.89-.4,3.17-.76a39.7,39.7,0,0,0,3.9-1l.58-.6a28.7,28.7,0,0,1,2.31-2.14l.34-.28a11.5,11.5,0,0,0-3.55.09,21.34,21.34,0,0,0-2.77.61c-1.62.57-2.88,1.34-4.11,1.86l-.06-1c1.78-.5,3.71-1.41,5.73-1.84,1-.26,2-.5,3-.68a13.21,13.21,0,0,1,2.94,0c.68-.53,1.37-1,2.08-1.5a10.44,10.44,0,0,0-3.47-1,9.88,9.88,0,0,0-3.86.33c2.43-1.78,6.75-.77,8.35,0A3.28,3.28,0,0,1,224.18,7.35Zm1.47-5.95-.23,1A14.86,14.86,0,0,0,215.34,3a17.3,17.3,0,0,1,2.95.17A16.07,16.07,0,0,1,221,4a27.32,27.32,0,0,1,3,1.29A23.37,23.37,0,0,0,217.79,4a36.46,36.46,0,0,0-5,.3,27.12,27.12,0,0,0-4.27,3.63l-.1-1.8A21,21,0,0,1,211,3.82a9.25,9.25,0,0,1,3.07-1.59,11.75,11.75,0,0,0-3.07-1,17.24,17.24,0,0,0-2.9-.28l-.06-1a15.89,15.89,0,0,1,7.47,1.85A15.76,15.76,0,0,1,225.65,1.4Z"/><path class="cls-1" d="M209,15.62v.14l-.95,0Zm-.55-9.51.1,1.8-.31.33c-.64.75-1.22,1.54-1.78,2.33s-1.06,1.72-1.54,2.57a21,21,0,0,0,3.89-.77l.06,1a11.11,11.11,0,0,1-2.17.74,8.84,8.84,0,0,1-2.52.37c-.94,1.67-1.85,3.29-2.68,4.75a22.77,22.77,0,0,0,4.41-.34c1.17-.26,2-.42,2-.42a15.23,15.23,0,0,1-3,1.23,27,27,0,0,1-4.08.65l-.1.14a9.87,9.87,0,0,0,1.74,0,14.78,14.78,0,0,0,2-.12,42.87,42.87,0,0,0,4.68-1.09l0,.63c-.57.18-1.26.36-2,.55a20.65,20.65,0,0,1-2.33.67,17.68,17.68,0,0,1-2.51.38,9.25,9.25,0,0,1-2.46.1l-.17.22A14.94,14.94,0,0,0,209.23,20l.06,1.12c-3.16,1.91-6.41,2.87-11.66,2.06a.81.81,0,0,1-.13-.06L197.18,22l.24-.23-.26.17-.18-.61,1.74-1.09a43.35,43.35,0,0,0,2.68-4.16c-1.15.47-3.58,1.24-5.44,1.86l0-.14c.67-.39,1.74-.79,2.9-1.39s2.43-1.37,3.6-2l.43-.69,1.7-2.66.25-.38A15.45,15.45,0,0,0,198.86,13a33.86,33.86,0,0,0-3.59,2.67l-.28-.94,5.14-3.11a23.43,23.43,0,0,1,5.56-2.21,21,21,0,0,1,1.54-2c-1.83-.57-5.14.18-7.08,1.17,1.93-2,6.13-2.57,7.84-2ZM208.08,0l.06,1a16.71,16.71,0,0,0-2.47.16,16.63,16.63,0,0,0-2.34.7,17.91,17.91,0,0,0-4.18,2.26,19.35,19.35,0,0,1,8.58.05,19.29,19.29,0,0,0-6.06.4A18,18,0,0,0,197.09,6a21.79,21.79,0,0,0-3.39,4.43l-.51-1.72a15.11,15.11,0,0,1,4.64-5.05,14.9,14.9,0,0,0-6.12.13l-.28-.94a17.29,17.29,0,0,1,7.64.05A18.85,18.85,0,0,1,203.28.8a14.49,14.49,0,0,1,2.34-.65A16.59,16.59,0,0,1,208.08,0Z"/><path class="cls-1" d="M192.05,7c-.47,0-5.18.13-8.35,2.05a17.45,17.45,0,0,1,3.47-3.28,16.56,16.56,0,0,1,4.54-2l-.28-.94a18.13,18.13,0,0,0-4.55,1.91,17.77,17.77,0,0,0-3.54,3.14A16.3,16.3,0,0,0,176,9.49l.49.86a15.48,15.48,0,0,1,5.79-1.48,16.3,16.3,0,0,0-3.26,6l.88,1.56a29.54,29.54,0,0,1,2.22-5.08A22.92,22.92,0,0,1,192.05,7Z"/><path class="cls-1" d="M197.18,22a16.55,16.55,0,0,1-5,3.2,10.91,10.91,0,0,1-2.17.63,8.61,8.61,0,0,1-1.61.25l.12-.27a16.36,16.36,0,0,0,4.77-1.68A34.45,34.45,0,0,0,197.16,22l-.18-.61a25.75,25.75,0,0,1-4.24,2.16,12.15,12.15,0,0,1-3.7,1l.06-.17a13.66,13.66,0,0,0,3.84-1.61,11.37,11.37,0,0,0,2.6-1.82,16.65,16.65,0,0,1-1.82.82,23.34,23.34,0,0,1-4.2,1.41c.54-1.63,1-3.43,1.47-5.31a9.54,9.54,0,0,0,4.28-2.17l-.28-.94a11.9,11.9,0,0,1-3.6,1.67,38,38,0,0,1,2.08-5.53l.23-.42-.51-1.72-.32.57a12.1,12.1,0,0,0-3.75,1,7.59,7.59,0,0,0-3.39,2.94,13.55,13.55,0,0,1,3.16-2.09,9.91,9.91,0,0,1,3.44-.76c-.37.74-.72,1.5-1,2.29-3.45,1.53-6.49,5.14-9.19,7.65l.48.85c.88-1,1.71-2.19,2.89-3.46a18.33,18.33,0,0,1,5.24-3.6c-.05.14-.11.27-.16.41-.36,1-.67,2-1,3l-.25.8a59.71,59.71,0,0,1-5.6,4.81l.07.12c1.75-.93,3.86-2.49,4.95-3-.55,1.57-1.07,3.18-1.71,4.66a18.73,18.73,0,0,1-1.49,1.47l.31.55.22-.21-.19.26.55,1a.28.28,0,0,0,.13,0c5.47-.62,8.46-2.11,10.95-4.82Z"/><path class="cls-1" d="M183.71,23.11l.07.12-.84.47A8.79,8.79,0,0,1,183.71,23.11ZM179,14.82l.88,1.56c0,.14-.09.3-.14.44a44.16,44.16,0,0,0-.83,5.89,13.77,13.77,0,0,0,3.17-2.43l.48.85a9.67,9.67,0,0,1-3.77,3.07c-.16,1.87-.26,3.8-.55,5.55a28.56,28.56,0,0,0,4-2.3A17.79,17.79,0,0,0,184,26.19,16.34,16.34,0,0,1,178,31.05l0,.18a13.22,13.22,0,0,0,3.64-1.81,22.24,22.24,0,0,0,3.9-3.1l.31.55A34.18,34.18,0,0,1,182.31,30a15.33,15.33,0,0,1-4.68,2.68l-.09.29a14.93,14.93,0,0,0,8.33-6l.55,1c-2,3.24-4.91,5.57-10.58,7.24h-.14l-.68-.9.17-.3a3,3,0,0,0-.21.26l-.38-.51q.71-.84,1.35-1.77a38.24,38.24,0,0,0,1-5c-1,.81-2.92,2.61-4.53,3.91l-.09-.11c.56-.57,1.39-1.45,2.27-2.49a26.73,26.73,0,0,0,2.6-3.31l.09-.83c.14-1,.29-2.07.43-3.12l.07-.45c-4.28,3.14-5.38,6.07-6.84,8.39l-.59-.78c1.18-1.46,2.32-3.22,3.6-4.83A19.89,19.89,0,0,1,178.07,19c.13-.84.3-1.66.48-2.46a11.1,11.1,0,0,0-5.76,4c.77-2.75,4.4-4.72,6.05-5.18C178.9,15.22,179,15,179,14.82Zm-3-5.33.49.86a14.46,14.46,0,0,0-6.45,6.54,14.48,14.48,0,0,1,4.57-2.58,27.69,27.69,0,0,1,2.91-1,26,26,0,0,0-5.15,2.9,32.56,32.56,0,0,0-3.4,3.07,28.69,28.69,0,0,0-1.3,5.28l-1.09-1.42A15.61,15.61,0,0,1,168.7,17a13.85,13.85,0,0,0-5.23,2.15l-.59-.78a15.72,15.72,0,0,1,6.61-2.48A15.22,15.22,0,0,1,176,9.49Z"/><path class="cls-1" d="M172.36,30.76l.09.11-.8.59Zm-5.77-7.57,1.09,1.42c0,.15-.05.31-.07.46A48.43,48.43,0,0,0,167.5,31a14.09,14.09,0,0,0,2.89-2.81L171,29a10.22,10.22,0,0,1-3.44,3.54,47.76,47.76,0,0,1-.15,5.64A23.67,23.67,0,0,0,173,33.79a16.25,16.25,0,0,1-5.75,5.69l0,.19a20.61,20.61,0,0,0,7.42-6l.38.51c-1.65,2-4.69,5.48-8.11,7l-.09.3A15.82,15.82,0,0,0,175,34.24l.68.9c-1.72,3.53-4.76,6.62-10.63,8.7a.39.39,0,0,1-.15,0L164.2,43l.18-.33-.21.28-.41-.48c.48-.61.93-1.25,1.35-1.9a30.69,30.69,0,0,0,.79-5.12c-.91,1-2.8,2.9-4.41,4.29l-.09-.1a37.12,37.12,0,0,0,4.6-6.21l0-.84c0-1,.07-2.1.1-3.16,0-.15,0-.29,0-.45-3.9,3.54-4.82,6.51-6.21,8.91l-.63-.76c2.25-3,4.26-7.18,6.89-9.71,0-.85.08-1.67.17-2.47a11.44,11.44,0,0,0-5.18,4.51c.58-2.7,3.68-5.06,5.31-5.64C166.53,23.6,166.56,23.38,166.59,23.19Zm-3.71-4.87.59.78A14.24,14.24,0,0,0,158.15,26a20.22,20.22,0,0,1,6.79-4,25.08,25.08,0,0,0-7.56,6.49,33.62,33.62,0,0,0-.93,5.26l-1.15-1.38a17.27,17.27,0,0,1,1.57-6.21A14.2,14.2,0,0,0,152,28.36l-.63-.75A16.08,16.08,0,0,1,157.5,25,14.7,14.7,0,0,1,162.88,18.32Z"/><path class="cls-1" d="M161.4,39.63l.09.1-.79.65Zm-6.1-7.32,1.15,1.38c0,.14,0,.31,0,.45-.07,1.94,0,3.94.09,5.9a12.1,12.1,0,0,0,2.81-2.92l.63.76a9.49,9.49,0,0,1-3.39,3.68,40,40,0,0,1-.18,5.71,23.61,23.61,0,0,0,5.72-4.6,16.43,16.43,0,0,1-5.92,6l0,.19a20.29,20.29,0,0,0,7.63-6.37l.41.48c-1.65,2.18-4.85,5.87-8.42,7.39l-.1.31A15.93,15.93,0,0,0,164.2,43l.72.86c-1.74,3.77-5,7.13-11.13,9.22h-.15l-.69-.88c.06-.1.12-.22.19-.33l-.23.28-.39-.49c.51-.61,1-1.25,1.45-1.92a25.59,25.59,0,0,0,.93-5.17,58.52,58.52,0,0,1-4.57,4.3l-.09-.11A31.75,31.75,0,0,0,155,42.52l0-.84c0-1,.05-2.1.07-3.17v-.45c-3.78,3.6-4.8,6.51-6.26,8.9l-.61-.77c2.36-3,4.36-7.12,6.89-9.68,0-.85,0-1.66.07-2.46a11.59,11.59,0,0,0-5,4.52c.53-2.69,3.54-5,5.06-5.64Zm-3.92-4.7.63.75a14.17,14.17,0,0,0-4.85,6.73,21,21,0,0,1,6.46-4,26.76,26.76,0,0,0-7.2,6.38,39.76,39.76,0,0,0-.95,5.17l-1.11-1.41a17.94,17.94,0,0,1,1.55-6.07,13.83,13.83,0,0,0-4.73,2l-.6-.78a15.76,15.76,0,0,1,5.93-2.34A14.39,14.39,0,0,1,151.38,27.61Z"/><path class="cls-1" d="M150.24,48.75l.09.11-.82.64Zm-5.88-7.49,1.11,1.41-.05.45c-.11,1.94-.11,3.92-.13,5.89a11.43,11.43,0,0,0,2.94-2.82l.61.77a9.18,9.18,0,0,1-3.57,3.57,34.78,34.78,0,0,1-.53,5.73,24.07,24.07,0,0,0,6.08-4.42,16.31,16.31,0,0,1-6.4,5.78l-.06.19c2.45-.78,5.58-3.06,8.16-6.16l.39.49c-1.78,2.18-5.27,5.87-9,7.16l-.12.31A16,16,0,0,0,153,52.19l.69.88c-1.93,3.82-5.62,7.15-12,8.89a.71.71,0,0,1-.15,0l-.63-.93.22-.32-.25.27-.35-.52c.56-.59,1.09-1.21,1.6-1.85a27.07,27.07,0,0,0,1.33-5.13c-1,.89-3.14,2.76-4.91,4l-.07-.12a32.65,32.65,0,0,0,5.21-6l.07-.84c.1-1.07.16-2.12.22-3.18,0-.14,0-.29,0-.44-3.9,3.44-5.18,6.17-6.79,8.52l-.55-.81c2.57-2.85,4.84-6.81,7.42-9.25.05-.85.1-1.65.15-2.44a11.25,11.25,0,0,0-5.12,4.23c.64-2.68,3.7-4.73,5.21-5.35C144.32,41.66,144.34,41.45,144.36,41.26Zm-3.78-4.82.6.78a13.8,13.8,0,0,0-4.91,6.35c2.25-2.14,6-3.37,6.45-3.56a29,29,0,0,0-7.31,5.86A40.72,40.72,0,0,0,134.16,51l-1-1.49A17.92,17.92,0,0,1,135,43.56a12.3,12.3,0,0,0-4.73,1.64l-.55-.82a14,14,0,0,1,5.92-1.83A14,14,0,0,1,140.58,36.44Z"/><path class="cls-1" d="M305.08,81.56v.14l-1,0Zm0-9.52v1.8l-.33.31c-1.3,1.43-2.52,3-3.74,4.56a12.86,12.86,0,0,0,4.07-.4v1a9.89,9.89,0,0,1-5,.61,41.16,41.16,0,0,1-3.83,4.25,24.77,24.77,0,0,0,7.39.19,17,17,0,0,1-8.43.73l-.15.12a21,21,0,0,0,10,.06v.63c-2.73.59-7.6,1.33-11.28.24l-.27.18a16.55,16.55,0,0,0,11.55-.36v1.13c-3.84,1.74-8.54,2.19-14.49-.09a.62.62,0,0,1-.12-.09l0-1.13.36-.13-.36.07,0-.63a19.44,19.44,0,0,0,2.32-.54,28.83,28.83,0,0,0,4-3.4,58.23,58.23,0,0,1-6.26.4v-.14a33.18,33.18,0,0,0,7.65-1.75l.57-.62,2.1-2.39.3-.34c-5.25.29-7.92,1.94-10.57,2.82l0-1c3.73-.79,8-2.71,11.56-3l1.64-1.83a11.42,11.42,0,0,0-6.77.23c2.17-1.73,6-1.54,7.54-1Zm0-6.12v1a14.13,14.13,0,0,0-8.06,2A20.84,20.84,0,0,1,304.55,70a26.27,26.27,0,0,0-9.66.24,42.11,42.11,0,0,0-4.11,3.38l0-1.79a18.79,18.79,0,0,1,5.17-3.7,14.79,14.79,0,0,0-5.05-1.44l0-1a16.26,16.26,0,0,1,6.19,2A14.37,14.37,0,0,1,305.08,65.92Z"/><path class="cls-1" d="M319.65,81.74v.14l-1,0Zm0-9.52V74l-.33.32c-1.3,1.43-2.52,3-3.74,4.55a12.3,12.3,0,0,0,4.07-.4v1a9.89,9.89,0,0,1-5,.61,41.16,41.16,0,0,1-3.83,4.25,24.57,24.57,0,0,0,7.39.18,16.91,16.91,0,0,1-8.43.74l-.15.12a21,21,0,0,0,10,.06v.63c-2.73.59-7.6,1.33-11.28.24l-.27.18a16.55,16.55,0,0,0,11.55-.36v1.12c-3.84,1.75-8.54,2.2-14.49-.08a.4.4,0,0,1-.12-.1l0-1.12.35-.13-.35.07,0-.63a19.44,19.44,0,0,0,2.32-.54,28.83,28.83,0,0,0,4-3.4,56,56,0,0,1-6.26.39v-.14a32.57,32.57,0,0,0,7.65-1.74l.57-.63,2.1-2.38.3-.34c-5.25.29-7.92,1.94-10.57,2.82l0-1c3.73-.79,8-2.71,11.56-3l1.64-1.83a11.49,11.49,0,0,0-6.77.22c2.17-1.72,6-1.53,7.54-1Zm0-6.12v1a14,14,0,0,0-8.06,2,20.61,20.61,0,0,1,7.53,1.14,26.33,26.33,0,0,0-9.67.24,41.75,41.75,0,0,0-4.1,3.38l0-1.79a18.79,18.79,0,0,1,5.17-3.7,14.57,14.57,0,0,0-5.05-1.44l0-1a16.29,16.29,0,0,1,6.19,2A14.37,14.37,0,0,1,319.65,66.1Z"/><path class="cls-1" d="M334.21,81.92v.14l-1,0Zm0-9.52v1.8l-.32.31c-1.3,1.43-2.53,3-3.74,4.56a12.82,12.82,0,0,0,4.06-.4v1a9.74,9.74,0,0,1-5,.61,42.34,42.34,0,0,1-3.83,4.25,24.78,24.78,0,0,0,7.39.19,17.08,17.08,0,0,1-8.43.73l-.15.12a20.83,20.83,0,0,0,10,.06v.63c-2.72.59-7.59,1.33-11.27.24l-.27.18a16.52,16.52,0,0,0,11.54-.36v1.13c-3.84,1.74-8.53,2.19-14.49-.09a.62.62,0,0,1-.12-.09l0-1.12L320,86l-.35.06v-.63a17.31,17.31,0,0,0,2.32-.54,28.91,28.91,0,0,0,4-3.4,56.07,56.07,0,0,1-6.26.4v-.14A33.13,33.13,0,0,0,327.39,80l.56-.62L330.06,77l.29-.34c-5.25.29-7.91,1.94-10.56,2.82l0-1c3.73-.79,8-2.71,11.56-3L333,73.65a11.58,11.58,0,0,0-6.77.23c2.16-1.73,5.95-1.54,7.54-1Zm0-6.12v1a14,14,0,0,0-8,2,20.61,20.61,0,0,1,7.52,1.13,26.29,26.29,0,0,0-9.66.24A43.34,43.34,0,0,0,319.91,74l0-1.79a18.75,18.75,0,0,1,5.16-3.7,14.74,14.74,0,0,0-5-1.44l0-1a16.21,16.21,0,0,1,6.19,2A14.46,14.46,0,0,1,334.21,66.28Z"/><path class="cls-1" d="M14.61,81.41v.14l-1,0Zm0-9.52v1.79l-.32.32c-1.3,1.43-2.53,3-3.75,4.55a12.3,12.3,0,0,0,4.07-.4v1a9.87,9.87,0,0,1-5,.61A42.25,42.25,0,0,1,5.78,84a24.59,24.59,0,0,0,7.39.18,16.94,16.94,0,0,1-8.43.74L4.58,85a21,21,0,0,0,10,.06v.63c-2.72.59-7.6,1.33-11.27.24l-.27.18a16.52,16.52,0,0,0,11.54-.36v1.12c-3.84,1.75-8.54,2.2-14.49-.08a.4.4,0,0,1-.12-.1l0-1.12.35-.13L0,85.55v-.63a19,19,0,0,0,2.32-.54,29.5,29.5,0,0,0,4-3.4,56.37,56.37,0,0,1-6.26.39v-.14a32.52,32.52,0,0,0,7.66-1.74l.56-.63,2.11-2.38.29-.34C5.5,76.42,2.84,78.08.18,79l0-1c3.73-.79,8-2.71,11.56-3l1.63-1.83a11.46,11.46,0,0,0-6.76.22c2.16-1.72,6-1.53,7.54-1Zm0-6.12v1a14,14,0,0,0-8,2,20.54,20.54,0,0,1,7.52,1.14,26.53,26.53,0,0,0-9.66.23A43.46,43.46,0,0,0,.31,73.51l0-1.8A19.11,19.11,0,0,1,5.52,68a14.58,14.58,0,0,0-5-1.44l0-1a16.24,16.24,0,0,1,6.19,2A14.37,14.37,0,0,1,14.61,65.77Z"/><path class="cls-1" d="M29.18,81.59v.14l-1,0Zm0-9.52v1.8l-.33.31c-1.29,1.43-2.52,3-3.74,4.56a12.86,12.86,0,0,0,4.07-.4v1a9.89,9.89,0,0,1-5,.61,41.16,41.16,0,0,1-3.83,4.25,24.77,24.77,0,0,0,7.39.19,17,17,0,0,1-8.43.73l-.15.12a20.87,20.87,0,0,0,10,.06v.63c-2.73.59-7.6,1.33-11.28.24l-.27.18A16.55,16.55,0,0,0,29.18,86V87.1c-3.84,1.74-8.54,2.19-14.49-.09a.62.62,0,0,1-.12-.09l0-1.13.36-.12-.36.06,0-.63a17.67,17.67,0,0,0,2.32-.54,28.83,28.83,0,0,0,4-3.4,55.74,55.74,0,0,1-6.26.4v-.14a33.18,33.18,0,0,0,7.65-1.75l.57-.62L25,76.66l.3-.34c-5.25.29-7.92,1.94-10.57,2.82l0-1c3.73-.79,8-2.71,11.56-3L28,73.32a11.5,11.5,0,0,0-6.77.23c2.17-1.73,6-1.54,7.54-1Zm0-6.12v1a14.06,14.06,0,0,0-8.06,2,20.68,20.68,0,0,1,7.53,1.13,26.28,26.28,0,0,0-9.66.24,42.11,42.11,0,0,0-4.11,3.38l0-1.79a18.79,18.79,0,0,1,5.17-3.7A14.79,14.79,0,0,0,15,66.76l0-1a16.26,16.26,0,0,1,6.19,2A14.46,14.46,0,0,1,29.18,66Z"/><path class="cls-1" d="M290.6,81.39v.14l-1,0Zm.22-9.52,0,1.79-.33.31c-1.33,1.4-2.6,3-3.85,4.47a12.66,12.66,0,0,0,4.07-.31l0,1a9.8,9.8,0,0,1-5,.5,41.2,41.2,0,0,1-3.94,4.17,24.88,24.88,0,0,0,7.4.35,17.24,17.24,0,0,1-8.47.55l-.16.11a21.09,21.09,0,0,0,10.06.28l0,.63c-2.74.52-7.65,1.19-11.31,0l-.28.17c1.72.84,6.49,1.79,11.59-.08l0,1.13c-3.9,1.62-8.62,2.07-14.55-.48a.4.4,0,0,1-.12-.1l.06-1.12.36-.12-.36.06,0-.63a21.54,21.54,0,0,0,2.34-.47,25.08,25.08,0,0,0,4.13-3.26,49.23,49.23,0,0,1-6.28.19v-.14a31,31,0,0,0,7.71-1.51l.59-.61,2.16-2.34.31-.33c-5.26.21-8,1.72-10.65,2.52l0-1c3.76-.64,8-2.45,11.64-2.69l1.68-1.79a11.47,11.47,0,0,0-6.76.08c2.2-1.68,6-1.41,7.55-.88Zm.15-6.12,0,1a13.88,13.88,0,0,0-8.07,1.83,20.22,20.22,0,0,1,7.47,1.3,26.27,26.27,0,0,0-9.64,0,38.88,38.88,0,0,0-4.18,3.22l.09-1.79a18.7,18.7,0,0,1,5.25-3.51,14.43,14.43,0,0,0-5-1.62l.06-1A16.35,16.35,0,0,1,283,67.38,14.18,14.18,0,0,1,291,65.75Z"/><path class="cls-1" d="M276.1,80.82V81l-1-.07Zm.51-9.51-.09,1.79-.34.31c-1.37,1.36-2.69,2.87-4,4.37a12.81,12.81,0,0,0,4.08-.21l0,1a9.85,9.85,0,0,1-5.05.37,34.29,34.29,0,0,1-4.1,4,19.28,19.28,0,0,0,5.1.67c1.39,0,2.33-.07,2.33-.07a16.09,16.09,0,0,1-8.53.24l-.17.11c2.34,1,6.13,1.28,10.1.63l0,.63c-2.77.47-7.72,1-11.37-.43l-.29.16a16,16,0,0,0,11.66.33l-.06,1.12a16.32,16.32,0,0,1-6.59,1.16,22.3,22.3,0,0,1-8-2.12c-.05,0-.09-.08-.12-.1l.11-1.12.36-.11-.36,0,.06-.63c.79-.09,1.59-.23,2.38-.4A27.92,27.92,0,0,0,267.88,80c-1.34,0-4.15.11-6.31,0v-.14a35.82,35.82,0,0,0,7.79-1.2L270,78c.75-.75,1.49-1.51,2.25-2.28l.31-.32c-5.25.05-8,1.35-10.73,2.13l.09-1c3.79-.59,8.12-2.08,11.72-2.28.6-.6,1.18-1.18,1.73-1.75a12,12,0,0,0-6.74-.13c2.25-1.53,6-1.23,7.56-.64ZM277,65.2l-.06,1a14.47,14.47,0,0,0-8.08,1.58,21.62,21.62,0,0,1,7.39,1.53,29.58,29.58,0,0,0-9.59-.32,39.52,39.52,0,0,0-4.3,3.11l.17-1.79A17.94,17.94,0,0,1,267.84,67,13.43,13.43,0,0,0,263,65.17l.09-1a15,15,0,0,1,6,2.39A14.81,14.81,0,0,1,277,65.2Z"/><path class="cls-1" d="M261.58,79.77v.14l-1-.1Zm.9-9.48-.17,1.79-.35.29c-1.42,1.34-2.79,2.77-4.17,4.18a11.08,11.08,0,0,0,4.1,0l-.09,1a9.18,9.18,0,0,1-5.07.13,38.53,38.53,0,0,1-4.31,3.81,25.46,25.46,0,0,0,7.45,1,17.2,17.2,0,0,1-8.6-.17l-.17.1a20.49,20.49,0,0,0,10.13,1.09l-.06.63c-2.79.4-7.84.55-11.44-.94l-.3.13a16.44,16.44,0,0,0,11.74.87l-.11,1.12a15.14,15.14,0,0,1-6.7.81,20.33,20.33,0,0,1-8-2.52.57.57,0,0,1-.11-.11l.17-1.11.37-.08-.36,0,.09-.62c.8,0,1.61-.12,2.42-.24a24,24,0,0,0,4.45-2.88,44.39,44.39,0,0,1-6.33-.39l0-.14a29.3,29.3,0,0,0,7.87-.8l.63-.57c.8-.7,1.58-1.42,2.35-2.14l.33-.31c-5.24-.24-8.08,1-10.84,1.57l.15-1c3.81-.25,8.23-1.74,11.81-1.66l1.8-1.66a11.55,11.55,0,0,0-6.7-.48c2.33-1.5,6-.85,7.54-.28Zm.58-6.09-.09,1a14.36,14.36,0,0,0-8.06,1.21c3.16,0,6.82,1.75,7.24,1.88a26.88,26.88,0,0,0-9.49-.74,42.69,42.69,0,0,0-4.42,2.83l.27-1.77a19.32,19.32,0,0,1,5.47-3,14.62,14.62,0,0,0-4.69-2l.14-1a16.79,16.79,0,0,1,5.74,2.69A14.59,14.59,0,0,1,263.06,64.2Z"/><path class="cls-1" d="M247.07,78l0,.14L246,78Zm1.44-9.41-.27,1.77-.37.27c-1.49,1.23-3,2.61-4.41,4a12.73,12.73,0,0,0,4.1.18l-.15,1a9.4,9.4,0,0,1-5.08-.14,36.22,36.22,0,0,1-4.59,3.48,22,22,0,0,0,5.09,1.28,23.18,23.18,0,0,0,2.36.16,16.1,16.1,0,0,1-8.67-.73l-.18.09a20,20,0,0,0,10.17,1.76l-.09.62a31.17,31.17,0,0,1-5.5-.07,19,19,0,0,1-6-1.64l-.31.13a16.48,16.48,0,0,0,11.82,1.64l-.17,1.11c-4.16,1.2-9.15.81-14.8-2.74-.05,0-.08-.09-.11-.12l.26-1.09.39,0h-.38l.15-.61c.82,0,1.64,0,2.47,0a26.1,26.1,0,0,0,4.69-2.57,42.47,42.47,0,0,1-6.34-.86l0-.14a28.76,28.76,0,0,0,8-.21l.66-.51c.85-.64,1.67-1.29,2.48-2l.35-.29c-5.19-.63-8.12.5-10.93.77l.23-1a41.39,41.39,0,0,0,6-.51,37.3,37.3,0,0,1,5.84-.32l1.89-1.57a12.42,12.42,0,0,0-6.61-.87c2.38-1.26,6-.51,7.49.17Zm.92-6-.14,1a11.85,11.85,0,0,0-4.06-.19,16.15,16.15,0,0,0-3.95.92,22.79,22.79,0,0,1,7,2.3A29.34,29.34,0,0,0,239,65.2c-1.56.76-3.06,1.58-4.59,2.5l.41-1.74a20.38,20.38,0,0,1,5.62-2.63A15.13,15.13,0,0,0,236,61l.23-1a16.87,16.87,0,0,1,5.39,3.09A14.91,14.91,0,0,1,249.43,62.53Z"/><path class="cls-1" d="M232.61,75.22l0,.14-1-.26Zm2.2-9.26-.41,1.74c-.12.08-.26.17-.39.24-1.57,1.1-3.15,2.36-4.73,3.57a12.3,12.3,0,0,0,4.08.54l-.23,1a9.41,9.41,0,0,1-5.08-.6,34.76,34.76,0,0,1-5,3,23.66,23.66,0,0,0,5,1.79,22.12,22.12,0,0,0,2.38.37c-1.88.38-5.43-.09-8.72-1.58l-.19.07a20.11,20.11,0,0,0,10.15,2.74l-.15.61c-2.89,0-8.11-.63-11.53-2.88l-.33.08a12.8,12.8,0,0,0,4.38,2.21,16.32,16.32,0,0,0,7.47.65l-.26,1.09a15.22,15.22,0,0,1-7-.25,20.86,20.86,0,0,1-3.84-1.44,27.21,27.21,0,0,1-4-2.61c-.05,0-.07-.1-.1-.13l.39-1h.4l-.38,0,.22-.59c.83.12,1.66.21,2.51.25a21,21,0,0,0,5-2,40.89,40.89,0,0,1-6.27-1.58l.05-.13a27.5,27.5,0,0,0,8,.67l.71-.44c.91-.56,1.79-1.14,2.66-1.73l.37-.25a23.58,23.58,0,0,0-6.33-.56c-1.73,0-3.21.17-4.63.18l.34-.92c3.83.47,8.39-.16,11.89.39l2-1.41a12.27,12.27,0,0,0-6.44-1.46A7,7,0,0,1,231,65.2a9.84,9.84,0,0,1,3.29,1.09Zm1.42-6L236,61a11.7,11.7,0,0,0-3.92-.52,15.61,15.61,0,0,0-3.94.56,23.08,23.08,0,0,1,6.64,2.9,29.21,29.21,0,0,0-9-2.14,44.92,44.92,0,0,0-4.79,2l.63-1.68a19.7,19.7,0,0,1,5.77-2,13,13,0,0,0-4-2.81l.34-.92a16,16,0,0,1,4.84,3.59,14.78,14.78,0,0,1,3.81-.44A11.66,11.66,0,0,1,236.23,60Z"/><path class="cls-1" d="M218.34,71l-.05.13-1-.36Zm3.3-8.93L221,63.73l-.4.2-5.12,2.9a10.68,10.68,0,0,0,4,1.1l-.34.92a9.05,9.05,0,0,1-5-1.28,27.32,27.32,0,0,1-5.37,2.28,19,19,0,0,0,4.83,2.48c1.38.51,2.34.75,2.34.75a16.68,16.68,0,0,1-8.56-2.87l-.2,0a19.58,19.58,0,0,0,9.88,4.19l-.22.59c-2.94-.37-8.16-1.76-11.28-4.52l-.35,0a15.57,15.57,0,0,0,4.11,2.88,17.47,17.47,0,0,0,7.5,1.67l-.39,1a16.14,16.14,0,0,1-7.09-1.21,21.22,21.22,0,0,1-7.27-5.26.7.7,0,0,1-.08-.14l.55-1,.4,0-.37-.11.31-.55a25.25,25.25,0,0,0,2.45.66,22.66,22.66,0,0,0,5.28-1.23,38,38,0,0,1-6-2.53l.06-.12a33.24,33.24,0,0,0,3.44,1.15,26.75,26.75,0,0,0,4.41.75l.78-.34c1-.44,1.95-.92,2.89-1.4l.4-.21c-4.93-1.66-8-1.49-10.81-1.93l.48-.86C210,63,214.58,63,218,64l2.14-1.11c-1.27-1.23-4.09-2.1-6.11-2.31,2.58-.66,5.83.8,7.1,1.79Zm2.12-5.74-.34.92a12.72,12.72,0,0,0-3.69-1,20.41,20.41,0,0,0-3.9.07,22.68,22.68,0,0,1,6,3.7,24.5,24.5,0,0,0-4.59-2.13,29.42,29.42,0,0,0-3.82-1.16c-1.66.37-3.29.74-5,1.25l.87-1.56a21.76,21.76,0,0,1,6-1.16,14.16,14.16,0,0,0-3.45-3.33l.48-.86a11.54,11.54,0,0,1,2.11,1.79,15,15,0,0,1,2,2.44,20.52,20.52,0,0,1,3.76,0A13,13,0,0,1,223.76,56.31Z"/><path class="cls-1" d="M204.67,64.72l-.06.12-1-.52Zm4.64-8.31L208.44,58l-.43.13-5.51,2.08a10.6,10.6,0,0,0,3.76,1.7l-.48.86a9.22,9.22,0,0,1-4.73-2,31.6,31.6,0,0,1-5.62,1.45,19.65,19.65,0,0,0,4.34,3.17c1.29.71,2.2,1.09,2.2,1.09a16.85,16.85,0,0,1-8-4.09h-.2a19.64,19.64,0,0,0,9.07,5.61l-.31.55c-2.89-.84-7.8-3-10.35-6.13l-.33,0c1,1.63,4.85,5.32,10.65,6.21l-.55,1c-4.51-.45-9.32-2.94-13-8.36,0-.05,0-.12-.05-.15l.67-.91.38.1-.35-.14.38-.51c.74.33,1.5.63,2.29.9a24.63,24.63,0,0,0,5.32-.49,50.63,50.63,0,0,1-5.51-3.27l.08-.11a30.7,30.7,0,0,0,7.44,2.91l.81-.21c1-.27,2.06-.6,3.07-.93l.42-.14c-4.61-2.42-7.65-2.71-10.39-3.47l.58-.79c3.56,1.47,8.07,2.31,11.28,3.77l2.29-.78a12,12,0,0,0-5.7-3.23c2.69-.25,5.66,1.73,6.76,2.88Zm3-5.35-.48.86a14.34,14.34,0,0,0-7.39-2.1,22.42,22.42,0,0,1,5.42,4.61,25.1,25.1,0,0,0-4.2-2.82A26.34,26.34,0,0,0,202,49.85a41.68,41.68,0,0,0-5.22.51l1.06-1.44a19.64,19.64,0,0,1,6.2-.25,13.41,13.41,0,0,0-3.15-3.9l.58-.79a15,15,0,0,1,3.73,4.92A14.51,14.51,0,0,1,212.3,51.06Z"/></g></g></svg>